<svg width="95" height="30" viewBox="0 0 95 30" fill="none" xmlns="http://www.w3.org/2000/svg">
<g clip-path="url(#clip0_3076_641)">
<path d="M63.628 29.9183C63.6547 29.7233 63.3358 29.1842 63.3091 29.3775C63.2824 29.5724 62.8521 29.115 62.8788 28.9201C62.8929 28.8226 63.0735 28.9484 63.2526 29.0726C63.4332 29.1967 63.5997 29.4184 63.683 29.53C63.628 29.9183 64.3207 29.9183 64.473 29.5426C64.5971 29.3618 64.7228 29.181 64.916 29.2093C65.0134 29.2235 65.428 29.0836 65.761 28.8336C66.094 28.5837 66.4113 28.4312 66.5087 28.4438C66.606 28.4579 66.8275 28.2913 67.049 28.1247C67.2704 27.9581 67.6992 27.7223 68.004 27.6657C68.3087 27.6107 68.6417 27.3592 68.6542 27.2633C68.6825 27.0684 68.8898 26.9992 69.083 27.0275C69.2778 27.0542 69.3877 26.9725 69.4019 26.875C69.3186 26.765 69.4302 26.6801 69.6234 26.7084C70.1087 26.7776 71.5899 26.0954 71.6307 25.8046C71.659 25.6096 71.7548 25.6238 71.9354 25.7495C72.1019 25.9712 72.1993 25.9853 72.226 25.7904C72.2527 25.5955 72.2543 25.5955 72.3234 25.8046C72.3092 25.902 72.7255 25.7621 73.2784 25.3456C74.1642 24.6791 74.6763 24.5533 74.3307 24.9007C74.2208 24.984 74.3166 24.9982 74.5381 24.8315C74.7595 24.6649 75.0642 24.6099 75.259 24.6366C75.4538 24.6649 75.5637 24.5816 75.5779 24.4841C75.592 24.3867 75.9109 24.2342 76.3255 24.0959C76.7418 23.956 77.1706 23.7202 77.392 23.5536C77.6135 23.3869 78.0297 23.247 78.3203 23.2895C78.625 23.2345 79.0413 23.0946 79.2627 22.9279C79.4842 22.7613 79.803 22.6088 79.9004 22.6214C80.0952 22.6497 80.4125 22.4957 80.7455 22.2457C81.0785 21.9958 81.3832 21.9392 81.4664 22.0508C81.5497 22.1609 81.8685 22.0084 82.1999 21.7584C82.5313 21.5085 82.8502 21.356 82.8376 21.4519C82.99 21.771 83.5162 21.5478 83.4612 21.2429C83.4895 21.0479 83.5994 20.9646 83.7942 20.9929C83.989 21.0196 84.4036 20.8813 84.7225 20.7288C85.0413 20.5764 85.3602 20.4223 85.456 20.4365C85.5534 20.4506 85.968 20.3107 86.2728 20.2557C86.5916 20.1032 87.201 19.9916 87.5058 19.935C87.8105 19.88 88.1152 19.8234 88.1293 19.726C88.1434 19.6285 88.2534 19.5452 88.4482 19.5735C88.6429 19.6018 88.8644 19.4336 88.9885 19.2544C89.1126 19.0752 89.4314 18.9211 89.722 18.962C89.9168 18.9903 90.2341 18.8363 90.3597 18.6555C90.4838 18.4747 90.5953 18.3914 90.7759 18.5172C90.9566 18.6413 91.0665 18.558 91.0807 18.4621C91.0948 18.3662 91.2047 18.2814 91.2047 18.2814C91.3854 18.4055 92.1472 17.9198 92.2854 17.6416C92.2995 17.5441 92.521 17.3775 92.6184 17.3917C92.7158 17.4058 93.0063 17.4467 93.2969 17.4875C93.5875 17.5284 93.699 17.4451 93.754 17.0568C93.8372 16.4737 94.1828 16.1278 94.3634 16.252C94.4467 16.3621 94.5582 16.2787 94.5849 16.0854C94.6132 15.8905 94.5425 15.683 94.5299 15.7804C94.1278 15.8229 94.0587 15.6138 94.0995 15.323C94.2236 15.1423 94.3351 15.0589 94.5283 15.0872C94.8064 15.2256 94.7781 14.7257 94.4577 14.1865C94.2912 13.9649 94.2221 13.7574 94.332 13.6741C94.3461 13.5766 94.2488 13.564 94.0414 13.6332C93.7367 13.6882 93.6535 13.5782 93.6802 13.3833C93.7351 12.995 93.2639 12.8284 92.1692 12.8724C91.6697 12.9007 91.5597 12.984 91.5189 13.2748C91.4822 13.5337 91.4131 13.5567 91.3116 13.344C91.2424 13.1365 91.0618 13.0107 90.9503 13.094C90.8403 13.1774 90.8529 13.0799 90.867 12.984C90.8937 12.7891 90.6314 12.5549 90.1602 12.3883C89.5084 12.0975 89.3152 12.0707 89.177 12.3474C88.9272 12.7089 88.6508 12.569 88.4419 11.9465C88.3021 11.53 88.123 11.4058 87.9283 11.3791C87.7335 11.3508 87.4288 11.4074 87.2215 11.4765C86.9167 11.5316 86.8335 11.4215 86.8602 11.2266C86.8874 11.0327 86.9565 11.0097 87.0675 11.1574C87.1785 11.3052 87.211 11.3099 87.1649 11.1716C87.179 11.0741 86.9152 10.8383 86.7204 10.8116C86.3466 10.6591 86.3324 10.7566 86.4989 10.9782C86.7345 11.4074 86.4157 11.5614 85.9727 11.1999C85.6115 10.95 85.5565 10.645 85.9586 10.6041C86.056 10.6183 85.9727 10.5067 85.778 10.4799C85.5832 10.4517 85.4042 10.3275 85.4167 10.23C85.4345 10.1001 85.3696 10.0912 85.222 10.2033C85.112 10.2866 84.9031 10.3558 84.7099 10.329C84.5151 10.3008 84.3078 10.3715 84.1837 10.5523C83.9481 10.8163 83.8507 10.8022 84.0031 10.4281C84.1413 10.1498 84.0722 9.94236 83.8916 9.81817C83.5303 9.56824 83.4345 9.55567 83.3921 9.84647C83.3497 10.1373 83.0465 10.1939 82.8926 9.87476C82.8094 9.76473 82.712 9.75058 82.602 9.83389C82.4779 10.0147 82.3947 9.90306 82.4355 9.61225C82.4905 9.22399 82.3099 9.09981 81.9094 9.14068C81.8444 9.13125 81.8167 9.09457 81.8261 9.03065C81.8402 8.93319 81.6596 8.809 81.369 8.76814C80.9811 8.71312 80.8837 8.69897 80.9402 9.00392C80.9685 9.50379 80.8711 9.48964 80.5523 8.94891C80.3858 8.72727 80.3025 8.61566 80.2884 8.71312C80.2334 9.10138 79.9695 8.86559 79.9271 8.46318C79.8989 8.19491 79.7784 8.1116 79.5659 8.21325C79.2329 8.46318 79.1371 8.44904 78.8873 8.11736C78.8041 8.00733 78.735 7.79826 78.735 7.79826C78.8324 7.81241 78.8449 7.71495 78.7632 7.60335C78.68 7.49331 78.4727 7.56248 78.2512 7.7291L77.8083 8.06235L77.9606 7.68823C78.0988 7.41 78.113 7.31411 78.0015 7.39743C77.8915 7.48074 77.8067 7.36913 77.7376 7.16164C77.7009 6.95834 77.5716 6.94 77.3496 7.10662C77.114 7.3707 77.0166 7.35656 76.9884 6.85669C76.9334 6.55173 76.7669 6.3301 76.6695 6.31595C76.5721 6.3018 76.5596 6.39926 76.5454 6.49672C76.6287 6.60675 76.4213 6.67749 76.0192 6.71836C75.6313 6.66334 75.4365 6.63505 75.4648 6.4417C75.4789 6.34424 75.2983 6.22006 75.091 6.28923C74.7862 6.34424 74.703 6.23421 74.8412 5.95598C74.9653 5.77521 74.882 5.66517 74.6747 5.73434C74.4674 5.8035 74.3559 5.88682 74.3417 5.98427C74.3276 6.08173 74.2176 6.16504 74.1203 6.1509C74.0229 6.13675 73.9396 6.02672 74.0653 5.84595C74.1894 5.66517 74.0936 5.65103 73.9962 5.63845C73.8862 5.72176 73.8014 5.61173 73.8156 5.51427C73.8297 5.41681 73.7182 5.50012 73.5941 5.68089C73.4559 5.95912 73.3585 5.94498 73.3726 5.84752C73.4009 5.6526 73.3176 5.54257 72.9155 5.58501C72.625 5.54414 72.5276 5.52999 72.6375 5.44668C72.7475 5.36337 72.8731 5.1826 72.9831 5.09929C73.1072 4.91852 73.0239 4.80848 72.5386 4.73932C72.248 4.69845 71.9433 4.75346 71.8318 4.83678C71.6935 5.115 71.2365 4.85092 71.2914 4.46266C71.3103 4.33271 71.2134 4.31909 71.0009 4.42179C70.7935 4.49095 70.682 4.57427 70.5988 4.46423C70.5155 4.3542 70.6255 4.26931 70.8485 4.10269C71.0558 4.03353 71.1815 3.85276 70.9867 3.82446C70.9035 3.71443 70.792 3.79617 70.682 3.87948C70.4464 4.14356 69.9485 4.17186 69.9752 3.97694C69.9893 3.87948 70.016 3.68613 69.9328 3.57453C69.9469 3.47707 69.7663 3.35289 69.6689 3.33874C69.4741 3.31045 69.2951 3.18626 69.1286 2.96462C68.8647 2.72884 68.7673 2.71469 68.56 2.78543C68.3385 2.95205 68.2411 2.9379 68.172 2.73041C68.1029 2.52292 67.9773 2.70212 67.9097 3.18784C67.8548 3.5761 67.6191 3.84018 67.5092 3.92349C67.3019 3.99266 67.3286 3.79931 67.4668 3.52108C67.6191 3.14697 67.5359 3.03536 67.2579 2.89703C66.9799 2.7587 66.8966 2.6471 67.0348 2.37044C67.1872 1.99633 67.0898 1.98218 66.6045 1.91301C66.2165 1.858 66.0092 1.92716 65.871 2.20539C65.7469 2.38616 65.6212 2.56693 65.538 2.45532C65.4547 2.34529 65.483 2.15037 65.4956 2.05291C65.6196 1.87214 65.5647 1.56719 65.4956 1.3597C65.4265 1.15221 65.3291 1.13806 65.3149 1.23552C65.3008 1.33298 65.1908 1.41629 65.1076 1.30468C65.0244 1.19465 64.9128 1.27639 64.9003 1.37385C64.8861 1.47131 64.7903 1.45716 64.6223 1.23552C64.4699 0.91642 64.3725 0.902272 64.151 1.0689C63.8181 1.31883 63.4584 1.0689 63.5133 0.680632C63.5542 0.389828 63.1662 0.334811 63.1254 0.625615C63.1112 0.723074 63.0704 1.01388 62.973 0.999731C62.9589 1.09719 62.8489 1.1805 62.8348 1.27796C62.8207 1.37542 62.7515 1.16793 62.6824 0.958861C62.6133 0.751369 62.5426 0.542304 62.4327 0.625615C62.3228 0.708927 62.2521 0.501434 62.2803 0.306517C62.3076 0.112647 62.2798 0.0759691 62.1971 0.196483C62.0447 0.570598 61.7542 0.529729 61.8091 0.141466C61.8269 0.0115206 61.7301 -0.00210265 61.5186 0.100596C61.2971 0.267219 61.2829 0.364678 61.3521 0.57217C61.5186 0.79381 61.407 0.877122 61.1856 1.04374C60.9782 1.11291 60.8526 1.29368 60.95 1.30783C61.0473 1.32197 61.1447 1.33612 61.3238 1.4603C61.5044 1.58448 61.6144 1.50117 61.7526 1.22451C61.8767 1.04374 61.9882 0.960433 62.0714 1.07204C62.1547 1.18365 62.0306 1.36284 61.8091 1.52947C61.4761 1.7794 61.0222 3.59653 61.2987 3.73486C61.3636 3.74429 61.4002 3.71652 61.4086 3.65155C61.4227 3.55409 61.6159 3.58239 61.8107 3.60911C61.9913 3.73329 62.172 3.85904 62.172 3.85904C62.1578 3.9565 62.2269 4.164 62.3934 4.38564C62.5599 4.6078 62.629 4.58474 62.6008 4.31647C62.5317 4.10898 62.6557 3.92821 62.7531 3.94236C62.8505 3.9565 62.9338 4.06654 62.9196 4.164C62.8646 4.55226 63.2259 4.80219 64.0851 5.02226C64.4589 5.17474 64.9301 5.33979 64.9301 5.33979C65.0275 5.35394 65.0401 5.25648 65.0542 5.15902C65.0814 4.96515 65.1783 4.97877 65.3448 5.19989C65.4971 5.51899 65.5945 5.53313 65.6354 5.24076C65.6636 5.04584 65.7877 4.86664 65.8851 4.87922C65.995 4.79591 66.0799 4.90751 65.9542 5.08671C65.8018 5.46083 66.8417 6.49986 67.2579 6.36153C67.4652 6.29237 67.5485 6.4024 67.5485 6.4024C67.5202 6.59732 68.8239 7.17736 69.1286 7.12234C69.2385 7.03903 69.5165 7.17736 69.5857 7.38485C69.7522 7.60649 70.0302 7.74482 70.3066 7.88315C70.5846 8.02148 70.8611 8.1598 70.8469 8.25726C70.9302 8.3673 71.0276 8.38144 71.1249 8.39559C71.2349 8.31228 71.6935 8.57479 72.0407 8.92218C72.4019 9.17212 73.0396 9.55881 73.4134 9.71128C73.7873 9.86376 74.1627 10.0162 74.2459 10.1263C74.3292 10.2363 74.5098 10.3621 74.703 10.3888C74.8978 10.4171 75.1742 10.5554 75.1742 10.5554C75.4239 10.8886 76.4637 11.2329 76.6711 11.1637C76.8784 11.0946 76.9758 11.1087 76.8517 11.2879C76.8376 11.3854 76.9067 11.5929 77.1847 11.7312C77.8224 12.1195 77.6009 12.2861 76.437 12.121C75.8543 12.0377 75.3564 12.066 75.2449 12.1493C75.1349 12.2326 74.9402 12.2043 74.6496 12.1635C74.3716 12.0251 74.1642 12.0943 74.1375 12.2892C74.1093 12.4841 73.9993 12.5675 73.7354 12.3317C73.5548 12.2075 73.2642 12.165 73.1527 12.2484C73.0412 12.3317 72.5574 12.2625 71.8773 12.1666C71.1988 12.0707 70.6019 12.0849 70.4778 12.2656C70.2563 12.4323 70.159 12.4181 70.1872 12.2248C70.2155 12.0299 70.1181 12.0173 69.7993 12.1698C69.5919 12.2389 69.3972 12.2122 69.4113 12.1147C69.4521 11.8239 68.8568 11.8381 68.3165 12.1572C67.9977 12.3097 67.7903 12.3788 67.8045 12.2829C67.8453 11.9921 67.3474 12.0204 67.1118 12.2829C66.8762 12.547 66.0861 12.5344 66.3217 12.2704C66.4317 12.187 66.35 12.0754 66.2526 12.0629C66.1553 12.0503 66.0453 12.132 65.9338 12.2153C65.8238 12.2987 65.4343 12.2436 64.9505 12.1745C64.4652 12.1053 63.9798 12.0361 63.7725 12.1069C63.5652 12.176 63.3704 12.1493 63.3845 12.0519C63.3987 11.9544 63.3154 11.8444 63.218 11.8302C63.1207 11.8161 63.1081 11.9135 63.094 12.011C63.1772 12.1226 62.9699 12.1918 62.5819 12.1367C61.3206 11.9576 59.2426 11.9607 58.619 12.1682C58.3143 12.2232 58.0238 12.1823 57.9264 12.1682C57.8431 12.0582 57.6358 12.1273 57.5243 12.2106C57.4143 12.2939 57.2054 12.3631 57.108 12.3505C56.6368 12.1839 56.3321 12.2405 56.4012 12.448C56.4473 12.5863 56.4148 12.5816 56.3038 12.4338C56.04 12.1981 55.0708 12.0613 53.2001 11.9937C52.7007 12.022 51.8289 11.8978 51.2321 11.912C50.7467 11.8428 50.054 11.8444 49.7493 11.8994C49.0284 12.0943 47.6713 11.901 47.7121 11.6102C47.731 11.4802 47.6985 11.4755 47.6147 11.596C47.3791 11.8601 46.5891 11.8475 45.1205 11.7375C44.0398 11.6825 43.5545 11.6149 42.7519 11.6982C42.6545 11.684 42.3356 11.8365 42.2257 11.9198C42.078 12.0309 42.0131 12.0215 42.0309 11.8915C42.0592 11.6966 41.8644 11.6699 41.4623 11.7123C41.1576 11.7673 40.6581 11.7956 40.3675 11.7548C40.0628 11.8098 39.8555 11.8805 39.8413 11.9764C39.8272 12.0723 39.6199 12.143 39.4251 12.1163C39.2303 12.088 39.0513 11.9638 38.968 11.8538C38.9947 11.6589 37.2214 11.6054 37 11.7721C36.9858 11.8695 36.5005 11.8004 36.0026 11.8287C35.5172 11.7595 35.1151 11.8019 35.0052 11.8852C34.991 11.9827 34.7005 11.9403 34.4366 11.706C34.0753 11.4561 33.8821 11.4294 33.8538 11.6227C33.8397 11.7202 33.6324 11.7894 33.5491 11.6777C33.4517 11.6636 33.1612 11.6227 33.0371 11.8035C32.8156 11.9701 32.6208 11.9418 32.3303 11.901C32.1496 11.7768 31.9423 11.8459 31.9282 11.9434C31.9093 12.0733 31.8444 12.0644 31.7334 11.9167C31.6502 11.8066 31.4695 11.6809 31.3596 11.7642C31.2496 11.8475 30.7643 11.7784 30.3763 11.7233C29.9884 11.6683 29.6004 11.6133 29.5863 11.7108C29.5721 11.8082 28.8936 11.7108 28.1177 11.6007C27.3417 11.4907 26.6491 11.4907 26.6491 11.4907C26.6491 11.4907 26.5391 11.574 26.4417 11.5599C25.6799 11.3524 24.5852 11.3948 24.2663 11.5489C23.9333 11.7988 23.5328 11.8412 23.671 11.563C23.781 11.4797 23.6019 11.3555 23.4071 11.3272C23.2124 11.2989 22.9076 11.3555 22.8951 11.453C22.771 11.6337 22.6878 11.5221 22.6171 11.3146C22.4506 11.093 22.3673 10.9814 22.2432 11.1622C22.1192 11.3429 22.0218 11.3288 21.8553 11.1071C21.6747 10.983 21.5773 10.9688 21.5506 11.1622C21.4265 11.3429 21.2176 11.4121 20.8438 11.2596C20.4699 11.1071 20.3725 11.093 20.539 11.3146C20.7197 11.4388 20.6082 11.5221 20.0396 11.3429C19.6657 11.1905 18.8898 11.0804 18.3071 10.9987C14.7039 10.5868 13.7348 10.4485 13.5259 10.5192C13.4159 10.6026 13.3185 10.5884 13.3311 10.491C13.3437 10.3935 13.0531 10.3526 12.6526 10.3951C12.252 10.4375 11.5578 10.4375 11.0724 10.3683C10.5871 10.2992 10.185 10.3416 10.1724 10.4391C10.1583 10.5365 10.0625 10.5224 9.86772 10.4941C9.68709 10.3699 8.99441 10.3699 8.28759 10.4674C7.38758 10.5381 6.99962 10.4831 6.91637 10.3715C6.8614 10.0665 6.6525 10.1357 6.40433 10.4972C6.26611 10.7755 6.16872 10.7613 5.97553 10.733C5.7949 10.6088 5.68495 10.6922 5.67081 10.788C5.62997 11.0788 5.15876 10.9138 4.63101 10.4422C4.11739 9.87476 3.60534 9.99894 3.50953 10.6796C3.45456 11.0678 3.33047 11.2486 3.05246 11.1103C2.85769 11.0836 2.66449 11.0553 2.54041 11.236C2.41632 11.4168 2.31894 11.4027 2.05506 11.1669C1.87443 11.0427 1.6938 10.9169 1.77705 11.0285C1.81946 11.431 1.6671 11.8051 1.48647 11.6809C1.40322 11.5709 1.2917 11.6526 1.27914 11.7501C1.26657 11.8475 1.44563 11.9717 1.62626 12.0959C1.80689 12.2201 1.89014 12.3317 1.876 12.4291C1.76606 12.5124 1.66867 12.4983 1.48804 12.3741C1.32155 12.1525 1.22416 12.1383 1.19746 12.3332C1.18333 12.4307 1.07338 12.514 0.878611 12.4857C0.683844 12.4574 0.671279 12.5549 0.74039 12.7639C0.8095 12.9714 0.823637 13.5688 0.839344 14.1645C0.85348 14.7603 0.881752 15.2601 0.979136 15.2743C1.07652 15.2884 1.06238 15.3843 0.950863 15.4692C0.840914 15.5525 0.729395 15.6358 0.826778 15.65C0.993272 15.8716 2.29538 15.0668 2.33622 14.7744C2.36292 14.5795 2.66921 14.5245 3.25036 14.6078C3.34775 14.6219 3.44513 14.6345 3.4577 14.5386C3.48597 14.3437 4.19121 14.2463 4.26189 14.4553C4.34514 14.5654 4.23362 14.6502 4.13781 14.6361C4.04043 14.6219 3.91634 14.8027 3.88807 14.9976C3.84723 15.2884 3.93048 15.4 4.62315 15.3985C5.01112 15.4535 5.31583 15.3985 5.32997 15.301C5.34411 15.2036 5.45405 15.1202 5.55144 15.1344C5.75877 15.0652 5.7462 15.1611 5.73207 15.2586C5.62212 15.3419 5.7038 15.4535 5.80118 15.4661C5.89856 15.4786 6.00851 15.3969 6.02265 15.2994C6.03678 15.202 6.85355 15.0212 7.44884 15.0071C7.54622 15.0212 7.75356 14.952 7.85094 14.9646C7.96089 14.8813 8.04571 14.9929 8.11482 15.2004C8.16089 15.3387 8.19754 15.311 8.22477 15.1171C8.32058 14.438 8.70854 14.493 8.61273 15.1721C8.55723 15.5609 8.61744 15.6023 8.79336 15.2963C8.91744 15.1155 9.0431 14.9348 9.02896 15.0322C9.01483 15.1297 9.11221 15.1423 9.33368 14.9772C9.55515 14.8106 9.65253 14.8247 9.81902 15.0464C9.98552 15.268 10.0829 15.2822 10.3044 15.1155C10.5117 15.0464 11.1086 15.0322 11.9803 15.1548C13.1442 15.3199 13.339 15.3482 13.2683 15.1391C13.1992 14.9316 13.3091 14.8483 13.4206 14.765C13.5306 14.6817 13.6154 14.7933 13.6845 15.0008C13.7536 15.2083 13.8369 15.3199 14.0316 15.3466C14.1615 15.3655 14.1892 15.4021 14.1149 15.4566C13.6986 15.5965 13.7552 15.9015 14.1699 15.7616C14.3772 15.6924 14.7652 15.7474 15.0699 15.6908C15.3604 15.7317 15.7625 15.6908 15.9699 15.6201C16.1772 15.5509 16.4552 15.6893 16.6359 15.8135C16.8023 16.0351 16.8997 16.0492 16.9406 15.7584C16.9955 15.3702 17.6474 15.661 17.6898 16.0634C17.6615 16.2583 17.773 16.1734 17.8139 15.8826C17.8547 15.5918 17.9804 15.411 17.9804 15.411C18.271 15.4519 18.5348 15.6877 18.5081 15.8826C18.384 16.0634 18.8144 16.5208 19.0217 16.4501C19.1333 16.3668 19.05 16.2552 18.9793 16.0477C18.9102 15.8402 18.827 15.7286 18.9369 15.6453C19.0469 15.562 19.1317 15.672 19.1034 15.8669C19.2432 16.2835 19.6312 16.3385 19.6861 15.9502C19.7134 15.7563 19.7458 15.7611 19.7835 15.9644C19.7553 16.1593 19.9359 16.2835 20.0474 16.2001C20.1589 16.1168 20.338 16.241 20.4212 16.3526C20.5736 16.6717 20.7825 16.6026 20.8233 16.3102C20.8375 16.2127 20.9616 16.032 21.0589 16.0461C21.1563 16.0602 21.2396 16.1703 21.128 16.2536C21.1139 16.3511 21.2945 16.4752 21.5851 16.5161C21.8757 16.557 22.0846 16.4878 22.0846 16.4878C22.0846 16.4878 22.2919 16.4186 22.57 16.557C22.848 16.6953 23.0553 16.6261 23.1652 16.5428C23.2893 16.3621 23.3867 16.3762 23.5532 16.5978C23.7197 16.8195 23.8171 16.8336 24.1359 16.6812C24.3433 16.612 24.4548 16.5287 24.4265 16.722C24.4124 16.8195 24.6071 16.8462 25.0092 16.8053C25.314 16.7503 25.7019 16.8053 25.8967 16.8321C26.0773 16.9562 26.1873 16.8729 26.104 16.7629C26.0349 16.5554 26.1323 16.568 26.2988 16.7912C26.4794 16.9154 26.6726 16.9437 26.6726 16.9437C26.6726 16.9437 26.9773 16.8886 27.2679 16.9295C27.7533 16.9987 27.8632 16.9154 27.8915 16.7205C27.9197 16.5255 27.9323 16.4296 28.0988 16.6513C28.3485 16.9845 28.7506 16.9421 28.7082 16.5397C28.6391 16.3322 28.7632 16.1514 28.8606 16.1656C28.958 16.1797 29.0271 16.3872 28.9862 16.678C28.958 16.8729 29.0145 17.1779 29.1119 17.1905C29.2093 17.2046 29.236 17.0097 29.2643 16.8163C29.2219 16.4139 29.4308 16.3448 29.6664 16.7739C29.8329 16.9955 29.8187 17.093 29.6255 17.0647C29.5281 17.0506 29.6114 17.1622 29.9868 17.3146C30.2774 17.3555 30.5695 17.3979 30.5821 17.3005C30.5962 17.203 30.7894 17.2313 31.0674 17.3697C31.2481 17.4938 31.5245 17.6322 31.5386 17.5363C31.691 17.1622 31.7727 16.579 31.6769 16.5648C31.581 16.5507 31.5936 16.4548 31.6219 16.2599C31.7046 16.1394 31.7973 16.1855 31.8999 16.3982C32.0015 16.6109 32.0894 16.6895 32.1638 16.634C32.2371 16.5785 32.2601 16.6476 32.2329 16.8415C32.2046 17.0364 32.2612 17.3414 32.3585 17.3539C32.4559 17.3665 32.5533 17.3822 32.58 17.1873C32.6067 16.9924 32.7182 16.9091 32.913 16.9374C33.1067 16.9646 33.1298 17.0338 32.9821 17.1449C32.7748 17.214 32.7606 17.3115 33.0371 17.4498C33.4942 17.7123 34.7696 17.7941 34.6031 17.5724C34.5198 17.4624 34.6313 17.3775 34.7272 17.3917C34.823 17.4058 34.9078 17.5158 34.8936 17.6133C34.8748 17.7432 34.9073 17.748 34.991 17.6274C35.101 17.5441 35.6005 17.5158 36.1832 17.5992C36.7659 17.6825 37.3471 17.7642 37.4586 17.6809C37.5701 17.5976 37.6659 17.6117 37.6534 17.7092C37.6408 17.8066 37.7507 17.7233 37.8607 17.64C37.9848 17.4593 38.0822 17.4734 38.1513 17.6809C38.2062 17.9858 38.5958 18.0409 38.5392 17.7359C38.456 17.6243 38.5675 17.541 38.8581 17.5834C39.0529 17.6117 39.1487 17.6243 39.1361 17.7218C39.1235 17.8192 39.7047 17.901 40.3 17.8868C41.1874 17.9135 41.6853 17.8868 41.9068 17.7186C42.2398 17.4687 42.3356 17.4828 42.3089 17.6762C42.2681 17.967 42.4613 17.9953 43.3629 17.9245C43.4602 17.9387 43.5011 17.6463 43.5419 17.3555C43.5827 17.0647 43.7351 16.689 43.8592 16.5098C43.9833 16.329 44.0665 16.4407 43.9848 17.0223C43.9157 17.508 43.9723 17.8129 44.0681 17.8271C44.4561 17.8821 46.3959 18.1572 46.4933 18.1713C46.7006 18.1022 46.9927 18.143 47.3807 18.1981C47.7687 18.2531 47.8802 18.1698 47.921 17.879C47.9619 17.5882 48.0734 17.5048 48.4613 17.5599C48.7519 17.6007 48.8352 17.7123 48.8226 17.8098C48.6985 17.9906 48.9624 18.2263 49.2671 18.1698C49.3771 18.0864 49.7666 18.1415 50.1671 18.099C50.5551 18.154 50.7498 18.1823 50.7624 18.0849C50.7624 18.0849 53.1185 18.2216 53.9902 18.3442C54.3782 18.3993 54.5855 18.3301 54.6138 18.1352C54.6279 18.0377 54.7378 17.9544 54.8352 17.9686C54.9326 17.9827 55.0159 18.0927 55.0017 18.1902C54.9876 18.2877 55.085 18.3002 55.1824 18.3144C55.3897 18.2452 56.8724 18.2578 57.8431 18.3945C58.7164 18.5187 59.5332 18.338 59.3808 18.0189C59.2976 17.9088 59.4908 17.9355 59.6588 18.1572L59.9918 18.6005L59.9636 18.1006C59.9086 17.7956 59.9353 17.6007 60.1301 17.629C60.2274 17.6432 60.3107 17.7532 60.2966 17.8507C60.2824 17.9481 60.4489 18.1698 60.6154 18.3914C61.0599 18.7514 62.4578 18.6523 62.7343 18.0975C62.9008 17.8564 62.9285 17.8931 62.8175 18.2075C62.7159 18.4569 62.7762 18.4983 62.9981 18.3317C63.2338 18.0676 63.3311 18.0817 63.4002 18.2892C63.4552 18.5942 63.8448 18.6492 65.4233 18.6759C66.0186 18.6618 66.906 18.6885 68.7767 18.7561C70.4527 18.7954 71.4501 18.7388 71.4783 18.5454C71.4925 18.448 71.6857 18.4763 71.8804 18.503C72.0752 18.5313 72.4632 18.5863 72.7805 18.4323C73.0993 18.2798 73.2925 18.3065 73.2799 18.404C73.2391 18.6948 73.6412 18.6539 73.792 18.2782C73.9443 17.9041 74.8852 17.5426 74.8444 17.8334C74.8302 17.9308 74.7203 18.0141 74.6229 18C74.5255 17.9858 74.5129 18.0833 74.4988 18.1808C74.6512 18.4999 75.0533 18.4574 75.1082 18.0692C75.1632 17.6809 75.2606 17.695 75.6203 17.9434C75.8842 18.1792 75.3988 18.8032 74.9009 18.8315C74.6936 18.9007 74.3747 19.0547 74.2365 19.3314C74.0983 19.6096 73.9868 19.6929 73.9176 19.4839C73.8485 19.2764 73.7512 19.2622 73.5297 19.4289C73.1967 19.6788 73.0035 19.6521 72.8511 19.333C72.782 19.1255 72.6846 19.1113 72.5606 19.2921C71.9653 19.9995 71.7438 20.1661 70.9679 20.0561C70.4825 19.9869 70.1778 20.0435 70.1637 20.1394C70.0946 20.6251 69.9972 20.6109 69.9422 20.306C69.8731 20.0985 69.7757 20.0844 69.6375 20.361C69.5134 20.5418 69.4019 20.6251 69.3045 20.6109C69.2213 20.5009 69.0139 20.5701 68.7092 20.6251C68.5019 20.6943 68.1972 20.7508 68.0998 20.7367C68.0024 20.7225 67.905 20.71 67.8924 20.8059C67.8799 20.9017 67.7684 20.9866 67.671 20.9725C67.5736 20.9583 67.1448 21.1941 66.7019 21.5289C66.2589 21.8622 65.9259 22.1121 65.8427 22.0005C65.7594 21.8905 65.6354 22.0697 65.6071 22.2646C65.5788 22.4595 65.4547 22.6387 65.3573 22.6261C65.26 22.612 65.1767 22.502 65.205 22.307C65.2333 22.1121 65.1359 22.0995 64.927 22.1687C64.7196 22.2379 64.5814 22.5161 64.5531 22.7094C64.6081 23.0144 64.4982 23.0977 64.1935 23.1543C63.9861 23.2235 63.7772 23.2926 63.7364 23.585C63.6955 23.8774 63.6814 23.9733 63.5149 23.7516C63.3484 23.53 63.2369 23.6133 63.1552 24.1965C63.0029 24.5706 63.0594 24.8755 63.2385 25.0013C63.3217 25.1113 63.3908 25.3204 63.2809 25.4037C63.1568 25.5845 63.24 25.6945 63.35 25.6112C63.4599 25.5279 63.5448 25.6395 63.5448 25.6395C63.5039 25.9303 63.1992 25.9869 63.0453 25.6678C62.9055 25.2512 62.3793 25.4744 62.505 25.9869C62.5474 26.3893 62.9212 26.5418 62.962 26.2494C62.9762 26.1519 63.072 26.1661 63.1694 26.1802C63.4332 26.416 63.2809 26.7901 63.0029 26.6518C62.8222 26.5276 62.8081 26.6251 62.8788 26.8326C62.9479 27.0401 62.9338 27.1375 62.6573 26.9992C62.4767 26.875 62.3667 26.9583 62.45 27.0684C62.5332 27.1784 62.6165 27.29 62.7139 27.3042C62.8238 27.2208 62.9086 27.3325 62.8945 27.4283C62.8803 27.5242 62.673 27.595 62.395 27.4566C62.117 27.3183 62.007 27.4016 61.9929 27.4991C61.9788 27.5965 62.062 27.7066 62.1594 27.7207C62.2568 27.7349 62.3259 27.9424 62.3809 28.2473C62.4358 28.5523 62.5065 28.7598 62.6023 28.7739C62.6997 28.788 62.7123 28.6906 62.7264 28.5931C62.6432 28.4831 62.8238 28.6073 63.0877 28.8431C62.673 29.6762 63.5872 30.2012 63.6296 29.9104L63.628 29.9183ZM68.172 3.42991C68.1862 3.33245 68.2961 3.24914 68.3935 3.26329C68.4909 3.27744 68.5741 3.38747 68.5459 3.58239C68.5176 3.77731 68.4218 3.76316 68.3244 3.74901C68.1438 3.62483 68.1579 3.52737 68.172 3.42991ZM69.1144 3.76159C69.1553 3.47078 69.5432 3.5258 69.5857 3.92821C69.5715 4.02567 69.4616 4.10898 69.3642 4.09483C69.2668 4.08068 69.0862 3.9565 69.1144 3.76159ZM63.072 2.40974C62.8913 2.28556 62.8081 2.17395 62.8222 2.07649C62.8364 1.97903 63.0296 2.00733 63.2102 2.13151C63.3908 2.25569 63.5573 2.47733 63.529 2.67225C63.5008 2.86717 63.405 2.85302 63.4191 2.75556C63.4332 2.6581 63.2526 2.53392 63.072 2.40974ZM62.0337 2.75713C61.9364 2.74299 61.8531 2.63295 61.8672 2.53549C61.8814 2.43803 61.8939 2.34057 61.9772 2.45218C62.2678 2.49305 62.2411 2.68797 62.0337 2.75713ZM79.4418 8.39559C79.6491 8.32643 79.7606 8.24312 79.7324 8.43646C79.7182 8.53392 79.6083 8.61723 79.4968 8.70054C79.1779 8.85302 79.1229 8.54807 79.4418 8.39559ZM76.8784 8.32957C76.8784 8.32957 76.9884 8.24626 77.0999 8.16295C77.2098 8.07964 77.2946 8.19124 77.2805 8.28713C77.2664 8.38302 77.1564 8.4679 77.059 8.45375C76.9617 8.4396 76.8784 8.32957 76.8784 8.32957ZM78.2685 12.4873C78.1481 12.4045 78.157 12.3395 78.2952 12.2924C78.5166 12.1257 78.7805 12.3615 78.5591 12.5282C78.4617 12.514 78.3643 12.4999 78.2685 12.4873ZM78.947 12.5832C78.9753 12.3883 79.2926 12.2358 79.3633 12.4433C79.4324 12.6508 79.3083 12.8315 79.0177 12.7907C79.0177 12.7907 78.9344 12.6806 78.9486 12.5832H78.947ZM46.6645 12.7577C46.8718 12.6885 47.1215 13.0202 47.0116 13.1035C47.0116 13.1035 46.8168 13.0752 46.7336 12.9651C46.5388 12.9369 46.5529 12.841 46.6645 12.7577ZM42.3702 13.0406C42.2869 12.9306 42.2037 12.819 42.2178 12.7215C42.2587 12.4307 42.6608 12.3883 42.8272 12.6099C42.9937 12.8315 42.8964 12.8174 42.7173 12.6932C42.5367 12.569 42.4393 12.5549 42.4958 12.8598C42.5649 13.0673 42.5524 13.1648 42.3717 13.0406H42.3702ZM16.5479 15.1202C16.6311 15.2303 16.5071 15.411 16.5071 15.411C16.3971 15.4944 16.4097 15.3969 16.4379 15.2036C16.4557 15.0747 16.4924 15.0469 16.5479 15.1202ZM30.9999 16.4768C30.9858 16.5743 30.8758 16.6576 30.7643 16.7409C30.6543 16.8242 30.5695 16.7126 30.5837 16.6167C30.5978 16.5208 30.7077 16.4359 30.8193 16.3526C30.9166 16.3668 31.014 16.3793 30.9999 16.4768ZM34.2418 17.3335C34.2277 17.431 34.1177 17.5143 33.923 17.486C33.8256 17.4718 33.6449 17.3476 33.6591 17.2502C33.6732 17.1527 33.7832 17.0694 33.9779 17.0977C34.1727 17.1244 34.2544 17.236 34.2418 17.3335ZM40.6707 17.3539C40.6565 17.4514 40.5466 17.5347 40.3518 17.5064C40.2544 17.4923 40.0612 17.4655 40.0738 17.3681C40.0879 17.2706 40.1838 17.2848 40.3927 17.2156C40.5859 17.2423 40.6832 17.2565 40.6691 17.3539H40.6707ZM4.46294 11.7233C4.54619 11.8334 4.42211 12.0141 4.32472 12.0016C4.22734 11.9874 4.14409 11.8774 4.17236 11.6825C4.1865 11.585 4.2132 11.3917 4.31059 11.4042C4.40797 11.4184 4.47708 11.6259 4.46294 11.7233ZM47.7372 17.7626C47.7231 17.8601 47.6132 17.9434 47.5158 17.9293C47.4184 17.9151 47.3351 17.8051 47.2519 17.6935C47.1687 17.5834 47.2802 17.4986 47.4734 17.5268C47.654 17.651 47.7514 17.6652 47.7372 17.7626ZM44.9241 17.3634C44.91 17.4608 44.8142 17.4467 44.7168 17.4325C44.6335 17.3225 44.5362 17.3083 44.5503 17.2109C44.5644 17.1134 44.6603 17.1276 44.7576 17.1417C44.855 17.1559 44.9383 17.2659 44.9241 17.3634ZM20.3835 13.1884C20.1762 13.2575 19.9673 13.3283 19.9814 13.2308C19.8982 13.1208 20.1197 12.9526 20.4102 12.995C20.7008 13.0359 20.6867 13.1333 20.382 13.1899L20.3835 13.1884ZM54.3609 17.8098C54.3467 17.9072 54.2509 17.8931 54.1535 17.879C54.0703 17.7689 53.9729 17.7548 53.9871 17.6573C54.0012 17.5599 54.097 17.574 54.1944 17.5882C54.2918 17.6023 54.375 17.7123 54.3609 17.8098ZM53.6949 17.6164C53.6808 17.7139 53.5567 17.8931 53.4593 17.8805C53.2645 17.8522 53.1122 17.5347 53.3195 17.464C53.4436 17.2832 53.7216 17.4215 53.6933 17.6164H53.6949ZM52.6143 17.563C52.7158 17.7757 52.7158 17.7757 52.6143 17.563C52.4336 17.4388 52.253 17.3131 52.253 17.3131C52.2813 17.1181 52.4603 17.2439 52.6143 17.563ZM60.8306 18.2326C60.8164 18.3301 60.7065 18.4134 60.6091 18.3993C60.5117 18.3851 60.4285 18.2751 60.4426 18.1776C60.4568 18.0802 60.5667 17.9968 60.6641 18.011C60.8589 18.0393 60.8447 18.1352 60.8306 18.2326ZM22.3909 12.2861C22.3076 12.176 22.1129 12.1478 22.127 12.0503C22.127 12.0503 22.237 11.967 22.4317 11.9953C22.5291 12.0094 22.7097 12.1336 22.6956 12.2311C22.6815 12.3285 22.5715 12.4118 22.3909 12.2861ZM52.974 17.1181C52.9598 17.2156 52.864 17.2015 52.7666 17.1873C52.6834 17.0773 52.586 17.0631 52.6001 16.9657C52.6143 16.8682 52.7101 16.8824 52.8075 16.8965C53.0022 16.9248 52.9881 17.0207 52.974 17.1181ZM33.8931 14.2148C33.8931 14.2148 33.8099 14.1048 33.824 14.0073C33.8381 13.9099 33.9481 13.8266 34.0455 13.8407C34.1429 13.8549 34.1287 13.9507 34.1146 14.0482C34.0046 14.1315 33.9905 14.229 33.8931 14.2148ZM58.0175 17.1402C58.0033 17.2376 57.8934 17.3209 57.7819 17.4042C57.6719 17.4875 57.5871 17.3775 57.6012 17.2801C57.6154 17.1826 57.7253 17.0993 57.8368 17.016C57.9468 16.9327 58.0316 17.0427 58.0175 17.1402ZM70.4872 17.8208C70.5705 17.9308 70.4464 18.1116 70.4464 18.1116C70.3364 18.1949 70.349 18.0975 70.3773 17.9041C70.4056 17.7108 70.4181 17.6133 70.4872 17.8208ZM67.217 17.159C67.2029 17.2565 67.1071 17.2423 67.0097 17.2282C66.9265 17.1181 66.8291 17.104 66.8432 17.0065C66.8574 16.9091 66.9532 16.9232 67.0506 16.9374C67.1479 16.9515 67.2312 17.0616 67.217 17.159ZM71.9448 20.1064C71.8616 19.9963 71.9857 19.8156 72.0972 19.7322C72.2072 19.6489 72.292 19.7605 72.3611 19.968C72.4443 20.0781 72.3202 20.2588 72.2087 20.3421C72.1113 20.328 71.9307 20.2038 71.9448 20.1064ZM70.671 20.7178C70.6993 20.5229 70.7118 20.427 70.7951 20.5371C70.781 20.6345 70.7543 20.8279 70.726 21.0228C70.726 21.0228 70.6427 20.9128 70.671 20.7178ZM69.6045 21.2601C69.5213 21.1501 69.6328 21.0652 69.826 21.0935C70.0291 21.0568 70.0569 21.0935 69.9092 21.2036C69.7993 21.2869 69.7019 21.2727 69.6045 21.2601ZM64.5076 23.0128C64.5217 22.9154 64.6317 22.8321 64.7291 22.8462C64.8264 22.8604 64.9097 22.9704 64.8956 23.0678C64.8814 23.1653 64.7715 23.2486 64.6741 23.2345C64.5767 23.2203 64.4935 23.1103 64.5076 23.0128ZM65.6448 23.3712C65.5338 23.2235 65.5704 23.1957 65.7547 23.2879C65.9354 23.4121 66.0186 23.5237 65.9212 23.5096C65.8113 23.5929 65.7265 23.4813 65.6432 23.3712H65.6448ZM62.8364 27.1328C62.8646 26.9379 62.9746 26.8562 62.9463 27.0495C63.0296 27.1595 62.9055 27.3403 62.9055 27.3403C62.7955 27.4236 62.8081 27.3262 62.8364 27.1328ZM63.4458 27.7144C63.4599 27.617 63.5699 27.5337 63.7646 27.562C63.862 27.5761 64.0552 27.6028 64.0427 27.7003C64.0427 27.7003 63.9311 27.7836 63.7238 27.8528C63.529 27.826 63.4332 27.8119 63.4458 27.7144ZM63.5715 28.2269C63.5856 28.1294 63.6955 28.0461 63.7929 28.0602C63.8903 28.0744 63.8762 28.1703 63.862 28.2677C63.7521 28.3511 63.7379 28.4485 63.6406 28.4344C63.5432 28.4202 63.5573 28.3243 63.5715 28.2269ZM62.6023 28.7833C62.5049 28.7692 62.4217 28.6591 62.3385 28.5475C62.2552 28.4375 62.3667 28.3526 62.5599 28.3809C62.7547 28.4076 62.8379 28.5192 62.8238 28.6167C62.7955 28.8116 62.6997 28.7975 62.6023 28.7833Z" fill="white"/>
</g>
<defs>
<clipPath id="clip0_3076_641">
<rect width="94" height="30" fill="white" transform="translate(0.711914)"/>
</clipPath>
</defs>
</svg>
