<?xml version="1.0" encoding="UTF-8"?>
<svg id="Layer_1" xmlns="http://www.w3.org/2000/svg" version="1.1" viewBox="0 0 112 89">
  <!-- Generator: Adobe Illustrator 29.8.1, SVG Export Plug-In . SVG Version: 2.1.1 Build 2)  -->
  <defs>
    <style>
      .st0 {
        fill: #fff;
      }
    </style>
  </defs>
  <path class="st0" d="M42.42,8.1c.09.06.18.11.26.17.27.17.38.17.42.02.05-.22-.08-.33-.23-.43-.05-.04-.11-.09-.15-.14-.05-.07-.03-.11.06-.16.33-.18.7.14.99-.04.32-.2.41-.04.55.19.03.04.12.03.19.04,0,0,.02-.06.02-.09,0-.07-.02-.15-.01-.22,0-.22.08-.29.23-.17.37.28.81.34,1.15.11.45-.31.86.12,1.27-.03.04-.01.12.07.15.13.17.27.4.31.69.35.46.05.64.47.76.9,0,.03-.09.13-.13.12-.13-.02-.26-.08-.39-.11-.08-.02-.22.13-.19.19.02.06.05.15.09.16.3.06.58.13.76.45.06.11.15-.03.21-.1.2-.23.33-.25.49-.08.25.27.42.56.23.96-.13.29-.1.55.13.79.12.13.15.34.06.51-.29.5-.38,1.09-.6,1.61-.12.29-.27.46-.6.47-.24.01-.33.23-.29.48.01.07.03.14.05.21.2.66-.06,1.12-.57,1.46-.11.08-.24.14-.34.22-.13.1-.15.22-.02.35.2.22.21.43-.02.64-.08.07-.15.16-.18.26-.17.55-.66.81-.97,1.23-.43,0-.28.5-.49.68-.17.14-.21.26-.06.44.07.09.08.22,0,.29-.34.27-.45.74-.77,1-.24.18-.31.32-.2.6.03.08,0,.24-.07.29-.52.46-.8,1.17-1.36,1.6-.24.18-.18.57-.47.76-.25.17-.34.5-.43.83-.1.37-.44.64-.72.87-.24.19-.4.37-.38.7,0,.12-.08.28-.16.38-.38.45-.82.85-1.07,1.41-.32-.02-.35.23-.39.49-.01.1-.07.23-.14.28-.42.29-.6.78-.87,1.18-.2.29-.45.54-.7.77-.49.44-.78,1.08-1.35,1.43-.07.04-.11.17-.13.28-.03.14-.05.28-.19.36-.22.13-.38.33-.44.58-.07.32-.42.4-.47.66-.06.36-.34.42-.52.63-.4.48-.82.95-1.19,1.46-.54.73-1.11,1.44-1.68,2.16-.14.17-.29.31-.48.39-.17.07-.28.18-.31.39,0,.04,0,.09-.02.11-.34.34-.78.57-.96,1.08-.16.47-.62.65-.91.99-.16.19-.29.4-.44.6-.13.16-.23.36-.49.32-.15-.02-.23.14-.28.27-.16.37-.44.63-.73.88-.24.2-.54.36-.69.61-.15.25-.32.45-.54.6-.24.16-.33.46-.53.65-.2.19-.4.36-.54.63-.21.42-.5.78-1.02.76-.12,0-.19.12-.18.22.02.37-.16.56-.47.58-.52.03-.67.54-.99.83-.04.56-.42.68-.84.71-.21.02-.29.07-.3.3,0,.1-.06.23-.14.28-.27.17-.5.36-.62.69-.02.07-.07.14-.12.17-.55.27-.96.83-1.57.94-.28.06-.41.19-.53.43-.1.21-.25.38-.47.36-.39-.04-.6.07-.54.53-.22.48-.69.74-1.18.62-.29-.07-.57-.17-.83-.32-.28-.16-.57-.22-.86-.3-.24-.06-.46-.03-.69.06-.32.12-.55.06-.69-.18-.11-.18-.2-.38-.26-.59-.12-.45-.16-.93-.32-1.36-.12-.33-.13-.53.16-.74.12-.08.1-.29-.04-.36-.37-.16-.44-.51-.3-.8.34-.77-.05-1.49-.07-2.24,0-.2-.13-.43-.27-.57-.32-.32-.43-.72-.55-1.14-.12-.41-.27-.82-.46-1.2-.35-.7-.5-1.48-.75-2.22-.3-.89-.24-1.86-.61-2.73-.15-.36-.28-.73-.37-1.12-.21-.91-.41-1.82-.62-2.72-.06-.27.08-.57-.09-.84.16-.71-.04-1.43.07-2.15.02-.13,0-.29-.05-.42-.1-.27-.22-.52-.33-.79-.04-.1-.14-.21-.12-.29.15-.49-.11-.91-.17-1.36-.06-.43-.06-.86-.08-1.3,0-.1,0-.24.05-.29.15-.16.13-.32.07-.49-.21-.55-.3-1.14-.15-1.7.08-.32-.17-.54-.07-.85.08-.27.09-.57.1-.86.03-.58.01-1.16-.12-1.73-.05-.21-.07-.43-.07-.65,0-.32.13-.66.06-.95-.08-.3-.02-.57-.04-.86-.04-.48.11-.93.28-1.37.12-.31.21-.61.11-.95-.11-.34-.03-.67.11-.95.21-.42.31-.87.33-1.33.02-.39.13-.71.41-.95.14-.12.09-.26.04-.39-.07-.16-.18-.31-.22-.48-.09-.31.1-.62.45-.7.16-.04.3-.04.14-.22-.24-.27-.22-.57,0-.77.32-.28.26-.73.49-1.04.09-.11.04-.28-.03-.41-.08-.14-.03-.27.02-.41.06-.17.41-.13.25-.48-.09-.2.13-.43.16-.67.02-.21.14-.4.2-.61.19-.63.41-1.23.96-1.61.1-.07.21-.22.23-.34.08-.52.4-.79.82-.97.09-.04.18-.09.18-.23,0-.18,0-.39.18-.48.33-.17.52-.57.94-.62.29-.04.58-.06.86-.24.34-.22.74-.33,1.16-.29.09.01.19-.06.29-.08.34-.07.54.04.66.44.05.17.09.26.25.21.26-.07.43,0,.61.24.42.53.82,1.07.99,1.75.05.2.02.43.03.64.66.37.38,1.16.67,1.71.21.39.33.88.21,1.37.24.76.08,1.57.36,2.34.19.53.2,1.14.2,1.72,0,.62.04,1.23.1,1.84.02.25.07.52.02.76-.08.39-.13.77.02,1.16.05.12,0,.28,0,.43,0,.15,0,.29-.03.43-.05.39.36.74.11,1.15-.23.36.14.81-.15,1.15.27.45-.17,1.02.22,1.44-.13.49.06,1.03-.08,1.5-.15.49-.03.84.23,1.2.16.22.25.27.51.19.09-.03.19-.08.28-.08.11,0,.25,0,.25-.11,0-.38.49-.51.39-.94-.02-.09.13-.22.21-.17.41.24.41-.08.5-.36.11-.33.17-.68.47-.92.23-.18,0-.39-.03-.59,0-.03.02-.07.04-.1.05-.08.1-.09.15-.02.17.26.41.29.61.11.27-.25.32.02.45.15.07.06.22.13.27.09.09-.08-.03-.16-.07-.24-.18-.38-.25-.76.02-1.13.16-.21.15-.47.2-.72.04-.17.22-.23.29-.42.06-.16.22.02.34.03.07,0,.14.03.2.02.13-.03.28-.07.18-.27-.09-.19-.06-.36.07-.5.11-.13.24-.26.37-.37.14-.12.19-.27.2-.46.02-.34.23-.44.46-.27.05.04.1.1.16.14.12.07.14.4.36.18.12-.13.12-.32.02-.5-.06-.12-.07-.28-.09-.42-.01-.09.12-.22.19-.2.03.01.07.02.09.04.21.14.43.24.67.13.36-.16.63-.43.78-.81-.1-.55.35-.62.65-.81.26-.16.3-.17.05-.34-.16-.11-.17-.22-.07-.32.14-.15.31-.28.48-.39.14-.09.25-.03.32.13.08.18.2.14.33.07.15-.09.28-.21.33-.39.04-.13,0-.29.16-.35.18-.07.32.03.48.07.28.07.07-.12.07-.21,0-.14-.11-.1-.02-.09.58.05.54-.68.96-.85.15-.06-.11-.33-.06-.35.29-.12.38-.47.65-.58.2-.08.4-.14.47-.37.09-.31.33-.44.55-.61.13-.1.21-.15.3.04.07.14.19.26.32.24.33-.06.49.15.67.38.03.04.14.04.18,0,.08-.07.1-.19.02-.28-.06-.08-.15-.14-.22-.22-.08-.07-.06-.12.03-.17.28-.16.41-.37.23-.71-.01-.03.04-.13.09-.15.16-.07.32-.14.48-.17.17-.03.37-.03.46-.18.21-.37.52-.3.82-.25.29.04.49.23.6.53.02.06.21.13.25.09.12-.1.38-.17.31-.36-.12-.31.03-.38.23-.46.14-.05.24-.13.17-.31-.03-.09-.14-.19,0-.26.08-.04.23-.05.27,0,.2.26.34.24.57,0,.18-.2.45-.36.69-.01.14.21.31.04.45.02.2-.03.19-.14.07-.29-.03-.04-.04-.17-.02-.19.08-.06.17-.12.26-.12.25.01.42.22.62.35h0ZM28.23,38.3c.21-.75.87-1.2,1.26-1.88.05-.09.13-.09.16,0,.07.18.35.07.35.31,0,.14-.08.32.15.12.3-.27.32-.67.31-.99-.02-.63.32-1.02.62-1.43.23-.32.51-.34.89-.16.06.03.12.06.18.1.19.1.21-.03.26-.18.04-.12.16-.08.25-.07.11.01.08-.02.05-.12-.08-.33,0-.48.23-.52.09-.01.19.04.29.05.12,0,.19-.07.1-.17-.13-.16-.13-.32-.06-.5.08-.2.17-.44.36-.51.35-.11.49-.29.39-.68-.03-.1.07-.24.17-.22.31.07.46-.12.5-.38.04-.25.12-.4.36-.44.22-.03.29-.17.23-.38-.12-.38,0-.63.33-.79.03-.02.05-.06.08-.07.19-.08.25-.21.18-.42-.08-.24,0-.43.16-.59.1-.1.21-.18.31-.28.14-.13.21.04.31.07.33.08.66.04.94-.22.13-.13.15-.36,0-.55-.25-.29-.04-.22.13-.22.14,0,.17-.15.14-.23-.14-.35-.13-.63.2-.84.02-.01-.02-.11-.02-.18-.03-.2.08-.37.2-.32.16.06.31.13.46.21.46.25.46.25.86-.15.05-.05.08-.12.14-.15.12-.07.24-.1.12-.3-.08-.15-.14-.34-.15-.51,0-.25.06-.49.3-.62.12-.07.22-.16.35-.21.17-.07.28-.18.38-.34.21-.32.31-.63.19-1.02-.11-.34-.06-.65.29-.82.16-.08.15-.22.12-.37-.05-.27-.04-.49.22-.65.17-.1.28-.31.45-.43.16-.12.19-.27.23-.45.04-.21.33-.22.37-.47.03-.15.15-.29.28-.27.39.07.49-.18.5-.5,0-.38.3-.66.26-1.04,0-.05.07-.14.12-.16.24-.09.25-.29.28-.51.04-.25.14-.55.37-.6.2-.05.36-.09.53-.23.4-.33.44-.32.83.1.13.14.18.04.22-.03.05-.08.05-.19.08-.28-.21-.02-.24-.2-.32-.36-.13-.25,0-.5-.06-.74-.09-.36-.03-.64.27-.85.33-.23.45-.63.63-.97.12-.22.23-.45.04-.7.05-.03.09-.08.14-.08.1-.01.21.01.19-.15-.03-.25-.03-.48.04-.74.05-.18-.09-.41-.09-.62,0-.16-.39-.48.13-.48-.08-.23-.17-.46-.26-.69-.04-.11-.13-.17-.24-.16-.17.01-.36.1-.5.05-.28-.12-.49-.03-.75.07-.39.15-.85.33-1.19-.17-.02-.02-.15,0-.15.02,0,.18-.05.26-.24.19-.25-.09-.54-.26-.61.23,0,.03-.04.06-.06.07-.5.2-1,.41-1.51.6-.29.11-.59.18-.88.26-.26.07-.54.17-.8.14-.36-.05-.46.46-.81.35-.74.34-1.49.66-2.21,1.04-.69.36-1.31.84-2.01,1.19-.51.25-1.05.52-1.35,1.1-.37.12-.47.6-.87.71-.39.11-.47.72-.95.75-.16,0-.16.2-.21.33-.08.2-.55.74-.66.77-.5.13-.81.51-1.09.92-.16.24-.34.44-.55.63-.52.46-1.07.9-1.5,1.45-.56.72-1.13,1.43-1.65,2.18-.22.31-.44.53-.82.53-.21,0-.28.16-.27.37,0,.2-.08.34-.23.45-.13.11-.28.23-.35.38-.12.26-.32.35-.56.41-.13.03-.24.13-.24.31,0,.15-.01.29-.14.39-.29.23-.42.54-.48.92-.03.2-.15.44-.3.54-.37.25-.5.68-.73,1.03-.13.21-.22.45-.34.67-.11.22-.21.46-.35.66-.14.2-.24.57-.45.55-.38-.04-.32.22-.38.42-.01.04-.14.08-.16.05-.3-.29-.61-.42-1-.19-.05.03-.14,0-.19-.03-.24-.14-.51-.25-.69-.45-.16-.19-.03-.48,0-.73.02-.32.04-.65.04-.97,0-.3.02-.57.2-.82.09-.12.08-.31,0-.41-.28-.34-.2-.56.14-.76.07-.04.08-.2-.08-.2-.16,0-.27-.11-.26-.27.02-.37-.1-.72-.17-1.07-.03-.14-.07-.28,0-.42.08-.16.17-.31.14-.5-.23-.03-.22-.19-.22-.39,0-.14-.06-.29-.07-.43,0-.19.04-.38.22-.45.26-.12.37-.27.26-.58-.1-.28-.12-.57-.03-.86.07-.22.02-.44-.1-.62-.15-.23-.1-.42.08-.56.15-.12.25-.22.17-.43-.21-.65-.2-1.35-.33-2.01-.07-.35-.08-.72-.14-1.07-.03-.19,0-.36.1-.52.12-.17.21-.38.35-.52.13-.12.14-.19.05-.34-.26-.43-.54-.87-.53-1.39.01-.3,0-.57-.08-.84-.09-.31,0-.47.26-.59.07-.03.14-.22.04-.23-.32-.05-.33-.34-.42-.55-.07-.16-.08-.33-.21-.46-.33-.32-.4-.73-.25-1.18.03-.1.02-.21.03-.32,0-.16-.11-.15-.2-.17-.1-.03-.21-.07-.21-.19,0-.24-.09-.51.12-.72.06-.06.19-.07.09-.21-.2-.29-.41-.57-.59-.87-.09-.15-.12-.35-.28-.44-.34-.2-.55-.54-.76-.86-.11-.16-.23-.12-.35-.08-.1.03-.23.05-.28.12-.41.57-.99.95-1.4,1.52-.15.2-.31.4-.33.66-.06.63-.5,1.12-.55,1.75,0,.06-.07.14-.12.16-.29.11-.13.52-.43.68-.31.16-.13.59-.22.89-.03.1-.04.22-.09.31-.4.65-.48,1.43-.73,2.13-.16.45-.29.88-.32,1.35-.04.62-.32,1.17-.44,1.76,0,.05-.1.09-.16.1-.09.03-.33-.09-.16.17.16.26.25.55.21.83-.08.64.05,1.31-.2,1.94-.06.16-.06.36-.07.54,0,.36,0,.72-.19,1.05-.06.1-.05.28-.02.42.04.18.08.34.05.53-.05.39-.04.77.04,1.17.08.41.04.87.17,1.28.2.62.16,1.23-.06,1.81-.11.29-.14.54-.05.83.08.29.24.62-.09.87-.04.03-.05.14-.03.2.21.54.19,1.13.36,1.67.12.37.21.77.23,1.17.02.37.26.8-.15,1.11-.03.24.15.38.25.55.15.27.25.52.09.82-.14.26-.13.47.11.65,0,.54.37,1.01.3,1.56-.04.26,0,.5.04.75.08.46.18.92.21,1.39.02.37,0,.71.37.91.07.04.15.19.14.27-.07.4.35.73.14,1.15-.03.06.03.22.09.28.16.16.2.36.25.58.06.31.14.64.29.92.27.51.3,1.1.51,1.63-.12.57.49.96.32,1.54.32.36.38.83.5,1.28.34.24.24.65.31.99.03.14-.03.37.04.42.43.33.37.89.57,1.33.12.25.06.49-.08.72-.08.12-.18.24-.2.37-.03.2.2.27.27.43.1.2.21.26.38.1.61.04,1.15-.42,1.77-.31.16.03.25-.07.33-.19.11-.18.21-.37.33-.55.26-.38.52-.72,1-.85.36-.09.65-.35.81-.76.17-.45.5-.76.86-1.05.5-.41,1-.84,1.41-1.37.12-.16.32-.26.48-.39.14-.11.24,0,.37.05.08.04.21.04.28,0,.08-.06.09-.19.02-.29-.12-.17-.15-.32.03-.46.08-.07.2-.11.24-.2.21-.59.86-.81,1.05-1.44.06-.2.34-.33.53-.49.17-.14.5-.04.53-.41,0-.08.17-.03.26.02.14.08.25.09.22-.14-.01-.13-.13-.31.02-.39.26-.15.37-.41.51-.66.11-.19.27-.12.44-.05.27.1.39,0,.27-.31-.11-.29-.01-.49.11-.7.08-.14.23-.17.33-.05.13.16.2.39.47.34.09-.02.21,0,.21-.16,0-.14.02-.4-.02-.41-.42-.13-.2-.36-.09-.56.1-.19.23-.36.37-.58h0ZM45.44,8.56c.14.12.19.17.25.2.11.06.24.18.34.16.15-.03.09-.28.16-.35.2-.2.1-.28-.06-.39-.3-.2-.64-.2-.92.03-.03.03-.03.17,0,.2.09.09.21.14.22.15h0ZM13.53,50.75s-.06-.15-.13-.19c-.07-.04-.19,0-.28.03-.03.01-.06.11-.05.17,0,.07.04.17.08.19.22.09.44.17.66.24.04.01.09-.03.14-.05-.01-.03-.01-.08-.04-.1-.11-.09-.22-.17-.39-.29ZM37.29,10.43s-.05-.19-.07-.18c-.19.04-.38.1-.57.16,0,0,0,.05,0,.07.01.03.04.07.06.07.16.03.32.05.48.07.09.02.13-.02.1-.19h0ZM41.93,22.33s.06.05.06.05c.07-.08.14-.15.19-.23.06-.1.04-.2-.07-.26-.09-.05-.18-.07-.24.06-.07.15-.01.27.06.39h0ZM35.22,10.18s-.14.06-.13.08c0,.09.02.2.08.27.08.09.32.04.33-.05,0-.08-.05-.16-.08-.23-.08-.03-.14-.08-.2-.08h0ZM39.73,23.27c-.05.1-.05.22.03.29.07.06.18.08.28.08.25,0,.33-.22.4-.41.06-.17.02-.36-.12-.49-.07-.07-.19-.09-.26,0-.07.08-.1.18-.05.08-.17.28-.22.36-.27.45ZM38.86,25.57s.05.05.08.06c.03,0,.08,0,.09-.01.03-.05.05-.12.07-.18.03-.1.05-.2.06-.31,0-.07,0-.13,0-.2l-.21.14c-.06.17-.19.31-.08.49h0ZM36.88,27.31c-.05.08-.1.18-.1.27,0,.08.08.15.13.23.05-.04.11-.08.15-.13.07-.11.15-.24,0-.36-.06,0-.15-.04-.17-.01h0Z"/>
</svg>