<svg width="112" height="89" viewBox="0 0 112 89" fill="none" xmlns="http://www.w3.org/2000/svg">
<path d="M102.713 37.7367C102.818 37.802 102.926 37.8617 103.031 37.9242C103.355 38.1146 103.495 38.1174 103.54 37.9441C103.603 37.6912 103.441 37.5775 103.267 37.4639C103.202 37.4213 103.139 37.3616 103.088 37.3019C103.023 37.2281 103.057 37.1769 103.159 37.1258C103.56 36.924 104.01 37.2877 104.354 37.0832C104.738 36.8558 104.849 37.0434 105.017 37.2991C105.048 37.3446 105.165 37.336 105.241 37.3446C105.241 37.3446 105.264 37.2764 105.264 37.2394C105.264 37.157 105.244 37.0746 105.247 36.9951C105.256 36.745 105.344 36.6712 105.526 36.799C105.972 37.1144 106.499 37.1854 106.911 36.924C107.46 36.5774 107.944 37.0576 108.45 36.8928C108.493 36.8786 108.592 36.9723 108.635 37.0349C108.84 37.336 109.121 37.3872 109.474 37.427C110.026 37.4866 110.248 37.9554 110.396 38.4356C110.404 38.4669 110.291 38.5834 110.245 38.5749C110.086 38.5521 109.935 38.4896 109.778 38.4527C109.685 38.4299 109.514 38.5947 109.545 38.6715C109.571 38.7397 109.611 38.8448 109.659 38.8561C110.023 38.9272 110.364 39.0011 110.581 39.3647C110.652 39.4841 110.757 39.3363 110.834 39.2511C111.07 38.9925 111.232 38.9726 111.42 39.1573C111.727 39.4614 111.926 39.7909 111.701 40.2427C111.542 40.5666 111.582 40.8593 111.861 41.1292C112.011 41.2741 112.048 41.5156 111.935 41.7032C111.588 42.2686 111.48 42.9249 111.212 43.5188C111.067 43.8398 110.882 44.0359 110.484 44.0529C110.191 44.0672 110.083 44.3087 110.131 44.59C110.145 44.6695 110.171 44.7491 110.197 44.8258C110.441 45.5702 110.128 46.0873 109.514 46.4738C109.377 46.5618 109.227 46.63 109.099 46.7266C108.945 46.8431 108.922 46.971 109.079 47.1244C109.326 47.3688 109.329 47.6103 109.05 47.8461C108.959 47.9228 108.865 48.0251 108.828 48.1359C108.621 48.7525 108.032 49.0423 107.662 49.5168C107.139 49.5225 107.321 50.0794 107.065 50.2811C106.863 50.4403 106.817 50.5738 106.991 50.7755C107.076 50.875 107.093 51.0284 106.991 51.1023C106.578 51.4006 106.45 51.9405 106.063 52.2246C105.776 52.432 105.685 52.5826 105.819 52.9037C105.856 52.9918 105.81 53.1736 105.739 53.2333C105.108 53.7561 104.778 54.5517 104.098 55.0319C103.813 55.2336 103.879 55.6712 103.529 55.8899C103.227 56.0803 103.114 56.4497 103.006 56.8219C102.883 57.2424 102.479 57.5379 102.132 57.805C101.848 58.0238 101.654 58.217 101.677 58.5977C101.686 58.737 101.586 58.9131 101.487 59.0268C101.031 59.5354 100.5 59.9815 100.195 60.6122C99.8026 60.5952 99.7685 60.8736 99.723 61.1606C99.7059 61.2743 99.6405 61.4163 99.5495 61.476C99.0403 61.8028 98.8298 62.3483 98.497 62.8086C98.2609 63.1325 97.9565 63.4166 97.6465 63.678C97.0605 64.1724 96.7021 64.8941 96.0137 65.2862C95.9283 65.3345 95.8771 65.4823 95.8515 65.5959C95.8146 65.7579 95.789 65.9142 95.624 66.0023C95.3594 66.1443 95.1603 66.3716 95.0949 66.6501C95.0096 67.0052 94.5829 67.1018 94.5288 67.3945C94.4549 67.7951 94.1135 67.8718 93.903 68.102C93.4166 68.6418 92.9131 69.1703 92.4608 69.7414C91.8066 70.5683 91.1182 71.3667 90.4327 72.1679C90.2677 72.3583 90.0856 72.5174 89.8495 72.6055C89.639 72.6822 89.5054 72.8129 89.4797 73.0431C89.4741 73.0829 89.4797 73.1397 89.457 73.1624C89.0445 73.5432 88.5154 73.7989 88.2964 74.3757C88.0973 74.9013 87.5455 75.103 87.1956 75.4951C87.0078 75.7082 86.8514 75.9498 86.6693 76.1657C86.5157 76.3475 86.3934 76.5663 86.0777 76.5209C85.8985 76.4953 85.8017 76.6771 85.7363 76.8249C85.5429 77.2454 85.2072 77.5381 84.8573 77.8194C84.5729 78.0467 84.2088 78.22 84.0239 78.5098C83.8418 78.7939 83.6399 79.0184 83.3696 79.1889C83.0767 79.3736 82.9657 79.7032 82.7296 79.9219C82.4907 80.1407 82.246 80.3311 82.0782 80.6323C81.8194 81.1011 81.4723 81.5074 80.8465 81.4875C80.6958 81.4818 80.6218 81.6239 80.6303 81.7347C80.6588 82.1496 80.4426 82.3627 80.0671 82.3854C79.4385 82.4223 79.2564 82.9906 78.8696 83.3173C78.8212 83.9481 78.3604 84.0873 77.8597 84.1214C77.6066 84.1385 77.5042 84.201 77.4956 84.4567C77.4928 84.5647 77.4188 84.7153 77.3307 84.7664C77.0035 84.9568 76.7248 85.1756 76.5825 85.5421C76.5541 85.616 76.4972 85.6984 76.4318 85.7296C75.769 86.0337 75.274 86.6587 74.5402 86.7923C74.1988 86.8548 74.0395 87.0082 73.9058 87.2725C73.7863 87.5083 73.5986 87.7044 73.3398 87.6816C72.8704 87.639 72.6201 87.764 72.6912 88.2755C72.421 88.8125 71.8606 89.1051 71.2661 88.9688C70.919 88.8892 70.572 88.7755 70.2591 88.6079C69.9234 88.4289 69.5736 88.355 69.2151 88.2669C68.9222 88.1959 68.6605 88.2328 68.3817 88.3351C68.0005 88.4744 67.7132 88.4033 67.5426 88.1362C67.4117 87.9317 67.2951 87.71 67.2297 87.4771C67.0874 86.9713 67.0305 86.4343 66.8428 85.9456C66.7034 85.579 66.6892 85.3461 67.0419 85.1159C67.187 85.0221 67.1671 84.7892 66.9879 84.7153C66.5413 84.5306 66.4616 84.1442 66.6209 83.8117C67.0334 82.9423 66.5612 82.1297 66.5356 81.2915C66.527 81.0698 66.3763 80.8028 66.2085 80.6465C65.8244 80.2885 65.6907 79.8367 65.5485 79.3622C65.4063 78.8991 65.2242 78.4388 64.9967 78.0097C64.57 77.217 64.3908 76.3447 64.095 75.5122C63.7365 74.5064 63.8048 73.4153 63.3639 72.4379C63.1819 72.0344 63.0226 71.611 62.9145 71.182C62.6585 70.162 62.4252 69.1391 62.1692 68.1219C62.0924 67.8207 62.2631 67.4769 62.0639 67.1757C62.2517 66.3745 62.0127 65.5618 62.1464 64.7577C62.172 64.6072 62.1407 64.4338 62.0839 64.2889C61.9672 63.9877 61.8165 63.7008 61.6799 63.4053C61.6287 63.2973 61.5093 63.1638 61.5377 63.0814C61.7141 62.533 61.4097 62.0613 61.3329 61.5556C61.2589 61.0754 61.2618 60.5838 61.2419 60.0951C61.2362 59.9843 61.2333 59.828 61.2988 59.7655C61.4837 59.5894 61.4609 59.4075 61.3812 59.2115C61.1309 58.5892 61.02 57.93 61.1992 57.2936C61.3016 56.9327 60.9944 56.6855 61.111 56.3417C61.2134 56.0405 61.2191 55.7024 61.2362 55.3785C61.2703 54.725 61.2504 54.0743 61.0911 53.4322C61.0342 53.1964 61.0058 52.9463 61.0115 52.7048C61.0228 52.3468 61.1736 51.9632 61.0826 51.6393C60.9887 51.304 61.0627 50.9943 61.0342 50.6761C60.9859 50.1391 61.1651 49.6276 61.3756 49.1389C61.5263 48.7895 61.6316 48.4485 61.5036 48.0734C61.3727 47.6927 61.4694 47.3148 61.6344 47.0023C61.8876 46.5249 62.0042 46.0248 62.0327 45.5106C62.0583 45.0673 62.1948 44.715 62.5304 44.4394C62.7011 44.3001 62.6442 44.1496 62.5788 44.0046C62.4963 43.82 62.3655 43.6552 62.3086 43.4648C62.2033 43.1125 62.4337 42.763 62.849 42.6777C63.0368 42.638 63.2103 42.6351 63.0169 42.4249C62.7324 42.118 62.7466 41.7799 63.0169 41.5554C63.398 41.2372 63.3269 40.7371 63.6114 40.3905C63.7166 40.2654 63.6654 40.0808 63.5772 39.9302C63.4862 39.7739 63.5403 39.629 63.6028 39.467C63.6796 39.2767 64.1035 39.3164 63.9044 38.9215C63.7906 38.6942 64.0637 38.4385 64.095 38.1685C64.1234 37.9356 64.2656 37.7168 64.3396 37.4838C64.5643 36.7763 64.8345 36.1029 65.503 35.6739C65.6282 35.5915 65.7562 35.4295 65.7818 35.2874C65.8842 34.705 66.2597 34.3953 66.7717 34.1935C66.8826 34.1509 66.9936 34.0912 66.9879 33.9321C66.9822 33.7247 66.9964 33.4917 67.2012 33.3951C67.6023 33.2019 67.8327 32.7586 68.3305 32.6961C68.6775 32.6535 69.0331 32.6336 69.3688 32.4291C69.7784 32.179 70.2591 32.054 70.7654 32.1051C70.8764 32.1165 70.993 32.0398 71.1125 32.0171C71.5249 31.9375 71.7639 32.0568 71.9118 32.5143C71.9744 32.7075 72.0199 32.8041 72.219 32.7558C72.5291 32.6762 72.7339 32.7643 72.9557 33.0229C73.4678 33.6167 73.9485 34.2219 74.1476 34.9948C74.2073 35.2249 74.1761 35.475 74.1874 35.7165C74.9896 36.1285 74.6426 37.0263 74.9924 37.6457C75.2428 38.089 75.3964 38.6345 75.2513 39.1886C75.5443 40.0381 75.3509 40.9531 75.6808 41.8197C75.9084 42.4107 75.9169 43.1068 75.9255 43.7546C75.934 44.4507 75.9738 45.1383 76.0449 45.8288C76.0734 46.1101 76.1246 46.4084 76.0705 46.6783C75.9795 47.1216 75.9141 47.5421 76.0961 47.9797C76.153 48.1161 76.1075 48.2979 76.1047 48.4599C76.099 48.6247 76.0933 48.7866 76.0705 48.9486C76.0079 49.3918 76.5086 49.7868 76.1985 50.2442C75.9226 50.6534 76.372 51.1506 76.0193 51.5399C76.3408 52.0428 75.8088 52.6849 76.2896 53.1594C76.1331 53.7163 76.3664 54.3158 76.1872 54.8443C76.0023 55.3927 76.1559 55.7848 76.4659 56.194C76.6537 56.4412 76.7618 56.5008 77.0775 56.4127C77.1913 56.3815 77.3051 56.3218 77.4188 56.319C77.5468 56.319 77.7232 56.3275 77.7232 56.1996C77.7147 55.7706 78.3177 55.6285 78.1897 55.1455C78.1641 55.0489 78.3433 54.8955 78.4429 54.9495C78.9378 55.2165 78.9407 54.8585 79.0488 54.5431C79.1768 54.1738 79.2564 53.776 79.6205 53.5117C79.8964 53.3129 79.6205 53.0713 79.5864 52.8497C79.5807 52.8156 79.6063 52.7702 79.6291 52.7361C79.6859 52.648 79.7542 52.6395 79.8111 52.719C80.0188 53.0117 80.3061 53.0486 80.5535 52.8384C80.875 52.5627 80.9404 52.8611 81.1025 53.006C81.185 53.077 81.3728 53.1481 81.4268 53.1054C81.5378 53.0202 81.3898 52.9264 81.3443 52.8355C81.1253 52.4093 81.0456 51.9803 81.3671 51.5654C81.5548 51.3239 81.5491 51.0341 81.6089 50.7585C81.6515 50.5653 81.8763 50.4943 81.9587 50.2897C82.0327 50.1078 82.229 50.3096 82.3712 50.3238C82.4509 50.3323 82.5362 50.3607 82.613 50.3437C82.7666 50.3124 82.9458 50.2698 82.8349 50.0425C82.7296 49.8322 82.7666 49.6419 82.9145 49.4771C83.0511 49.3265 83.2018 49.1872 83.3583 49.0594C83.5289 48.9202 83.5858 48.761 83.6029 48.5366C83.6313 48.1558 83.8817 48.0422 84.1576 48.2382C84.223 48.2865 84.2771 48.3547 84.3482 48.3917C84.4904 48.4655 84.5188 48.8463 84.7777 48.5906C84.9285 48.4428 84.9199 48.2354 84.7976 48.028C84.7208 47.8944 84.7151 47.7183 84.6867 47.5563C84.6696 47.4569 84.8289 47.3063 84.9199 47.3318C84.9598 47.3432 84.9996 47.3517 85.0337 47.3716C85.284 47.5279 85.5486 47.6472 85.8444 47.5222C86.2739 47.3404 86.6011 47.042 86.7916 46.6073C86.675 45.9851 87.2155 45.9055 87.5711 45.7009C87.8896 45.5162 87.9295 45.5106 87.6365 45.3202C87.443 45.1923 87.4317 45.0758 87.5483 44.9565C87.7161 44.786 87.9209 44.6439 88.1257 44.5161C88.2936 44.411 88.4301 44.482 88.5126 44.6582C88.6093 44.8627 88.7601 44.8144 88.908 44.732C89.09 44.6326 89.2465 44.4962 89.3091 44.2916C89.3546 44.1467 89.3005 43.9705 89.4997 43.8938C89.713 43.8114 89.8837 43.9251 90.0771 43.9705C90.4185 44.0501 90.1653 43.8398 90.1624 43.7347C90.1568 43.5728 90.0316 43.6211 90.1397 43.6296C90.8394 43.6836 90.7911 42.8596 91.2974 42.6749C91.4738 42.6124 91.1637 42.3055 91.2235 42.2828C91.5733 42.1521 91.6871 41.7543 92.0057 41.6264C92.2418 41.5327 92.4893 41.4673 92.5718 41.2088C92.6856 40.8621 92.9643 40.7087 93.2346 40.5212C93.3939 40.4104 93.4906 40.3535 93.5958 40.5609C93.6755 40.7172 93.8262 40.8536 93.9798 40.828C94.3781 40.7627 94.5743 40.9957 94.7848 41.2542C94.8161 41.294 94.9584 41.294 95.0067 41.2542C95.1091 41.1747 95.1262 41.044 95.0352 40.9388C94.9584 40.8479 94.856 40.7769 94.7649 40.6945C94.6739 40.6121 94.691 40.5638 94.7962 40.507C95.1319 40.3308 95.2969 40.0893 95.075 39.7085C95.0579 39.6801 95.129 39.5665 95.1831 39.5438C95.3708 39.467 95.5642 39.3903 95.7634 39.3534C95.9653 39.3164 96.2157 39.3221 96.3237 39.1488C96.5798 38.7368 96.9495 38.8135 97.3108 38.8647C97.6607 38.913 97.8968 39.1204 98.039 39.4557C98.0675 39.5267 98.2922 39.5977 98.3434 39.558C98.4913 39.4443 98.807 39.3676 98.716 39.1516C98.5709 38.805 98.7501 38.7226 98.9919 38.6374C99.1598 38.5777 99.2792 38.4953 99.2024 38.2879C99.1655 38.1884 99.0289 38.0691 99.2024 37.9924C99.2963 37.9498 99.4812 37.9356 99.5296 37.9924C99.777 38.2879 99.9449 38.2623 100.212 37.9839C100.428 37.7594 100.758 37.5804 101.046 37.9725C101.214 38.2055 101.415 38.0123 101.595 37.9895C101.839 37.9583 101.819 37.8304 101.68 37.6685C101.64 37.623 101.629 37.4809 101.66 37.4582C101.751 37.3929 101.871 37.3218 101.976 37.3275C102.28 37.3389 102.479 37.5775 102.724 37.7253L102.713 37.7367ZM85.577 71.7162C85.8273 70.8751 86.6295 70.3609 87.1017 69.6051C87.1614 69.5085 87.2553 69.4999 87.2951 69.5994C87.3748 69.8011 87.7161 69.6761 87.7161 69.9432C87.7161 70.0966 87.6251 70.2983 87.8982 70.0739C88.2623 69.7755 88.2822 69.3181 88.268 68.9572C88.2424 68.2526 88.6577 67.815 89.0218 67.3434C89.2977 66.9882 89.6362 66.9626 90.0999 67.1587C90.1767 67.1899 90.2478 67.2297 90.3217 67.2666C90.5493 67.3803 90.5777 67.2297 90.6346 67.0621C90.6801 66.9285 90.8252 66.9711 90.9418 66.9854C91.0699 66.9996 91.0329 66.9626 91.0016 66.849C90.8992 66.4768 90.993 66.3034 91.2832 66.2637C91.3941 66.2494 91.5164 66.3091 91.6331 66.3148C91.7781 66.3233 91.8606 66.2381 91.7582 66.1216C91.6018 65.9397 91.5961 65.7607 91.6843 65.559C91.7838 65.3317 91.8891 65.0618 92.1223 64.9907C92.5405 64.8629 92.7083 64.6611 92.5888 64.2236C92.5576 64.1128 92.6685 63.948 92.7908 63.9735C93.1663 64.0503 93.3512 63.8428 93.3967 63.5445C93.4422 63.2604 93.5446 63.0899 93.8262 63.0529C94.0936 63.016 94.1761 62.8569 94.1021 62.6296C93.9599 62.2005 94.1078 61.9221 94.5004 61.7402C94.5345 61.7232 94.5573 61.6749 94.5914 61.6607C94.819 61.5726 94.8901 61.422 94.8048 61.1919C94.7052 60.9248 94.8161 60.7117 95.0039 60.5298C95.1233 60.4162 95.257 60.3224 95.3822 60.2145C95.5529 60.0695 95.6382 60.2599 95.7577 60.2883C96.1531 60.3821 96.5598 60.3366 96.8927 60.044C97.0548 59.8991 97.0776 59.6348 96.8841 59.4217C96.5826 59.0921 96.8415 59.1688 97.0434 59.1688C97.2141 59.1688 97.2539 59.0012 97.2141 58.9131C97.0406 58.5239 97.0548 58.2056 97.4502 57.9641C97.4729 57.9499 97.4303 57.8363 97.4217 57.7652C97.3904 57.5351 97.5128 57.3532 97.6635 57.4072C97.8541 57.4754 98.0419 57.555 98.2239 57.643C98.7814 57.9187 98.7814 57.9215 99.2593 57.4697C99.3191 57.4157 99.3617 57.3362 99.43 57.3021C99.5722 57.2254 99.7201 57.1941 99.5808 56.9668C99.4784 56.802 99.4072 56.5889 99.4044 56.3957C99.3959 56.1116 99.4812 55.8416 99.7713 55.6939C99.9136 55.62 100.042 55.5149 100.189 55.4581C100.391 55.3813 100.528 55.2563 100.653 55.0802C100.906 54.725 101.029 54.367 100.878 53.9323C100.744 53.5458 100.807 53.2049 101.228 53.0145C101.418 52.9293 101.404 52.7702 101.37 52.6025C101.305 52.3013 101.319 52.0541 101.64 51.8723C101.845 51.7558 101.979 51.5228 102.178 51.3893C102.374 51.2586 102.405 51.0881 102.451 50.8807C102.502 50.6448 102.852 50.6278 102.903 50.3522C102.934 50.1845 103.085 50.0226 103.239 50.0453C103.708 50.1192 103.836 49.8464 103.839 49.4827C103.839 49.0594 104.2 48.744 104.152 48.3121C104.146 48.2553 104.232 48.153 104.294 48.1331C104.584 48.0365 104.593 47.812 104.633 47.5592C104.678 47.2835 104.801 46.9454 105.079 46.8858C105.321 46.8346 105.512 46.7835 105.714 46.6244C106.192 46.2493 106.251 46.2607 106.715 46.7352C106.866 46.8886 106.928 46.7806 106.979 46.6982C107.036 46.6101 107.042 46.488 107.07 46.38C106.82 46.3573 106.78 46.1499 106.684 45.9737C106.53 45.6952 106.689 45.4083 106.612 45.1383C106.499 44.7349 106.578 44.4195 106.942 44.1808C107.341 43.9194 107.483 43.4705 107.708 43.0869C107.853 42.8369 107.989 42.5755 107.762 42.297C107.819 42.2657 107.875 42.2118 107.935 42.2032C108.055 42.1919 108.191 42.2146 108.166 42.0299C108.126 41.7486 108.129 41.4872 108.211 41.2002C108.268 40.9957 108.097 40.7371 108.106 40.5041C108.112 40.328 107.637 39.9643 108.262 39.9671C108.16 39.7085 108.058 39.45 107.952 39.1943C107.901 39.0721 107.796 39.0067 107.665 39.0153C107.463 39.0295 107.23 39.1318 107.065 39.0664C106.726 38.93 106.479 39.0295 106.16 39.146C105.685 39.3193 105.133 39.5153 104.721 38.9556C104.701 38.93 104.545 38.9641 104.545 38.9755C104.536 39.1772 104.488 39.2653 104.252 39.1857C103.956 39.0863 103.597 38.8931 103.515 39.4443C103.509 39.4756 103.469 39.5125 103.438 39.5239C102.829 39.7512 102.226 39.9842 101.612 40.1944C101.265 40.3138 100.903 40.399 100.545 40.4814C100.226 40.5553 99.8908 40.6774 99.5808 40.6405C99.1484 40.5865 99.0261 41.1633 98.6022 41.0326C97.709 41.419 96.8016 41.777 95.9284 42.2032C95.0977 42.6096 94.3439 43.1522 93.4991 43.5443C92.8847 43.8285 92.2304 44.1325 91.8663 44.7803C91.4226 44.9167 91.3031 45.4566 90.8167 45.5816C90.3445 45.7009 90.2535 46.397 89.6675 46.4255C89.4684 46.434 89.4797 46.6471 89.4143 46.792C89.3176 47.0136 88.7515 47.6245 88.6207 47.6558C88.0176 47.8007 87.6422 48.2269 87.3037 48.6957C87.1102 48.9628 86.8969 49.1958 86.6409 49.4089C86.0179 49.9288 85.3495 50.4204 84.8317 51.0369C84.1547 51.8439 83.4664 52.6451 82.8349 53.4919C82.5732 53.8442 82.3001 54.0885 81.8393 54.0857C81.5833 54.0857 81.5065 54.2675 81.5093 54.5005C81.5122 54.7222 81.4069 54.8784 81.2305 55.012C81.0712 55.1341 80.8977 55.2705 80.8095 55.441C80.6588 55.7337 80.4227 55.8303 80.1297 55.8985C79.9704 55.9354 79.8367 56.0462 79.8424 56.2451C79.8452 56.4127 79.8282 56.5662 79.6774 56.6798C79.3304 56.9384 79.1682 57.2879 79.0943 57.7169C79.0573 57.9385 78.9094 58.2113 78.7273 58.3278C78.2751 58.6119 78.1214 59.0893 77.8512 59.4871C77.6891 59.7229 77.581 59.9928 77.4444 60.2457C77.3079 60.4986 77.1856 60.7628 77.0206 60.993C76.8556 61.2203 76.7276 61.6323 76.4716 61.6067C76.0108 61.5584 76.0904 61.8511 76.0079 62.0812C75.9937 62.121 75.8401 62.1665 75.8145 62.1409C75.4561 61.8141 75.0749 61.6692 74.6084 61.9221C74.5515 61.9533 74.4434 61.9249 74.378 61.8908C74.0907 61.7346 73.7579 61.6124 73.5446 61.3851C73.3454 61.1691 73.5133 60.8395 73.536 60.5583C73.5645 60.1946 73.5872 59.8309 73.5815 59.4672C73.5759 59.1319 73.6015 58.8222 73.8233 58.5494C73.9371 58.4102 73.9257 58.2056 73.8233 58.0891C73.4877 57.7112 73.5787 57.4612 73.9912 57.2311C74.0793 57.1828 74.0936 57.0094 73.8888 57.0009C73.701 56.9924 73.5616 56.8787 73.5702 56.7026C73.5929 56.282 73.4507 55.8956 73.3625 55.4978C73.3284 55.3387 73.2829 55.1853 73.3682 55.0233C73.4592 54.8472 73.5787 54.6767 73.5389 54.4608C73.2629 54.4295 73.2715 54.242 73.2772 54.026C73.2829 53.8669 73.2061 53.705 73.1947 53.543C73.1833 53.3299 73.2487 53.1168 73.4564 53.0316C73.775 52.9009 73.9058 52.7247 73.775 52.3781C73.6555 52.0655 73.6327 51.7416 73.7351 51.412C73.8148 51.1591 73.7579 50.9176 73.6128 50.7102C73.4308 50.4545 73.4962 50.2357 73.7152 50.0766C73.8944 49.943 74.0111 49.8322 73.9257 49.5907C73.6726 48.8576 73.6896 48.0763 73.5332 47.3262C73.4507 46.9284 73.4336 46.5192 73.3654 46.1186C73.3312 45.9027 73.354 45.7151 73.482 45.539C73.6242 45.3429 73.7323 45.1099 73.9058 44.9508C74.0594 44.8116 74.0736 44.7377 73.9627 44.5701C73.6441 44.0899 73.3056 43.5898 73.3284 43.0017C73.3426 42.6692 73.3312 42.3567 73.2345 42.0555C73.1236 41.7088 73.2345 41.5242 73.5502 41.3878C73.6384 41.3508 73.7181 41.1406 73.5929 41.1235C73.2117 41.0695 73.1918 40.74 73.0894 40.507C73.0098 40.328 72.9984 40.1404 72.8306 39.9842C72.438 39.6205 72.3442 39.1659 72.5234 38.6544C72.5632 38.5436 72.549 38.4129 72.5575 38.2907C72.566 38.1146 72.4238 38.1231 72.3129 38.0947C72.1906 38.0634 72.054 38.0208 72.054 37.8787C72.054 37.6031 71.9431 37.3019 72.1991 37.0718C72.273 37.0064 72.4238 36.9894 72.3043 36.8303C72.0597 36.5064 71.8094 36.1881 71.5904 35.8472C71.4823 35.6795 71.451 35.4551 71.2575 35.3499C70.8422 35.1255 70.5976 34.7419 70.3359 34.381C70.2079 34.2049 70.0628 34.2447 69.9092 34.2901C69.7926 34.3242 69.6361 34.3441 69.5707 34.4265C69.0815 35.0715 68.376 35.5005 67.8754 36.137C67.6962 36.3671 67.4999 36.5916 67.4714 36.8814C67.4032 37.5889 66.8684 38.1373 66.8115 38.8476C66.8058 38.9158 66.729 39.0096 66.6636 39.0323C66.3137 39.1602 66.5043 39.6176 66.1459 39.7938C65.7704 39.9785 65.9837 40.4587 65.8756 40.7968C65.8387 40.9133 65.833 41.0468 65.7704 41.1434C65.2925 41.8793 65.1901 42.7488 64.8829 43.5387C64.6866 44.0416 64.533 44.5275 64.5017 45.0559C64.4591 45.7549 64.1149 46.3686 63.9698 47.0392C63.9584 47.0903 63.8532 47.1358 63.7821 47.1557C63.674 47.1841 63.3895 47.0591 63.5858 47.3432C63.7849 47.633 63.8845 47.9655 63.8418 48.2723C63.7451 48.9969 63.9044 49.747 63.6057 50.4545C63.5289 50.6363 63.5289 50.8551 63.526 51.0597C63.5232 51.4688 63.5374 51.8695 63.2985 52.2417C63.2245 52.3582 63.2416 52.5599 63.2757 52.7105C63.3212 52.9094 63.3667 53.0912 63.3326 53.3043C63.2672 53.7419 63.2814 54.1709 63.381 54.6255C63.4805 55.0887 63.4265 55.6058 63.5886 56.0661C63.8361 56.7651 63.7764 57.447 63.5175 58.1033C63.3867 58.4329 63.3525 58.7057 63.4578 59.041C63.5602 59.3677 63.7536 59.7371 63.344 60.0241C63.3013 60.0553 63.2871 60.1832 63.3127 60.2457C63.5659 60.8481 63.5374 61.5158 63.7451 62.1295C63.8901 62.55 63.9954 62.999 64.021 63.4422C64.0438 63.857 64.3339 64.3429 63.8389 64.6924C63.7991 64.9623 64.021 65.1214 64.1376 65.3118C64.3197 65.613 64.4391 65.9 64.2514 66.2296C64.0864 66.5194 64.0921 66.7637 64.3823 66.9655C64.3823 67.5763 64.8288 68.0963 64.7407 68.7157C64.698 69.0112 64.7407 69.2812 64.7947 69.5624C64.8971 70.0824 65.0137 70.6024 65.0507 71.128C65.0792 71.54 65.0507 71.9264 65.4945 72.1537C65.5827 72.1992 65.6765 72.364 65.6595 72.4549C65.5713 72.9067 66.0833 73.2761 65.8244 73.7506C65.7875 73.8188 65.8586 73.9978 65.9325 74.0688C66.126 74.2506 66.1743 74.4694 66.2284 74.7166C66.3052 75.0689 66.3962 75.4383 66.5726 75.748C66.9025 76.3248 66.931 76.9869 67.1927 77.5778C67.0476 78.2171 67.7843 78.6604 67.5767 79.3139C67.9607 79.7145 68.0347 80.2459 68.1769 80.7488C68.5922 81.0187 68.4642 81.479 68.5552 81.8597C68.5922 82.016 68.5154 82.2746 68.6007 82.3342C69.1241 82.7093 69.0502 83.3401 69.292 83.8316C69.4313 84.1158 69.3659 84.3857 69.1895 84.6414C69.0957 84.7749 68.9705 84.9142 68.9449 85.0619C68.9079 85.2921 69.1867 85.3659 69.2749 85.5421C69.3915 85.7666 69.5281 85.8348 69.7329 85.6501C70.4724 85.6899 71.1182 85.1813 71.8691 85.2977C72.0654 85.329 72.1735 85.221 72.2674 85.079C72.401 84.8772 72.5205 84.6641 72.6627 84.4652C72.9728 84.0362 73.2914 83.6526 73.8688 83.5134C74.2984 83.4111 74.6511 83.1156 74.8417 82.6553C75.0493 82.1524 75.4504 81.8001 75.8828 81.4705C76.4915 81.0073 77.0889 80.5243 77.581 79.9276C77.7317 79.7458 77.965 79.635 78.1584 79.4901C78.3234 79.3679 78.4514 79.4872 78.5993 79.544C78.6989 79.5838 78.8497 79.5867 78.935 79.5355C79.0374 79.4702 79.0431 79.3224 78.9606 79.2145C78.8155 79.0269 78.7814 78.8564 78.9919 78.6973C79.0886 78.6235 79.2394 78.5723 79.2763 78.4757C79.5323 77.808 80.3146 77.5636 80.5478 76.8561C80.6247 76.626 80.9603 76.4811 81.185 76.3049C81.3898 76.1458 81.7852 76.2623 81.8279 75.8418C81.8364 75.7537 82.0356 75.8049 82.1436 75.8588C82.3172 75.9441 82.4423 75.964 82.411 75.6969C82.394 75.5491 82.2574 75.3531 82.4338 75.2565C82.7495 75.0888 82.8747 74.7962 83.0482 74.5177C83.1819 74.3046 83.3725 74.3842 83.5801 74.4581C83.9073 74.5746 84.0467 74.4495 83.9101 74.1143C83.7764 73.7875 83.893 73.5659 84.0466 73.3215C84.1462 73.1624 84.3254 73.1283 84.4506 73.2675C84.6099 73.4465 84.6981 73.7108 85.0138 73.654C85.1276 73.6341 85.2698 73.6454 85.2698 73.4721C85.2698 73.3102 85.2954 73.0232 85.2499 73.009C84.7407 72.8669 85.011 72.5998 85.139 72.3754C85.2613 72.1623 85.4149 71.9691 85.5884 71.719L85.577 71.7162ZM106.365 38.2509C106.539 38.3845 106.595 38.4413 106.664 38.4783C106.797 38.5493 106.951 38.6771 107.073 38.6544C107.25 38.6232 107.181 38.3419 107.272 38.2595C107.511 38.0378 107.392 37.9469 107.198 37.8219C106.84 37.5946 106.428 37.5946 106.086 37.856C106.049 37.8844 106.055 38.0464 106.098 38.0833C106.211 38.1828 106.356 38.2453 106.368 38.2509H106.365ZM67.827 85.7183C67.8071 85.6899 67.7587 85.5506 67.6649 85.5052C67.5767 85.4625 67.4345 85.5052 67.3292 85.5421C67.2894 85.5563 67.2581 85.6671 67.2666 85.7296C67.2752 85.8064 67.3121 85.92 67.3662 85.9427C67.6279 86.0479 67.8981 86.1331 68.1684 86.2098C68.2167 86.224 68.2821 86.1757 68.3419 86.1558C68.3276 86.1189 68.3248 86.0649 68.2992 86.045C68.1684 85.9484 68.0318 85.8575 67.827 85.7183ZM96.52 40.3564C96.5143 40.3393 96.4574 40.1461 96.4375 40.149C96.2043 40.1887 95.9767 40.2598 95.7463 40.3251C95.7378 40.3251 95.7349 40.3819 95.7463 40.4047C95.7634 40.4359 95.7947 40.4785 95.8231 40.4842C96.0137 40.5155 96.2071 40.5411 96.3977 40.5666C96.5086 40.5837 96.5542 40.5439 96.5172 40.3564H96.52ZM102.118 53.7447C102.144 53.7646 102.192 53.7987 102.192 53.7987C102.272 53.7135 102.36 53.6311 102.417 53.5345C102.485 53.4208 102.465 53.31 102.334 53.2418C102.223 53.1822 102.121 53.1594 102.044 53.3043C101.959 53.472 102.03 53.6055 102.112 53.7447H102.118ZM94.0225 40.0694C93.9656 40.0694 93.8575 40.1347 93.8604 40.1632C93.8689 40.2683 93.8888 40.3933 93.9542 40.4643C94.0453 40.5638 94.3439 40.5126 94.3525 40.4104C94.361 40.3223 94.287 40.2257 94.2586 40.1518C94.159 40.1149 94.0879 40.0666 94.0197 40.0666L94.0225 40.0694ZM99.4584 54.8046C99.393 54.9182 99.3987 55.0546 99.4954 55.1256C99.5836 55.1881 99.7173 55.2109 99.8282 55.2109C100.133 55.2165 100.229 54.9637 100.309 54.7477C100.38 54.5574 100.329 54.3443 100.167 54.1993C100.079 54.1198 99.9392 54.0999 99.8481 54.2022C99.7685 54.2903 99.723 54.4039 99.7884 54.2931C99.5864 54.6028 99.5182 54.6994 99.4584 54.8046ZM98.4145 57.3845C98.4344 57.4157 98.4714 57.4442 98.5055 57.4555C98.5397 57.464 98.6022 57.4612 98.6136 57.4413C98.6506 57.3816 98.6762 57.3106 98.6933 57.2396C98.7245 57.1259 98.753 57.0123 98.7701 56.8958C98.7814 56.8219 98.7701 56.7452 98.7701 56.6685L98.5112 56.8304C98.4372 57.0208 98.278 57.1771 98.4116 57.3816L98.4145 57.3845ZM96.0279 59.345C95.9653 59.4331 95.9027 59.5496 95.9056 59.6519C95.9084 59.74 96.0052 59.8223 96.0592 59.9104C96.1189 59.8621 96.1929 59.8223 96.2356 59.7627C96.3209 59.6348 96.4176 59.4956 96.2356 59.3621C96.1645 59.3564 96.0507 59.3166 96.0279 59.3478V59.345Z" fill="white"/>
<g clip-path="url(#clip0_3118_2377)">
<path d="M29.4444 4.2268C29.5187 4.27495 29.595 4.31892 29.6693 4.36498C29.8982 4.50525 29.9966 4.50735 30.0287 4.37963C30.0729 4.1933 29.9585 4.10956 29.836 4.02581C29.7898 3.99441 29.7456 3.95044 29.7095 3.90648C29.6633 3.85204 29.6874 3.81436 29.7597 3.77667C30.0428 3.62803 30.36 3.89601 30.603 3.74527C30.8741 3.57778 30.9524 3.71596 31.0708 3.90438C31.0929 3.93788 31.1753 3.9316 31.2295 3.93788C31.2295 3.93788 31.2455 3.88764 31.2455 3.86042C31.2455 3.7997 31.2315 3.73899 31.2335 3.68037C31.2395 3.49613 31.3018 3.4417 31.4303 3.53591C31.7455 3.7683 32.117 3.82064 32.4081 3.62803C32.7956 3.37261 33.137 3.72643 33.4944 3.605C33.5245 3.59453 33.5948 3.66362 33.6249 3.70968C33.7695 3.9316 33.9683 3.96929 34.2173 3.9986C34.6068 4.04256 34.7634 4.38801 34.8678 4.74183C34.8738 4.76486 34.7935 4.8507 34.7614 4.84442C34.649 4.82767 34.5425 4.78161 34.4321 4.75439C34.3658 4.73764 34.2454 4.85907 34.2675 4.9156C34.2855 4.96585 34.3136 5.04331 34.3478 5.05168C34.6048 5.10402 34.8457 5.15846 34.9983 5.42644C35.0485 5.51437 35.1228 5.40551 35.177 5.3427C35.3437 5.15218 35.4581 5.13752 35.5907 5.27361C35.8075 5.49762 35.9481 5.74048 35.7895 6.07337C35.677 6.31204 35.7051 6.52768 35.9019 6.72658C36.0083 6.83335 36.0344 7.01131 35.9541 7.14949C35.7091 7.56612 35.6328 8.04974 35.4441 8.48731C35.3417 8.72388 35.2112 8.86834 34.9301 8.88091C34.7233 8.89137 34.6469 9.06933 34.6811 9.2766C34.6911 9.33522 34.7092 9.39384 34.7273 9.45037C34.8999 9.9989 34.6791 10.3799 34.2454 10.6647C34.149 10.7296 34.0426 10.7798 33.9522 10.851C33.8438 10.9368 33.8277 11.031 33.9382 11.1441C34.1128 11.3242 34.1148 11.5021 33.9181 11.6759C33.8538 11.7324 33.7876 11.8078 33.7615 11.8894C33.6149 12.3437 33.1992 12.5573 32.9382 12.9069C32.5688 12.9111 32.6973 13.3215 32.5165 13.4701C32.374 13.5873 32.3419 13.6858 32.4643 13.8344C32.5246 13.9077 32.5366 14.0207 32.4643 14.0752C32.1732 14.295 32.0828 14.6928 31.8098 14.9021C31.607 15.055 31.5427 15.1659 31.6371 15.4025C31.6632 15.4674 31.6311 15.6014 31.5809 15.6454C31.1351 16.0306 30.9022 16.6168 30.4223 16.9706C30.2215 17.1193 30.2677 17.4417 30.0207 17.6029C29.8079 17.7432 29.7275 18.0153 29.6512 18.2896C29.5649 18.5995 29.2798 18.8172 29.0348 19.014C28.834 19.1752 28.6975 19.3176 28.7135 19.5981C28.7196 19.7007 28.6493 19.8305 28.579 19.9143C28.2577 20.289 27.8823 20.6177 27.6674 21.0825C27.3903 21.0699 27.3662 21.2751 27.3341 21.4866C27.3221 21.5703 27.2759 21.675 27.2116 21.7189C26.8522 21.9597 26.7036 22.3617 26.4687 22.7009C26.302 22.9395 26.0872 23.1489 25.8683 23.3415C25.4547 23.7058 25.2017 24.2376 24.7158 24.5265C24.6555 24.5621 24.6194 24.6709 24.6013 24.7547C24.5752 24.874 24.5571 24.9892 24.4407 25.0541C24.254 25.1588 24.1134 25.3262 24.0672 25.5314C24.007 25.7931 23.7058 25.8643 23.6676 26.0799C23.6154 26.3751 23.3745 26.4317 23.2259 26.6013C22.8825 26.999 22.5271 27.3885 22.2079 27.8093C21.7461 28.4185 21.2601 29.0068 20.7762 29.5972C20.6598 29.7375 20.5313 29.8547 20.3646 29.9196C20.216 29.9762 20.1217 30.0725 20.1036 30.2421C20.0996 30.2714 20.1036 30.3132 20.0875 30.33C19.7964 30.6105 19.4229 30.799 19.2683 31.224C19.1277 31.6113 18.7382 31.7599 18.4912 32.0488C18.3587 32.2059 18.2483 32.3838 18.1198 32.5429C18.0113 32.6769 17.925 32.8381 17.7021 32.8046C17.5756 32.7858 17.5073 32.9198 17.4612 33.0287C17.3246 33.3385 17.0877 33.5541 16.8407 33.7614C16.6399 33.9289 16.3829 34.0566 16.2524 34.2702C16.1239 34.4795 15.9813 34.6449 15.7906 34.7705C15.5838 34.9066 15.5054 35.1495 15.3388 35.3107C15.1701 35.4719 14.9974 35.6122 14.879 35.8341C14.6963 36.1795 14.4513 36.4789 14.0095 36.4643C13.9031 36.4601 13.8509 36.5648 13.8569 36.6464C13.877 36.9521 13.7244 37.1091 13.4594 37.1259C13.0156 37.1531 12.8871 37.5718 12.614 37.8126C12.5799 38.2773 12.2546 38.3799 11.9012 38.4051C11.7225 38.4176 11.6502 38.4637 11.6442 38.6521C11.6422 38.7317 11.59 38.8426 11.5278 38.8803C11.2968 39.0206 11.1001 39.1818 10.9997 39.4519C10.9796 39.5063 10.9394 39.567 10.8933 39.59C10.4254 39.8141 10.076 40.2747 9.55799 40.3731C9.31704 40.4191 9.20459 40.5322 9.11022 40.7269C9.02589 40.9006 8.89336 41.0451 8.71064 41.0284C8.37934 40.997 8.20264 41.0891 8.25284 41.4659C8.06209 41.8616 7.66652 42.0773 7.24687 41.9768C7.0019 41.9181 6.75694 41.8344 6.53607 41.7109C6.29913 41.579 6.05216 41.5245 5.79916 41.4596C5.59234 41.4073 5.40761 41.4345 5.21084 41.5099C4.94178 41.6125 4.73898 41.5601 4.6185 41.3633C4.52614 41.2126 4.44381 41.0493 4.39763 40.8776C4.29723 40.505 4.25708 40.1093 4.12455 39.7492C4.02617 39.4791 4.01613 39.3074 4.26511 39.1378C4.36751 39.0687 4.35346 38.8971 4.22696 38.8426C3.91171 38.7065 3.85549 38.4218 3.96794 38.1769C4.25908 37.5362 3.92577 36.9374 3.9077 36.3198C3.90167 36.1565 3.79525 35.9597 3.67679 35.8446C3.40572 35.5808 3.31135 35.2479 3.21095 34.8983C3.11055 34.557 2.98205 34.2178 2.82141 33.9017C2.52023 33.3176 2.39373 32.6748 2.1849 32.0614C1.9319 31.3203 1.98009 30.5163 1.66887 29.7961C1.54036 29.4988 1.42792 29.1869 1.35162 28.8707C1.1709 28.1191 1.00625 27.3654 0.82554 26.6159C0.771327 26.394 0.891802 26.1407 0.751247 25.9187C0.88377 25.3283 0.715105 24.7296 0.809477 24.1371C0.827548 24.0261 0.805461 23.8984 0.765303 23.7916C0.682978 23.5697 0.576558 23.3582 0.480178 23.1405C0.444036 23.061 0.359703 22.9626 0.379782 22.9018C0.504273 22.4978 0.289426 22.1502 0.235212 21.7776C0.183006 21.4237 0.185014 21.0616 0.170958 20.7015C0.166943 20.6198 0.164935 20.5047 0.211117 20.4586C0.341632 20.3288 0.325568 20.1948 0.269346 20.0503C0.0926495 19.5918 0.0143406 19.1061 0.14084 18.6371C0.213125 18.3713 -0.0037307 18.1891 0.078594 17.9358C0.150879 17.7139 0.154895 17.4647 0.166943 17.2261C0.191038 16.7445 0.176982 16.2651 0.0645386 15.7919C0.0243802 15.6182 0.00430099 15.4339 0.00831683 15.256C0.0163485 14.9922 0.122768 14.7095 0.0585148 14.4709C-0.00774654 14.2238 0.0444594 13.9956 0.0243802 13.7611C-0.00975445 13.3654 0.116745 12.9886 0.265331 12.6285C0.37175 12.371 0.446043 12.1197 0.355687 11.8434C0.263323 11.5628 0.331592 11.2844 0.448051 11.0541C0.626756 10.7024 0.709081 10.3339 0.72916 9.95493C0.747232 9.62833 0.843612 9.36872 1.08055 9.16564C1.20102 9.06305 1.16086 8.95209 1.11468 8.84531C1.05645 8.70923 0.964087 8.5878 0.923928 8.44753C0.849635 8.18792 1.01228 7.93041 1.30543 7.8676C1.43796 7.83829 1.56044 7.83619 1.4239 7.68126C1.22311 7.45515 1.23315 7.20601 1.4239 7.04062C1.69296 6.80613 1.64276 6.43766 1.84356 6.18224C1.91785 6.09012 1.88171 5.95403 1.81946 5.84307C1.75521 5.72792 1.79336 5.62115 1.83753 5.50181C1.89175 5.36154 2.19093 5.39085 2.05037 5.09984C1.97005 4.93235 2.16282 4.74392 2.1849 4.54503C2.20498 4.37335 2.30538 4.21215 2.35758 4.04047C2.51621 3.51916 2.70696 3.02297 3.17882 2.70684C3.26717 2.64612 3.35753 2.52679 3.3756 2.42211C3.44788 1.99291 3.71293 1.76471 4.07436 1.61606C4.15266 1.58466 4.23097 1.54069 4.22696 1.42345C4.22294 1.27062 4.23298 1.09894 4.37755 1.02776C4.66067 0.885392 4.82331 0.558789 5.1747 0.512729C5.41966 0.481325 5.67065 0.46667 5.90759 0.315929C6.19673 0.131691 6.53607 0.0395724 6.89348 0.0772574C6.97179 0.0856319 7.05411 0.0291043 7.13844 0.0123554C7.42959 -0.0462658 7.59826 0.041666 7.70267 0.378738C7.74684 0.521104 7.77897 0.592287 7.91952 0.556695C8.13839 0.498074 8.28296 0.562976 8.43957 0.753495C8.801 1.19106 9.14034 1.637 9.28089 2.20646C9.32306 2.37605 9.30097 2.56028 9.309 2.73824C9.87524 3.04182 9.63027 3.7034 9.87724 4.15981C10.0539 4.48641 10.1624 4.88838 10.06 5.29664C10.2668 5.92263 10.1302 6.59677 10.3632 7.23533C10.5238 7.6708 10.5298 8.18373 10.5358 8.66108C10.5419 9.17401 10.57 9.68067 10.6202 10.1894C10.6403 10.3967 10.6764 10.6165 10.6382 10.8154C10.574 11.142 10.5278 11.4519 10.6563 11.7743C10.6965 11.8748 10.6643 12.0088 10.6623 12.1281C10.6583 12.2495 10.6543 12.3689 10.6382 12.4882C10.5941 12.8148 10.9475 13.1058 10.7286 13.4429C10.5338 13.7444 10.8511 14.1108 10.6021 14.3976C10.829 14.7681 10.4535 15.2413 10.7929 15.5909C10.6824 16.0013 10.8471 16.443 10.7206 16.8325C10.5901 17.2365 10.6985 17.5254 10.9173 17.8269C11.0499 18.0091 11.1262 18.053 11.3491 17.9881C11.4294 17.9651 11.5097 17.9211 11.59 17.919C11.6804 17.919 11.8048 17.9253 11.8048 17.8311C11.7988 17.515 12.2245 17.4103 12.1341 17.0544C12.1161 16.9832 12.2426 16.8701 12.3129 16.9099C12.6622 17.1067 12.6642 16.8429 12.7405 16.6105C12.8309 16.3384 12.8871 16.0453 13.1441 15.8505C13.3389 15.704 13.1441 15.526 13.12 15.3627C13.116 15.3376 13.1341 15.3041 13.1502 15.279C13.1903 15.2141 13.2385 15.2078 13.2787 15.2664C13.4252 15.4821 13.628 15.5093 13.8027 15.3544C14.0296 15.1513 14.0758 15.3711 14.1903 15.4779C14.2485 15.5302 14.381 15.5826 14.4192 15.5512C14.4975 15.4884 14.3931 15.4193 14.3609 15.3523C14.2063 15.0382 14.1501 14.7221 14.377 14.4164C14.5095 14.2385 14.5055 14.0249 14.5477 13.8218C14.5778 13.6795 14.7364 13.6271 14.7946 13.4764C14.8468 13.3424 14.9854 13.491 15.0858 13.5015C15.142 13.5078 15.2022 13.5287 15.2565 13.5162C15.3649 13.4931 15.4914 13.4617 15.4131 13.2942C15.3388 13.1393 15.3649 12.999 15.4693 12.8776C15.5657 12.7667 15.6721 12.6641 15.7825 12.5699C15.903 12.4673 15.9432 12.35 15.9552 12.1846C15.9753 11.9041 16.152 11.8203 16.3468 11.9648C16.3929 12.0004 16.4311 12.0506 16.4813 12.0779C16.5817 12.1323 16.6018 12.4128 16.7845 12.2244C16.8909 12.1155 16.8849 11.9627 16.7985 11.8099C16.7443 11.7115 16.7403 11.5817 16.7202 11.4623C16.7082 11.3891 16.8206 11.2781 16.8849 11.2969C16.913 11.3053 16.9411 11.3116 16.9652 11.3262C17.1419 11.4414 17.3286 11.5293 17.5375 11.4372C17.8407 11.3032 18.0716 11.0834 18.2061 10.7631C18.1238 10.3046 18.5053 10.2459 18.7563 10.0952C18.9812 9.95912 19.0093 9.95493 18.8025 9.81466C18.6659 9.72045 18.6579 9.63461 18.7402 9.54667C18.8587 9.42106 19.0032 9.31638 19.1478 9.22217C19.2663 9.1447 19.3627 9.19704 19.4209 9.32685C19.4892 9.47759 19.5956 9.44199 19.7 9.38128C19.8285 9.308 19.9389 9.20751 19.9831 9.05677C20.0152 8.95 19.9771 8.82019 20.1176 8.76366C20.2682 8.70295 20.3887 8.78669 20.5252 8.82019C20.7662 8.87881 20.5875 8.72388 20.5855 8.64642C20.5815 8.52709 20.4931 8.56268 20.5694 8.56896C21.0634 8.60874 21.0292 8.00159 21.3866 7.8655C21.5111 7.81944 21.2923 7.59333 21.3344 7.57658C21.5814 7.48028 21.6617 7.18717 21.8866 7.09296C22.0533 7.02387 22.228 6.97572 22.2862 6.7852C22.3665 6.52978 22.5633 6.41672 22.754 6.27854C22.8665 6.19689 22.9347 6.15502 23.009 6.30785C23.0653 6.423 23.1717 6.5235 23.2801 6.50465C23.5612 6.4565 23.6998 6.62818 23.8484 6.8187C23.8704 6.84801 23.9708 6.84801 24.005 6.8187C24.0773 6.76007 24.0893 6.66377 24.0251 6.5863C23.9708 6.51931 23.8986 6.46697 23.8343 6.40625C23.77 6.34554 23.7821 6.30995 23.8564 6.26807C24.0933 6.13827 24.2098 5.96031 24.0532 5.67977C24.0411 5.65883 24.0913 5.57509 24.1295 5.55834C24.262 5.50181 24.3985 5.44528 24.5391 5.41807C24.6816 5.39085 24.8583 5.39504 24.9346 5.26733C25.1154 4.96375 25.3764 5.02028 25.6314 5.05797C25.8784 5.09356 26.045 5.24639 26.1454 5.49344C26.1655 5.54578 26.3241 5.59812 26.3603 5.56881C26.4647 5.48506 26.6876 5.42854 26.6233 5.26942C26.5209 5.014 26.6474 4.95329 26.8181 4.89048C26.9365 4.84651 27.0209 4.7858 26.9667 4.63296C26.9406 4.55969 26.8442 4.47175 26.9667 4.41523C27.0329 4.38382 27.1634 4.37335 27.1976 4.41523C27.3723 4.63296 27.4907 4.61412 27.6795 4.40895C27.8321 4.24355 28.065 4.11165 28.2678 4.40057C28.3863 4.57225 28.5288 4.42988 28.6553 4.41313C28.828 4.3901 28.8139 4.29589 28.7156 4.17655C28.6874 4.14306 28.6794 4.03838 28.7015 4.02163C28.7658 3.97347 28.8501 3.92113 28.9244 3.92532C29.1392 3.93369 29.2798 4.10956 29.4525 4.21843L29.4444 4.2268ZM17.3487 29.2643C17.5254 28.6446 18.0916 28.2657 18.425 27.7088C18.4671 27.6376 18.5334 27.6313 18.5615 27.7046C18.6177 27.8532 18.8587 27.7611 18.8587 27.9579C18.8587 28.071 18.7944 28.2196 18.9872 28.0542C19.2442 27.8344 19.2582 27.4973 19.2482 27.2314C19.2301 26.7122 19.5233 26.3898 19.7803 26.0423C19.9751 25.7806 20.214 25.7617 20.5413 25.9062C20.5955 25.9292 20.6457 25.9585 20.6979 25.9857C20.8586 26.0695 20.8786 25.9585 20.9188 25.835C20.9509 25.7366 21.0533 25.768 21.1357 25.7785C21.226 25.7889 21.1999 25.7617 21.1778 25.678C21.1055 25.4037 21.1718 25.276 21.3766 25.2467C21.4549 25.2362 21.5413 25.2802 21.6236 25.2844C21.726 25.2907 21.7842 25.2278 21.7119 25.142C21.6015 25.008 21.5975 24.8761 21.6597 24.7275C21.73 24.56 21.8043 24.3611 21.9689 24.3088C22.2641 24.2145 22.3826 24.0659 22.2982 23.7435C22.2762 23.6618 22.3545 23.5404 22.4408 23.5592C22.7058 23.6158 22.8364 23.4629 22.8685 23.2431C22.9006 23.0337 22.9729 22.9081 23.1717 22.8809C23.3604 22.8537 23.4187 22.7364 23.3665 22.569C23.2661 22.2528 23.3705 22.0476 23.6476 21.9137C23.6717 21.9011 23.6877 21.8655 23.7118 21.855C23.8724 21.7901 23.9226 21.6792 23.8624 21.5096C23.7921 21.3128 23.8704 21.1558 24.003 21.0218C24.0873 20.938 24.1817 20.8689 24.27 20.7894C24.3905 20.6826 24.4507 20.8229 24.5351 20.8438C24.8142 20.9129 25.1013 20.8794 25.3362 20.6638C25.4507 20.557 25.4667 20.3623 25.3302 20.2053C25.1174 19.9624 25.3001 20.0189 25.4426 20.0189C25.5631 20.0189 25.5912 19.8954 25.5631 19.8305C25.4406 19.5437 25.4507 19.3092 25.7298 19.1312C25.7458 19.1208 25.7157 19.037 25.7097 18.9847C25.6876 18.8151 25.7739 18.6811 25.8804 18.7209C26.0149 18.7711 26.1474 18.8298 26.2759 18.8947C26.6695 19.0977 26.6695 19.0998 27.0068 18.767C27.049 18.7272 27.0791 18.6686 27.1273 18.6434C27.2277 18.5869 27.3321 18.5639 27.2337 18.3964C27.1614 18.275 27.1112 18.1179 27.1092 17.9756C27.1032 17.7662 27.1634 17.5673 27.3682 17.4584C27.4686 17.404 27.559 17.3265 27.6634 17.2847C27.806 17.2281 27.9023 17.136 27.9907 17.0062C28.1694 16.7445 28.2557 16.4807 28.1493 16.1604C28.0549 15.8757 28.0991 15.6244 28.3963 15.4842C28.5308 15.4214 28.5208 15.3041 28.4967 15.1806C28.4505 14.9587 28.4605 14.7765 28.6874 14.6425C28.832 14.5567 28.9264 14.385 29.0669 14.2866C29.2055 14.1903 29.2276 14.0647 29.2597 13.9119C29.2958 13.7381 29.5428 13.7255 29.579 13.5224C29.601 13.3989 29.7075 13.2796 29.8159 13.2963C30.1472 13.3508 30.2376 13.1498 30.2396 12.8818C30.2396 12.5699 30.4946 12.3375 30.4604 12.0192C30.4564 11.9774 30.5167 11.902 30.5608 11.8873C30.7656 11.8162 30.7717 11.6508 30.7998 11.4644C30.8319 11.2613 30.9182 11.0122 31.115 10.9682C31.2857 10.9306 31.4202 10.8929 31.5628 10.7756C31.9001 10.4993 31.9423 10.5076 32.2696 10.8573C32.376 10.9703 32.4202 10.8908 32.4563 10.8301C32.4965 10.7652 32.5005 10.6751 32.5206 10.5956C32.3439 10.5788 32.3158 10.426 32.2475 10.2962C32.1391 10.091 32.2515 9.87956 32.1973 9.68067C32.117 9.38337 32.1732 9.15098 32.4302 8.97512C32.7113 8.78251 32.8117 8.45172 32.9703 8.16908C33.0727 7.98484 33.1691 7.79223 33.0085 7.58705C33.0486 7.56402 33.0888 7.52424 33.131 7.51796C33.2153 7.50959 33.3117 7.52634 33.2936 7.39025C33.2655 7.18298 33.2675 6.99037 33.3257 6.77892C33.3659 6.62818 33.2454 6.43766 33.2514 6.26598C33.2555 6.13618 32.9201 5.86819 33.3619 5.87029C33.2896 5.67977 33.2173 5.48925 33.143 5.30083C33.1069 5.2108 33.0326 5.16265 32.9402 5.16893C32.7977 5.1794 32.633 5.25477 32.5165 5.20661C32.2776 5.10612 32.1029 5.1794 31.878 5.26523C31.5427 5.39294 31.1532 5.5374 30.862 5.12496C30.848 5.10612 30.7375 5.13124 30.7375 5.13962C30.7315 5.28826 30.6974 5.35317 30.5307 5.29454C30.3219 5.22127 30.0689 5.0789 30.0107 5.48506C30.0066 5.50809 29.9785 5.53531 29.9564 5.54368C29.5268 5.71117 29.1011 5.88285 28.6674 6.03778C28.4224 6.12571 28.1674 6.18852 27.9144 6.24923C27.6895 6.30367 27.4526 6.39369 27.2337 6.36647C26.9285 6.3267 26.8422 6.7517 26.543 6.65539C25.9125 6.94012 25.272 7.20392 24.6555 7.51796C24.0692 7.81735 23.5371 8.21723 22.9408 8.50615C22.5071 8.71551 22.0452 8.93953 21.7882 9.41687C21.475 9.51736 21.3907 9.91515 21.0473 10.0073C20.714 10.0952 20.6497 10.6081 20.2361 10.6291C20.0956 10.6354 20.1036 10.7924 20.0574 10.8992C19.9891 11.0625 19.5896 11.5126 19.4972 11.5356C19.0715 11.6424 18.8065 11.9564 18.5675 12.3019C18.431 12.4987 18.2804 12.6703 18.0997 12.8274C17.6599 13.2105 17.1881 13.5727 16.8226 14.027C16.3448 14.6216 15.8588 15.212 15.4131 15.8359C15.2284 16.0955 15.0356 16.2756 14.7103 16.2735C14.5296 16.2735 14.4754 16.4074 14.4774 16.5791C14.4794 16.7424 14.4051 16.8576 14.2806 16.956C14.1682 17.046 14.0457 17.1465 13.9834 17.2721C13.877 17.4878 13.7104 17.5589 13.5035 17.6092C13.3911 17.6364 13.2967 17.7181 13.3007 17.8646C13.3028 17.9881 13.2907 18.1012 13.1843 18.1849C12.9393 18.3754 12.8249 18.633 12.7727 18.9491C12.7466 19.1124 12.6422 19.3134 12.5136 19.3992C12.1944 19.6086 12.086 19.9603 11.8952 20.2534C11.7808 20.4272 11.7045 20.6261 11.6081 20.8124C11.5117 20.9987 11.4254 21.1935 11.3089 21.363C11.1924 21.5305 11.1021 21.8341 10.9214 21.8153C10.5961 21.7797 10.6523 21.9953 10.5941 22.1649C10.584 22.1942 10.4756 22.2277 10.4575 22.2089C10.2045 21.9681 9.93548 21.8613 9.60618 22.0476C9.56602 22.0707 9.48972 22.0497 9.44353 22.0246C9.24073 21.9095 9.00581 21.8194 8.85521 21.652C8.71466 21.4928 8.83313 21.25 8.84919 21.0427C8.86927 20.7747 8.88533 20.5067 8.88132 20.2388C8.8773 19.9917 8.89537 19.7635 9.05199 19.5625C9.13231 19.4599 9.12428 19.3092 9.05199 19.2234C8.81506 18.9449 8.87931 18.7607 9.17046 18.5911C9.2327 18.5555 9.24274 18.4278 9.09817 18.4215C8.96565 18.4152 8.86726 18.3315 8.87329 18.2017C8.88935 17.8918 8.78895 17.6071 8.72671 17.314C8.70261 17.1967 8.67049 17.0837 8.73072 16.9643C8.79498 16.8345 8.87931 16.7089 8.8512 16.5498C8.65643 16.5268 8.66245 16.3886 8.66647 16.2295C8.67049 16.1122 8.61627 15.9929 8.60824 15.8736C8.60021 15.7166 8.64639 15.5595 8.79297 15.4967C9.01786 15.4004 9.11022 15.2706 9.01786 15.0152C8.93352 14.7849 8.91746 14.5462 8.98974 14.3034C9.04597 14.117 9.00581 13.9391 8.9034 13.7862C8.7749 13.5978 8.82108 13.4366 8.97569 13.3194C9.10219 13.221 9.18451 13.1393 9.12428 12.9614C8.94557 12.4212 8.95762 11.8455 8.84718 11.2927C8.78895 10.9996 8.77691 10.6982 8.72871 10.403C8.70462 10.2438 8.72068 10.1057 8.81104 9.97587C8.91144 9.83141 8.98774 9.65973 9.11022 9.54249C9.21865 9.4399 9.22869 9.38547 9.15038 9.26194C8.92549 8.90812 8.68655 8.53965 8.70261 8.10627C8.71265 7.86132 8.70462 7.63102 8.63635 7.40909C8.55804 7.15367 8.63635 7.01759 8.85923 6.9171C8.92148 6.88988 8.9777 6.73495 8.88935 6.72239C8.62029 6.68261 8.60623 6.43975 8.53395 6.26807C8.47773 6.13618 8.46969 5.998 8.35123 5.88285C8.07413 5.61487 8.00787 5.27989 8.13437 4.90304C8.16248 4.82139 8.15244 4.72508 8.15847 4.63506C8.16449 4.50525 8.06409 4.51153 7.98578 4.4906C7.89944 4.46757 7.80306 4.43616 7.80306 4.33148C7.80306 4.1284 7.72475 3.90648 7.90547 3.7369C7.95767 3.68874 8.06409 3.67618 7.97976 3.55894C7.80708 3.32027 7.63038 3.08578 7.47577 2.83455C7.39947 2.71102 7.37738 2.54563 7.24085 2.46816C6.94769 2.30277 6.77501 2.02013 6.59028 1.75424C6.49992 1.62444 6.39752 1.65375 6.28909 1.68725C6.20677 1.71237 6.09633 1.72703 6.05015 1.78774C5.70479 2.26299 5.20682 2.57913 4.85343 3.0481C4.72693 3.21768 4.58838 3.38307 4.5683 3.59662C4.52011 4.11793 4.14262 4.522 4.10247 5.0454C4.09845 5.09565 4.04424 5.16474 3.99805 5.18149C3.75108 5.2757 3.88561 5.61277 3.63261 5.74258C3.36757 5.87866 3.51816 6.23248 3.44186 6.48162C3.41576 6.56746 3.41174 6.66586 3.36757 6.73704C3.03024 7.27929 2.95795 7.91994 2.7411 8.50196C2.60255 8.87253 2.49412 9.23054 2.47204 9.61995C2.44192 10.135 2.19896 10.5872 2.09655 11.0813C2.08852 11.119 2.01423 11.1525 1.96403 11.1671C1.88773 11.1881 1.68694 11.096 1.82548 11.3053C1.96604 11.5189 2.03632 11.7638 2.0062 11.9899C1.93793 12.5238 2.05037 13.0765 1.83954 13.5978C1.78533 13.7318 1.78533 13.893 1.78332 14.0438C1.78131 14.3452 1.79135 14.6404 1.62268 14.9147C1.57048 15.0005 1.58253 15.1492 1.60662 15.2601C1.63875 15.4067 1.67087 15.5407 1.64678 15.6977C1.6006 16.0201 1.61064 16.3363 1.68091 16.6712C1.75119 17.0125 1.71304 17.3935 1.82749 17.7327C2.00218 18.2477 1.96002 18.7502 1.77729 19.2338C1.68493 19.4767 1.66084 19.6777 1.73513 19.9247C1.80741 20.1655 1.94395 20.4377 1.65481 20.6491C1.62469 20.6721 1.61465 20.7664 1.63272 20.8124C1.81143 21.2563 1.79135 21.7483 1.93793 22.2005C2.04033 22.5103 2.11463 22.8411 2.1327 23.1677C2.14876 23.4734 2.35357 23.8314 2.00419 24.0889C1.97608 24.2878 2.1327 24.4051 2.21502 24.5453C2.34353 24.7673 2.42786 24.9787 2.29534 25.2216C2.17888 25.4351 2.18289 25.6152 2.3877 25.7638C2.3877 26.2139 2.70295 26.5971 2.6407 27.0535C2.61058 27.2712 2.6407 27.4701 2.67885 27.6774C2.75114 28.0605 2.83346 28.4436 2.85956 28.831C2.87964 29.1345 2.85956 29.4193 3.1728 29.5868C3.23504 29.6203 3.30131 29.7417 3.28926 29.8087C3.22701 30.1416 3.58844 30.4137 3.40572 30.7634C3.37961 30.8136 3.42981 30.9455 3.48202 30.9978C3.61856 31.1318 3.65269 31.293 3.69084 31.4752C3.74506 31.7348 3.80931 32.007 3.9338 32.2352C4.16672 32.6602 4.1868 33.148 4.37153 33.5835C4.26912 34.0545 4.78918 34.3811 4.6426 34.8627C4.91367 35.1579 4.96587 35.5494 5.06627 35.9199C5.35942 36.1188 5.26907 36.458 5.33332 36.7385C5.35942 36.8537 5.30521 37.0442 5.36545 37.0882C5.73491 37.3645 5.6827 37.8293 5.85337 38.1915C5.95176 38.4009 5.90558 38.5998 5.78109 38.7882C5.71483 38.8866 5.62648 38.9892 5.60841 39.098C5.5823 39.2676 5.77908 39.3221 5.84133 39.4519C5.92365 39.6173 6.02003 39.6675 6.1646 39.5314C6.68666 39.5607 7.14246 39.186 7.67255 39.2718C7.8111 39.2948 7.8874 39.2153 7.95366 39.1106C8.04803 38.962 8.13236 38.8049 8.23276 38.6584C8.45162 38.3422 8.67651 38.0596 9.08412 37.957C9.38731 37.8817 9.6363 37.6639 9.77083 37.3247C9.9174 36.9542 10.2005 36.6946 10.5057 36.4517C10.9354 36.1105 11.3571 35.7545 11.7045 35.3149C11.8109 35.1809 11.9755 35.0992 12.1121 34.9925C12.2285 34.9024 12.3189 34.9904 12.4233 35.0322C12.4936 35.0616 12.6 35.0636 12.6602 35.026C12.7325 34.9778 12.7365 34.8689 12.6783 34.7894C12.5759 34.6512 12.5518 34.5256 12.7004 34.4083C12.7687 34.3539 12.8751 34.3162 12.9012 34.245C13.0819 33.753 13.6341 33.573 13.7987 33.0517C13.8529 32.8821 14.0899 32.7753 14.2485 32.6455C14.3931 32.5283 14.6722 32.6141 14.7023 32.3043C14.7083 32.2394 14.8489 32.277 14.9252 32.3168C15.0476 32.3796 15.136 32.3943 15.1139 32.1975C15.1019 32.0886 15.0055 31.9442 15.13 31.873C15.3528 31.7495 15.4412 31.5338 15.5637 31.3286C15.658 31.1716 15.7926 31.2302 15.9392 31.2847C16.1701 31.3705 16.2685 31.2784 16.1721 31.0313C16.0777 30.7906 16.16 30.6273 16.2685 30.4472C16.3387 30.33 16.4652 30.3049 16.5536 30.4074C16.666 30.5393 16.7283 30.7341 16.9511 30.6922C17.0315 30.6775 17.1319 30.6859 17.1319 30.5582C17.1319 30.4389 17.1499 30.2274 17.1178 30.2169C16.7584 30.1122 16.9491 29.9155 17.0395 29.7501C17.1258 29.593 17.2343 29.4507 17.3567 29.2664L17.3487 29.2643ZM32.0226 4.60574C32.1451 4.70414 32.1852 4.74602 32.2334 4.77323C32.3278 4.82557 32.4362 4.91979 32.5226 4.90304C32.6471 4.88001 32.5989 4.67274 32.6631 4.61203C32.8318 4.44872 32.7475 4.38173 32.6109 4.28961C32.3579 4.12212 32.0668 4.12212 31.8258 4.31473C31.7997 4.33567 31.8037 4.455 31.8339 4.48222C31.9142 4.5555 32.0166 4.60156 32.0246 4.60574H32.0226ZM4.81929 39.5817C4.80524 39.5607 4.7711 39.4581 4.70484 39.4246C4.6426 39.3932 4.5422 39.4246 4.46791 39.4519C4.4398 39.4623 4.41771 39.544 4.42373 39.59C4.42976 39.6466 4.45586 39.7303 4.49401 39.7471C4.67874 39.8245 4.86949 39.8873 5.06024 39.9439C5.09438 39.9543 5.14056 39.9187 5.18273 39.9041C5.17269 39.8769 5.17068 39.8371 5.15261 39.8224C5.06024 39.7513 4.96386 39.6843 4.81929 39.5817ZM25.0732 6.15711C25.0692 6.14455 25.029 6.00219 25.015 6.00428C24.8503 6.03359 24.6897 6.08593 24.527 6.13408C24.521 6.13408 24.519 6.17596 24.527 6.1927C24.5391 6.21573 24.5612 6.24714 24.5812 6.25133C24.7158 6.27436 24.8523 6.2932 24.9868 6.31204C25.0652 6.3246 25.0973 6.29529 25.0712 6.15711H25.0732ZM29.0248 16.0222C29.0428 16.0369 29.077 16.062 29.077 16.062C29.1332 15.9992 29.1954 15.9385 29.2356 15.8673C29.2838 15.7836 29.2697 15.7019 29.1774 15.6517C29.0991 15.6077 29.0268 15.5909 28.9726 15.6977C28.9123 15.8212 28.9625 15.9196 29.0208 16.0222H29.0248ZM23.3102 5.94566C23.2701 5.94566 23.1938 5.99381 23.1958 6.01475C23.2018 6.09221 23.2159 6.18433 23.262 6.23667C23.3263 6.30995 23.5371 6.27226 23.5431 6.19689C23.5492 6.13199 23.497 6.06081 23.4769 6.00637C23.4066 5.97916 23.3564 5.94356 23.3082 5.94356L23.3102 5.94566ZM27.1474 16.8031C27.1012 16.8869 27.1052 16.9874 27.1735 17.0397C27.2357 17.0858 27.3301 17.1025 27.4084 17.1025C27.6232 17.1067 27.6915 16.9204 27.7477 16.7613C27.7979 16.621 27.7618 16.464 27.6473 16.3572C27.5851 16.2986 27.4867 16.2839 27.4225 16.3593C27.3662 16.4242 27.3341 16.5079 27.3803 16.4263C27.2377 16.6545 27.1895 16.7257 27.1474 16.8031ZM26.4105 18.7041C26.4245 18.7272 26.4506 18.7481 26.4747 18.7565C26.4988 18.7628 26.543 18.7607 26.551 18.746C26.5771 18.702 26.5952 18.6497 26.6072 18.5974C26.6293 18.5136 26.6494 18.4299 26.6614 18.344C26.6695 18.2896 26.6614 18.2331 26.6614 18.1766L26.4787 18.2959C26.4265 18.4362 26.3141 18.5513 26.4085 18.7021L26.4105 18.7041ZM24.7258 20.1487C24.6816 20.2136 24.6375 20.2995 24.6395 20.3748C24.6415 20.4398 24.7098 20.5005 24.7479 20.5654C24.7901 20.5298 24.8423 20.5005 24.8724 20.4565C24.9326 20.3623 25.0009 20.2597 24.8724 20.1613C24.8222 20.1571 24.7419 20.1278 24.7258 20.1508V20.1487Z" fill="white"/>
</g>
<defs>
<clipPath id="clip0_3118_2377">
<rect width="36" height="42" fill="white"/>
</clipPath>
</defs>
</svg>
