<svg width="88" height="88" viewBox="0 0 88 88" fill="none" xmlns="http://www.w3.org/2000/svg">
<path d="M44 0.5C68.0244 0.5 87.5 19.9756 87.5 44C87.5 68.0244 68.0244 87.5 44 87.5C19.9756 87.5 0.5 68.0244 0.5 44C0.5 19.9756 19.9756 0.5 44 0.5Z" fill="#A92966" stroke="black"/>
<g clip-path="url(#clip0_3219_3133)">
<path d="M29.5489 49.1055C29.2001 51.1722 31.231 57.4363 28.7404 57.6293C26.0308 58.1125 23.2284 58.1553 20.4843 58.1177C19.0413 58.0355 18.8596 56.5922 18.436 55.4448C17.1167 55.3911 14.7625 56.2734 14.7842 54.2107C14.5603 52.4046 14.2945 50.6036 14.0302 48.6916C12.7157 48.591 10.7172 49.2649 10.8185 47.3629C11.0292 44.9633 9.55636 40.387 13.3521 40.6179C13.5606 36.9247 12.1865 34.2092 17.2769 34.6323C17.3217 33.2911 17.1162 31.7805 18.769 31.6182C21.6703 31.2125 24.6234 31.3253 27.5451 31.1697C30.8656 30.4632 28.9871 38.0237 29.5886 40.1517C38.6874 39.5039 47.6061 38.7209 56.7436 38.1454C56.8663 36.4015 55.1516 31.5956 57.4656 31.2804C60.8033 31.5688 67.3133 28.8457 67.2507 34.2147C72.8352 33.4892 72.1814 34.6739 72.9475 39.5338C76.5124 39.1606 75.5668 43.4457 75.972 45.7708C76.1649 47.2617 75.004 47.3735 73.7838 47.7132C73.9082 52.9045 74.8603 54.4769 68.7716 53.6563C68.9382 58.2059 63.5814 56.582 60.6202 57.0945C57.5833 57.0211 58.2095 50.7174 57.5774 48.4201C48.176 49.04 38.9761 48.7003 29.5505 49.1083L29.5489 49.1055ZM18.8807 32.9483C19.5883 40.5576 19.2096 48.1187 19.9386 55.6933C20.1499 57.1759 20.224 57.3122 21.7011 57.2686C23.5168 57.2161 25.3313 57.0584 27.1426 56.8951C28.9061 56.7358 28.9633 56.6598 28.7248 54.9085C27.5901 47.3667 28.7246 39.8202 28.3501 32.2387C25.2223 32.4854 22.1249 32.2852 18.8808 32.9497L18.8807 32.9483ZM29.4905 47.7653C38.8312 47.737 48.1636 47.5791 57.4983 47.0737C57.4015 44.4419 57.1446 41.9484 56.8503 39.4627C47.7094 40.1128 38.6232 41.0856 29.4435 41.2996C29.4588 43.4583 29.4732 45.5702 29.489 47.7653L29.4905 47.7653ZM67.0143 55.2141C67.7747 47.9134 65.684 40.6727 65.5359 33.3582C65.0886 31.285 59.7437 33.0054 57.9973 32.7127C57.3839 32.7506 57.2308 32.9105 57.1937 33.5081C58.3893 40.4919 58.2566 47.6663 59.9025 54.5798C59.9831 56.789 65.3279 54.9839 67.0143 55.2141ZM72.4144 52.4906C72.8876 50.1327 71.6839 37.3733 70.8216 35.2648C69.669 35.0053 68.4952 35.1469 67.1827 35.252C67.7429 41.0718 68.2894 46.7404 68.8372 52.4337C70.0529 52.4534 71.2221 52.4726 72.4144 52.4906ZM18.307 54.2295C17.7863 47.9682 18.5331 41.6611 17.2357 35.4039C15.9995 35.5474 13.9538 35.0966 14.253 36.979C14.0893 42.8643 15.0253 48.5535 15.922 54.3542L18.307 54.2295ZM13.6387 47.7981L13.3204 41.7087C12.5815 41.7109 12.4304 42.1597 12.3877 42.7051C12.3656 44.3984 11.8967 46.1429 12.1433 47.7989C12.619 47.7988 13.1048 47.7983 13.6387 47.7981ZM73.6338 46.5413C75.9936 46.2953 74.2725 43.3148 74.4786 41.8031C74.3837 40.7655 74.3295 40.7027 73.0814 40.6482C73.2647 42.5965 73.4459 44.5319 73.6337 46.5399L73.6338 46.5413Z" fill="white"/>
</g>
<defs>
<clipPath id="clip0_3219_3133">
<rect width="65.1681" height="27.8541" fill="white" transform="translate(10 31.9653) rotate(-2.99206)"/>
</clipPath>
</defs>
</svg>
