<svg width="88" height="88" viewBox="0 0 88 88" fill="none" xmlns="http://www.w3.org/2000/svg">
<circle cx="44" cy="44" r="44" fill="#A92966"/>
<g clip-path="url(#clip0_3219_3137)">
<path fill-rule="evenodd" clip-rule="evenodd" d="M32.5084 62.6185C32.9224 61.3274 32.1568 60.7789 31.2947 60.2762C30.2455 59.6706 29.151 59.1221 28.1699 58.4194C26.5309 57.2539 24.8465 56.1113 23.406 54.723C22.1583 53.5232 21.2396 51.9921 20.1451 50.6266C18.5911 48.6842 18.2452 46.2675 17.5079 43.9994C17.2811 43.3024 17.0372 42.6111 16.7366 41.9426C16.1412 40.6 15.937 39.166 16.0164 37.732C16.0447 37.2407 16.5892 36.5494 17.0542 36.3666C17.559 36.1666 17.7007 35.9038 17.7858 35.4925C17.8482 35.1782 17.8425 34.8526 17.9049 34.5384C18.3189 32.4816 19.5326 31.6932 21.6026 32.156C22.0619 32.2588 22.4986 32.4474 23.1281 32.6587C23.3777 32.2531 23.6499 31.8303 23.9051 31.3904C24.5176 30.3278 25.3853 29.6593 26.6443 29.9336C27.6424 30.1507 28.0678 29.6936 28.4875 28.8938C29.3892 27.1627 30.2852 26.8427 32.066 27.4598C32.2588 27.5283 32.4743 27.5455 32.7579 27.6026C32.9564 27.2941 33.291 27.0027 33.3137 26.6885C33.4214 25.4716 34.3005 24.706 34.8846 23.7748C35.4347 22.9007 36.3591 22.575 37.3006 22.3751C38.3781 22.1522 39.4727 21.9066 40.5672 21.838C42.4954 21.7238 44.1061 22.3522 45.0588 24.1861C45.3481 24.746 45.643 25.3002 46.0116 25.9972C48.3708 25.1059 50.8151 24.1119 53.0156 26.5856C53.5941 26.2429 54.1215 25.9058 54.6659 25.603C56.407 24.6375 57.5015 24.826 58.8967 26.2086C59.2029 26.5114 59.7303 26.8256 60.1046 26.7685C61.3637 26.5856 62.0272 27.3284 62.4866 28.2425C62.8949 29.0594 63.3316 29.6536 64.2844 29.8307C64.6303 29.8936 64.9139 30.2878 65.4073 30.6706C66.791 28.5396 68.1578 26.46 69.5019 24.3689C69.8138 23.8776 70.052 23.3349 70.3356 22.8207C71.4471 20.8325 72.5814 18.8615 73.6703 16.8619C74.8782 14.6509 76.4095 12.8798 78.0088 11.9885C78.7574 12.8398 79.54 13.6853 79.8463 14.8565C80.1071 15.8563 80.0334 16.7704 79.6421 17.7931C78.3093 21.2781 75.763 23.8148 73.381 26.5285C71.4245 28.7567 69.672 31.1733 67.9366 33.5843C67.2164 34.5841 68.0444 35.721 68.6115 36.2752C69.7117 37.355 69.7231 38.5947 69.5756 39.8002C69.0369 44.2165 67.8743 48.4671 65.7532 52.4091C65.6795 52.552 65.6398 52.7176 65.549 52.8433C63.8136 55.2543 62.1406 57.7109 60.3031 60.0419C59.6793 60.836 58.6812 61.3617 57.7965 61.9044C56.2822 62.8356 54.8928 63.7212 54.8304 65.8522C54.785 67.4119 52.8738 68.7773 50.9966 69.0687C49.6015 69.2858 48.2347 69.68 46.8509 69.9542C46.5107 70.0228 46.1364 69.9657 45.7791 69.9428C44.1571 69.84 42.5351 69.6572 40.9132 69.6457C38.7864 69.6286 37.38 68.3374 36.0529 66.9663C35.0774 65.9607 33.9545 64.9895 34.0226 63.3213C34.0453 62.7271 33.739 62.63 32.5027 62.6071L32.5084 62.6185ZM28.357 32.1731C27.909 31.9046 27.6595 31.7104 27.3759 31.5904C26.0885 31.0476 25.0734 31.6989 24.9826 33.1044C24.977 33.2072 25.0223 33.3215 24.9996 33.4186C24.9089 33.8014 24.8465 34.4641 24.6764 34.4984C24.2907 34.5726 23.8257 34.3841 23.4287 34.2127C22.8502 33.9613 22.3285 33.5614 21.7387 33.3443C20.8653 33.0244 20.0316 33.2472 19.6006 33.8928C18.9654 34.8412 18.818 35.9438 19.2774 36.9436C19.8105 38.092 20.2471 39.4174 21.7103 39.8288C21.9428 39.8916 22.113 40.1658 22.3285 40.3201C25.7653 42.7025 29.219 45.0449 33.2343 46.3817C34.4366 46.7817 35.6219 47.2387 36.8185 47.6444C37.2552 47.7929 37.7429 48.0043 38.0435 47.4787C37.7826 46.6788 37.4537 45.9476 37.3176 45.182C36.949 43.1538 37.7429 42.1197 39.2742 41.2228C40.3857 40.5715 41.2648 40.8857 42.1608 42.0055C42.1155 42.0169 42.0587 42.0397 42.019 42.0283C40.6693 41.5827 39.7392 41.8455 38.9849 42.8853C38.2477 43.908 38.2987 44.9306 39.0643 46.0561C39.2458 46.3189 39.2855 46.7245 39.2798 47.0616C39.2798 47.4044 39.1437 47.7472 39.0473 48.17C39.45 48.2899 39.7335 48.4213 40.0341 48.4499C42.3423 48.6784 44.6505 49.0041 46.9587 49.0555C48.9039 49.1012 50.8548 48.8384 52.8058 48.6784C56.1915 48.3985 58.9874 46.5589 61.8854 45.0506C62.9743 44.485 64.0348 43.5652 64.6984 42.5368C65.7249 40.9485 66.4621 39.1489 67.1767 37.3835C67.4035 36.8179 67.188 36.0695 67.1767 35.0697C66.6323 35.5267 66.3203 35.7096 66.1218 35.9724C65.4413 36.8579 64.8061 37.772 64.1426 38.669C63.6492 39.3374 63.4053 39.9316 63.7966 40.8514C64.3127 42.0626 63.6492 43.2052 62.4072 43.7366C61.341 42.9196 62.5716 42.0797 62.3675 41.1256C61.9875 40.7771 61.5395 40.3544 61.0631 39.9202C60.7909 40.0858 60.5924 40.1658 60.4506 40.3087C60.0139 40.7429 59.5205 40.8857 59.0498 40.4572C58.5507 40.0059 58.7832 39.4688 59.0725 39.0061C59.356 38.5547 59.7757 38.1777 59.9799 37.6977C60.167 37.2464 60.15 36.7094 60.2237 36.2066C59.7757 36.1666 59.3334 36.1209 58.8853 36.0923C58.7832 36.0866 58.6812 36.1609 58.5791 36.178C57.8985 36.2866 57.7568 35.9381 57.8248 35.441C59.3277 34.5955 60.6888 34.6469 61.9024 35.9095C62.7021 34.6012 63.4393 33.4357 64.1312 32.2417C64.4828 31.6361 64.307 31.3276 63.6095 31.1448C62.9573 30.9734 62.2994 30.7962 61.5735 30.6077C61.5735 30.1335 61.6132 29.7107 61.5622 29.2937C61.4941 28.7338 61.2502 28.1739 60.6264 28.2139C60.3315 28.231 60.0536 28.7052 59.7927 28.9909C59.7303 29.0594 59.7587 29.2366 59.6906 29.288C59.3844 29.5108 59.0441 29.8821 58.7379 29.865C58.1991 29.8307 57.9836 29.368 58.046 28.8024C58.097 28.3796 58.1594 27.9511 58.114 27.534C58.0006 26.4143 57.3031 25.9115 56.2369 26.2486C55.216 26.5742 54.2689 27.0541 53.8266 28.1625C53.7132 28.4424 53.526 28.6881 53.3559 28.9966C52.5449 28.7852 52.2103 28.2368 51.87 27.6026C51.6148 27.1227 51.2121 26.5856 50.7414 26.3914C48.921 25.643 46.9927 26.5856 46.2611 28.4424C46.1591 28.7052 45.9095 28.9166 45.7167 29.1737C44.8377 28.7567 44.6108 28.0882 44.7242 27.2941C44.8887 26.0772 44.3272 25.0888 43.7318 24.1633C43.2043 23.3406 42.4274 22.8093 41.3215 23.0092C40.4935 23.1578 39.6428 23.2149 38.8034 23.2492C36.8185 23.3349 34.7996 24.9003 34.5897 27.6826C34.4309 29.8079 34.4649 29.8079 32.497 28.9737C30.5007 28.1225 29.9393 28.3682 29.2361 30.4135C29.151 30.6648 29.185 30.9619 29.0659 31.1905C28.9071 31.499 28.6633 31.7618 28.3627 32.1674L28.357 32.1731ZM65.9914 43.6451C65.7078 43.908 65.4923 44.0508 65.3562 44.245C64.4488 45.5648 63.2011 46.3875 61.7266 46.9588C60.8986 47.2844 60.1443 47.81 59.3731 48.2614C58.6471 48.6899 57.9893 49.3812 57.2123 49.5468C55.0459 50.0096 52.8511 50.3695 50.645 50.5695C47.4294 50.8609 44.2025 50.838 41.0322 50.0724C38.4688 49.4554 35.8828 48.8955 33.3761 48.0957C29.8259 46.9588 26.718 44.9306 23.7463 42.6968C22.6914 41.9083 21.6082 41.1428 20.4683 40.4972C19.7708 40.103 19.0845 39.7659 18.5741 39.126C18.4323 38.9489 18.1715 38.8747 17.7688 38.6404C17.7688 39.1546 17.7121 39.4631 17.7801 39.7373C18.0467 40.8228 18.3076 41.9083 18.6535 42.971C19.3284 45.0392 19.9239 47.153 20.7859 49.1412C22.1697 52.3234 24.7104 54.5401 27.4893 56.4483C29.0546 57.5224 30.7106 58.4765 32.4006 59.3449C33.7447 60.0362 35.1852 60.539 36.5973 61.0817C38.3214 61.7444 40.0398 62.4243 41.7979 62.9785C43.9586 63.6526 46.1477 63.6069 48.3879 63.207C50.7868 62.7785 53.1801 62.2815 55.3748 61.2817C57.5299 60.2933 59.4411 58.8136 60.7625 56.7226C61.3296 55.8199 61.9535 54.9515 62.5206 54.0545C63.9157 51.8435 65.2371 49.5925 65.9233 47.0331C66.2069 45.9647 66.4167 44.8963 65.9971 43.6394L65.9914 43.6451ZM64.1879 36.0866C65.8553 33.8242 67.4489 31.5047 69.2127 29.3165C71.5889 26.38 74.0786 23.5405 76.5513 20.684C77.6288 19.4385 78.0598 17.8902 78.661 16.4219C78.7914 16.0963 78.8027 15.6735 78.746 15.3136C78.5645 14.1081 77.7706 13.8167 76.8632 14.628C76.5172 14.9422 76.2053 15.325 75.9785 15.7364C74.7648 17.9188 73.6646 20.1698 72.3772 22.3008C70.4774 25.443 68.4924 28.5396 66.4678 31.6018C65.5377 33.0072 64.4375 34.2927 64.1936 36.0809L64.1879 36.0866ZM63.1785 36.9322C62.7758 37.4578 61.6075 36.9836 61.6019 38.1891C62.6851 38.389 62.7588 37.4407 63.1785 36.9322Z" fill="white"/>
<path fill-rule="evenodd" clip-rule="evenodd" d="M32.4458 35.9553C31.6291 36.0525 30.7671 35.2469 30.0469 36.0867C29.3606 36.8866 30.0185 37.5493 30.4495 38.2349C29.3833 38.2977 28.6914 37.6007 28.578 36.4467C28.4929 35.5783 28.8729 35.1098 29.82 34.9555C30.2907 34.8813 30.7614 34.8013 31.2378 34.7956C32.0091 34.7841 32.4912 34.4356 32.8711 33.7615C33.7899 32.1275 35.0546 32.0475 36.2399 33.1445C37.4478 34.2642 38.9847 35.1841 38.9394 37.1951C38.911 38.3491 38.6274 38.9148 37.4989 39.4461C37.4705 39.1204 37.3514 38.8005 37.4365 38.5605C38.1227 36.7266 37.1302 35.3954 36.0754 34.1557C35.3098 33.2587 34.5498 33.3673 33.8126 34.2528C33.58 34.5328 33.3872 34.8527 33.1547 35.1384C32.9278 35.424 32.6783 35.6925 32.4515 35.9553H32.4458Z" fill="white"/>
<path fill-rule="evenodd" clip-rule="evenodd" d="M53.6297 40.3031C53.0796 40.8401 52.5351 41.3657 52.0644 41.8228C50.8224 41.3886 51.3215 40.3602 50.9302 39.5547C48.4632 38.9034 47.1418 40.4573 46.0359 42.3712C45.3043 41.5028 45.2192 41.0401 45.7863 40.4173C46.983 39.109 49.518 37.5665 51.7638 38.9548C52.0417 39.1262 52.4444 39.1947 52.779 39.1604C53.9983 39.0462 55.8812 40.3773 56.0173 41.5714C56.0456 41.7999 55.694 42.297 55.6203 42.2741C55.2573 42.177 54.7809 42.0342 54.6165 41.7485C54.3216 41.2343 54.4634 40.4402 53.624 40.2974L53.6297 40.3031Z" fill="white"/>
<path fill-rule="evenodd" clip-rule="evenodd" d="M47.4875 34.664C47.1245 34.904 46.7502 35.1268 46.3986 35.3896C45.6557 35.9552 45.1906 35.7781 45.0035 34.8354C44.9638 34.6297 45.0488 34.3441 44.9411 34.207C44.6178 33.8242 44.2776 33.3271 43.8522 33.2072C43.5176 33.11 42.9562 33.4071 42.6499 33.6928C42.3266 33.9899 42.1849 34.4869 41.941 34.944C41.4986 34.0698 41.544 33.5157 42.0828 32.8187C42.5478 32.2074 43.149 31.9388 43.8976 32.1788C44.2492 32.2931 44.6405 32.4245 44.8787 32.6816C45.5139 33.3614 46.2568 33.5671 47.1585 33.5385C48.0262 33.51 48.7238 33.8927 48.9677 34.7954C49.2456 35.8181 48.8599 36.6065 47.8675 37.5092V34.9497C47.7427 34.8583 47.6122 34.7669 47.4875 34.6697V34.664Z" fill="white"/>
<path fill-rule="evenodd" clip-rule="evenodd" d="M50.2308 30.9106C49.9926 30.2707 50.1628 29.7908 50.6788 29.368C52.4313 27.934 55.5788 28.9224 56.1119 31.1219C56.214 31.5333 56.0779 32.0475 55.9021 32.4531C55.8453 32.5902 55.1761 32.6645 55.0514 32.5217C54.7735 32.2074 54.5183 31.7504 54.5069 31.339C54.4559 29.8936 53.9398 29.3509 52.5787 29.7165C51.8017 29.9279 51.1042 30.4535 50.2365 30.9048L50.2308 30.9106Z" fill="white"/>
</g>
<defs>
<clipPath id="clip0_3219_3137">
<rect width="64" height="58" fill="white" transform="translate(16 12)"/>
</clipPath>
</defs>
</svg>
