<svg width="88" height="88" viewBox="0 0 88 88" fill="none" xmlns="http://www.w3.org/2000/svg">
<circle cx="44" cy="44" r="44" fill="#A92966"/>
<g clip-path="url(#clip0_3219_3134)">
<path d="M32.018 25.8061C28.0217 25.9943 29.1353 22.7869 29.072 20.0302C28.7697 16.7414 31.2889 17.3287 33.6215 17.5048C40.1766 18.1696 46.7576 18.4335 53.3343 18.77C55.3678 19.2859 63.4446 18.0946 63.3817 20.6426C63.4957 22.7194 62.8605 24.7498 62.7768 26.8192C62.7887 28.6759 60.7259 27.9699 59.5108 27.9881C59.5209 30.2729 61.6711 31.5193 63.3158 32.6695C68.1327 35.7942 64.7619 51.7792 65.1778 57.6586C64.8427 75.6957 57.536 74.3015 42.5633 73.3095C38.0529 72.6796 33.2794 72.9012 28.9781 71.2903C22.1544 67.268 24.0311 57.6213 24.2541 50.9127C25.2048 45.3023 23.6183 32.4736 30.0766 30.4462C31.8949 29.772 31.789 27.5223 32.0181 25.804L32.018 25.8061ZM27.4473 36.3493C26.2852 44.8244 25.2749 53.5417 25.8455 62.1061C38.073 64.7173 50.3519 65.2295 62.8062 64.7179C63.8764 56.0684 64.0749 47.3567 64.2239 38.6528C51.8238 38.9684 39.7265 38.1566 27.4451 36.3513L27.4473 36.3493ZM33.4583 25.9424C33.344 34.7083 28.7261 30.1225 27.86 35.2027C39.8866 36.8516 51.9844 37.6164 64.1365 37.4253C64.0761 33.0311 57.9125 32.4814 58.1866 27.833C49.974 27.064 41.7691 26.5267 33.4583 25.9424ZM62.5572 65.8699C50.1381 67.3019 38.1441 65.9674 25.9925 63.5148C26.4015 66.9448 28.4789 70.2933 32.2205 70.4133C38.3931 71.1733 44.5815 71.7737 50.8049 71.9245C55.9936 72.0313 61.3995 72.2837 62.5572 65.8699ZM55.3391 20.1705C55.0585 21.3163 54.7431 25.2559 54.8771 25.9103L57.0485 26.0383C57.1962 24.1118 57.342 22.2173 57.4426 20.2945L55.3369 20.1703L55.3391 20.1705ZM43.8071 25.1612L45.8235 25.2801C45.8706 23.3627 45.9159 21.5093 45.9616 19.6518L43.8538 19.5275C43.839 21.4404 43.8234 23.2955 43.8071 25.1612ZM54.2949 20.1431L52.4588 20.0349C52.2305 21.9566 52.1011 23.8264 52.0116 25.7049L53.9601 25.8198L54.2949 20.1431ZM51.0768 25.6284L51.4123 19.9389C50.7297 19.9201 50.0939 19.7927 49.3727 19.8872C49.4529 21.8142 49.2816 23.6708 49.383 25.5285L51.0768 25.6284ZM46.9995 19.713C46.7825 20.5393 46.5695 24.7654 46.7141 25.3476L48.3379 25.4434C48.3464 23.5301 48.3557 21.6746 48.3665 19.7936L47.0016 19.7131L46.9995 19.713ZM34.2779 24.6507C34.2991 22.8452 34.3207 21.1061 34.3446 19.3285L32.7272 19.2332C32.7319 21.0316 32.734 22.7657 32.739 24.5599L34.28 24.6508L34.2779 24.6507ZM41.7139 19.4077L41.3821 25.0353L43.061 25.1343C43.0322 23.2039 43.0035 21.3419 42.9747 19.4821L41.7139 19.4077ZM59.2698 26.2228C59.4636 24.2734 59.6542 22.3772 59.8431 20.4746L58.3997 20.3895C58.1448 21.8943 57.9018 25.547 58.0239 26.1494L59.2677 26.2227L59.2698 26.2228ZM38.8076 24.952C38.7794 23.0815 38.7524 21.301 38.7233 19.5182L37.333 19.4362C37.3106 21.2973 37.2867 23.0749 37.2644 24.861L38.8055 24.9519L38.8076 24.952ZM35.1712 19.3259C35.1023 21.18 35.0369 22.9401 34.9697 24.73L36.481 24.8191C36.4746 22.9756 36.4711 21.1943 36.466 19.4022L35.1712 19.3259ZM60.8207 20.4744C60.6277 22.4839 60.4474 24.3849 60.2611 26.3177L61.2502 26.376C61.6077 24.4662 62.1425 22.6224 62.0127 20.6325C61.5963 20.578 61.2666 20.535 60.8186 20.4743L60.8207 20.4744ZM30.7001 19.15C30.6075 20.7201 30.5124 22.1895 30.4469 23.6606C30.5287 24.2969 31.3929 24.3778 31.9415 24.2496C31.9258 22.5661 31.9087 20.9039 31.8909 19.2202L30.7001 19.15ZM39.5364 19.4549C39.5493 21.3309 39.5603 23.1319 39.5745 24.9502L40.536 25.0069C40.5801 23.1385 40.6226 21.3342 40.6669 19.4637C40.2752 19.4599 39.9495 19.4578 39.5385 19.455L39.5364 19.4549Z" fill="white"/>
<path d="M34.4469 50.2445C34.4425 50.7538 34.4193 52.5913 33.6009 51.7338C33.4268 49.9896 33.7527 48.1828 33.8011 46.4238C34.5226 43.3623 38.3096 47.8071 35.1961 49.1713C35.7774 50.1132 36.7983 50.6807 37.4649 51.5485C37.5632 53.2776 35.0832 50.5432 34.615 50.1752C34.5583 50.1976 34.5015 50.2221 34.4448 50.2444L34.4469 50.2445ZM34.5304 48.4684C35.7163 48.0438 35.8679 46.5564 34.65 46.4396L34.5304 48.4684Z" fill="white"/>
<path d="M58.0455 48.7888C57.7041 49.702 58.2202 52.7252 57.3353 52.8849C56.7247 51.6458 57.2947 49.8534 57.15 48.4427C57.1704 47.988 57.32 47.4381 57.8326 47.342C59.2477 47.5089 58.9225 49.7375 59.6924 50.6948C59.9175 50.1644 60.2054 46.51 61.0961 47.9133C60.9413 48.8761 60.8785 52.8669 59.8513 52.9134C58.7388 52.4903 58.8574 49.83 58.0434 48.7887L58.0455 48.7888Z" fill="white"/>
<path d="M38.3621 49.4906C39.3256 44.0244 43.074 47.0647 41.81 51.0532C40.3574 54.0138 38.3931 51.9628 38.3621 49.4906ZM40.517 47.0809C39.4412 48.2398 38.7019 50.3754 40.0122 51.416C41.5163 51.0488 40.9467 48.2108 40.517 47.0809Z" fill="white"/>
<path d="M49.5567 49.241C52.4252 49.575 52.4211 51.054 49.4574 50.0572L49.3329 52.1692C53.4314 52.2332 53.1907 53.7517 49.251 53.1962C47.4642 53.0116 48.8716 49.4447 48.7459 48.1807C48.7391 46.6347 51.0139 46.7431 51.862 47.4589C50.9751 48.5562 49.3625 47.0075 49.5565 49.2432L49.5567 49.241Z" fill="white"/>
<path d="M29.7938 49.3364C29.6006 50.0828 30.0324 51.2492 29.3632 51.6529C28.907 51.6966 28.8837 51.1515 28.854 50.8244C29.2621 49.2493 28.3878 46.1965 30.059 45.4152C33.1624 45.0181 33.1308 49.9613 29.7939 49.3342L29.7938 49.3364ZM29.8778 48.4893C32.9116 48.5483 30.8908 44.8199 30.0008 46.6919C29.8911 47.2528 29.9161 47.8387 29.8778 48.4893Z" fill="white"/>
<path d="M44.4932 47.3347C43.7702 47.2771 41.9144 46.4569 43.689 46.3432C44.7786 46.6472 46.6405 46.1726 47.2866 47.2083C46.8969 47.8939 45.9738 47.437 45.2928 47.4996C44.9756 54.7208 42.8416 53.6701 44.4932 47.3347Z" fill="white"/>
<path d="M55.6313 47.6874C55.4399 49.0911 55.2587 50.4291 55.0697 51.8287C57.9631 53.151 50.9729 53 54.4208 51.8889C54.236 50.4352 54.5606 49.0479 54.862 47.6206C54.3048 47.5343 53.9274 47.542 53.6073 47.0821C54.2812 46.4904 55.2807 46.9496 56.105 46.8783C56.3408 46.888 56.446 47.1639 56.6125 47.3021C56.3259 47.6106 56.0725 47.7177 55.6313 47.6874Z" fill="white"/>
<path d="M55.7314 28.245C56.2376 28.763 56.1535 29.214 56.3826 29.8076C57.5204 32.2937 60.8353 33.5103 61.2276 36.3934C61.075 36.9217 60.5635 36.5298 60.4852 36.1613C59.2931 33.368 54.3476 31.8091 55.7293 28.2449L55.7314 28.245Z" fill="white"/>
<path d="M28.5694 64.9257C29.0888 64.389 29.4086 65.322 29.7525 65.5948C30.3477 66.4819 31.4697 67.1775 31.7133 68.2108C30.1847 68.1635 29.1479 66.2399 28.5694 64.9257Z" fill="white"/>
</g>
<defs>
<clipPath id="clip0_3219_3134">
<rect width="41.3029" height="55.2927" fill="white" transform="translate(26.2539 17) rotate(3.37461)"/>
</clipPath>
</defs>
</svg>
