<svg width="88" height="88" viewBox="0 0 88 88" fill="none" xmlns="http://www.w3.org/2000/svg">
<circle cx="44" cy="44" r="44" fill="#A92966"/>
<g clip-path="url(#clip0_3219_3138)">
<path fill-rule="evenodd" clip-rule="evenodd" d="M62.9636 42.6238C62.3104 43.0173 61.7179 43.3288 61.1746 43.7066C59.8585 44.6244 58.4941 45.4966 57.2886 46.5423C56.6105 47.1325 56.1655 48.006 55.6846 48.7969C55.2555 49.5079 54.9152 50.2686 54.5554 51.0185C53.5142 53.1784 52.484 55.3452 51.4369 57.5044C50.6635 59.1075 49.5369 60.4566 48.0948 61.4354C46.4052 62.5806 44.6504 63.6726 42.7975 64.5091C41.4468 65.119 39.8965 65.3112 38.4252 65.6253C37.7345 65.7721 37.0069 65.8158 36.2986 65.8115C35.5993 65.8051 34.8887 65.7333 34.2055 65.5909C32.4259 65.2191 30.6597 64.7988 28.8898 64.387C28.4602 64.2867 27.9876 64.2379 27.6157 64.0261C26.3475 63.3028 25.0634 62.5925 23.8842 61.7371C22.7401 60.9116 22.4524 59.4399 21.6579 58.3319C20.8477 57.2049 20.425 55.7963 20.4183 54.5363C20.406 52.6403 20.4396 50.6639 21.3975 48.8503C22.0329 47.6439 22.3642 46.282 22.8633 45.0008C23.0231 44.5917 23.2094 44.15 23.5058 43.8419C24.1017 43.2233 24.6722 42.6255 24.8912 41.7565C24.9486 41.5278 25.2021 41.3298 25.3895 41.1488C26.5525 40.058 27.8563 39.0863 28.8649 37.8662C30.2687 36.1662 32.1989 35.2875 33.9566 34.1342C34.4039 33.8409 34.8736 33.5877 35.3339 33.3102C37.0683 32.2777 38.932 31.4804 40.8708 31.0271C42.3603 30.6767 43.3855 29.7687 44.5159 28.9237C45.078 28.5038 45.6594 28.0945 46.2774 27.762C47.9587 26.8533 49.6152 25.8689 51.3715 25.1226C54.1385 23.9502 56.9007 22.6162 60.0244 22.7787C61.0354 22.8328 62.0521 23.0691 63.0257 23.3568C63.8772 23.6064 64.2758 24.8106 63.8404 25.6762C63.5001 26.3461 63.1181 27.0236 62.6171 27.5695C62.1814 28.0456 61.5978 28.4458 61.004 28.7104C59.4607 29.4041 57.8622 29.9724 56.3148 30.6481C54.4282 31.4696 53.0455 32.9228 51.7646 34.4737C51.1973 35.1596 50.6957 35.8928 50.5755 36.83C50.4481 37.8105 50.7945 38.4971 51.7414 38.5773C52.4641 38.6445 53.2984 38.5877 53.9367 38.2865C56.7555 36.9434 58.9926 34.8029 61.0501 32.522C62.5661 30.8416 64.3817 29.7263 66.4381 28.9359C67.3597 28.5831 67.9951 28.9464 68.2288 29.9179C68.4764 30.9581 68.5831 32.0023 68.3211 33.0722C67.7293 35.4601 67.0874 37.8198 65.4753 39.7661C64.6528 40.7582 63.7814 41.7104 62.9816 42.6197L62.9636 42.6238ZM54.2297 41.4251C53.9173 41.5969 53.6952 41.833 53.5043 41.8087C52.0274 41.6361 50.6208 41.2829 49.685 39.9709C49.4788 39.6815 49.2796 39.381 49.0479 39.1126C47.6014 37.4201 47.3253 35.4956 47.9001 33.4047C47.9541 33.2108 48.1845 33.0691 48.5554 32.657C48.3325 34.2608 47.9393 35.5669 48.8953 36.7607C49.0645 36.1036 49.028 35.4235 49.1781 34.7821C49.3585 34.0089 49.6376 33.2452 49.9855 32.5263C50.2822 31.9138 50.3511 31.0829 51.4688 30.67C51.0281 31.7108 50.7041 32.4848 50.3775 33.2555C50.4595 33.3162 50.5388 33.3737 50.6208 33.4343C50.9009 33.2038 51.2188 33.0062 51.4526 32.739C53.0668 30.8924 55.0005 29.5249 57.3076 28.6564C59.0369 28.007 60.8626 27.4813 62.0442 25.7773C61.8892 25.6539 61.717 25.4058 61.5639 25.4144C60.4651 25.4806 59.3711 25.105 58.2635 25.5042C57.305 25.8447 56.2884 26.0301 55.3024 26.2918C54.9144 26.3976 54.5054 26.478 54.1564 26.6638C52.7374 27.4047 51.2974 28.1202 49.9364 28.9575C47.7436 30.3086 45.624 31.7811 43.4332 33.1412C42.4202 33.7722 41.3032 34.2378 40.2541 34.8184C38.4228 35.8239 36.6817 37.0168 34.7698 37.827C33.3898 38.4077 32.1409 39.1153 30.956 39.9785C29.4403 41.082 28.0221 42.2974 27.0911 43.9555C26.4823 45.0386 25.9845 46.1851 25.4257 47.2965C25.1004 47.9327 24.8807 48.5673 25.3301 49.2172C24.0697 49.8329 23.1066 50.6737 22.7982 51.9206C22.4741 53.2392 22.3643 54.6431 22.892 55.9653C23.2149 56.7727 23.6256 57.5505 24.0464 58.3147C24.2537 58.6833 24.5291 59.0439 24.8574 59.313C25.7796 60.0702 26.7317 60.7922 27.6981 61.4863C28.0844 61.761 28.5306 61.9917 28.9821 62.138C29.8539 62.4188 30.7456 62.6458 31.6416 62.8587C34.0834 63.4382 36.5376 63.2868 38.9287 62.6695C42.35 61.786 45.092 59.8761 47.2359 57.0061C48.7572 54.969 49.8898 52.7126 51.2723 50.5975C51.486 50.2668 51.5456 49.8333 51.7703 49.5095C53.2299 47.3844 54.6543 45.2295 56.2121 43.1784C57.4981 41.4845 58.8166 39.8171 60.6461 38.5889C62.0436 37.6468 63.0927 36.2813 63.8952 34.7719C64.2176 34.1647 64.3738 32.2529 64.1262 31.3942C61.3615 33.9316 58.9452 36.7107 56.0518 38.8841C56.2125 39.2804 56.3107 39.536 56.4121 39.7889C55.5932 40.26 54.8821 40.4663 54.0481 40.0369C53.6019 39.8062 53.1055 39.9425 52.7313 40.5388C53.2305 40.8274 53.6744 41.0813 54.243 41.4088L54.2297 41.4251ZM56.4504 44.9791C56.897 44.7823 57.099 44.7228 57.2739 44.6109C58.0952 44.0844 58.9296 43.5738 59.7116 42.9995C60.9659 42.0844 62.2627 41.2145 63.3928 40.1615C65.2729 38.411 66.0887 36.0097 66.8935 33.66C67.2245 32.6934 67.3257 31.5904 66.5806 30.5165C66.3132 30.7366 65.9719 30.8733 65.9131 31.0873C65.6383 32.109 65.4346 33.1523 65.2024 34.187C65.095 34.6598 64.9987 35.1396 64.8492 35.5936C64.2155 37.5675 62.5712 38.7288 61.0971 39.9476C59.3836 41.3687 57.9419 42.9772 56.4483 44.9701L56.4504 44.9791ZM40.2005 63.7476C40.2233 63.8142 40.2462 63.8808 40.2664 63.9443C40.5893 63.8761 40.9361 63.8629 41.233 63.7306C41.8019 63.4812 42.32 63.0922 42.9012 62.8967C44.7079 62.2959 46.1339 61.09 47.6814 60.0511C48.5649 59.4574 49.2743 58.756 49.7469 57.8384C50.8007 55.791 51.8071 53.7186 52.8193 51.6467C52.9064 51.4735 52.8956 51.2529 52.9777 50.7688C52.5703 51.1042 52.3268 51.2299 52.1962 51.4281C51.6849 52.2014 51.2034 52.9981 50.722 53.7949C49.4355 55.9163 48.2956 58.1573 46.4107 59.8371C45.0288 61.0707 43.697 62.3911 41.876 63.0198C41.3031 63.219 40.7599 63.506 40.2031 63.7507L40.2005 63.7476ZM42.5349 32.2575C37.5525 33.2033 33.3077 35.4799 29.5081 38.8746C29.7804 38.9654 29.8655 39.0235 29.9342 39.0096C30.0627 38.984 30.2044 38.9421 30.2946 38.8572C31.535 37.724 33.0655 37.1316 34.5878 36.5032C35.6921 36.048 36.7637 35.5077 37.8169 34.9451C38.9078 34.3568 39.9537 33.6881 41.0274 33.066C41.5179 32.7797 42.0314 32.5279 42.5349 32.2575ZM25.2872 44.0148C24.2665 44.6947 23.3004 46.654 23.1551 48.151C23.8191 47.7966 25.0605 45.4453 25.2872 44.0148Z" fill="white"/>
<path fill-rule="evenodd" clip-rule="evenodd" d="M24.4751 55.5156C25.2326 54.8921 25.8514 54.4309 26.4151 53.9028C27.0049 53.3479 27.4127 52.6758 27.5312 51.756C27.1698 51.7385 26.8712 51.7066 26.5745 51.7159C26.2657 51.7299 25.9549 51.7935 25.6079 51.8389C25.6845 50.9589 25.9058 50.7608 26.5712 50.7843C28.2255 50.8482 29.5203 49.9693 30.711 48.9251C30.7715 48.8753 30.7996 48.7667 30.8075 48.6855C30.8153 48.6042 30.771 48.5179 30.7106 48.2954C29.9534 48.6143 29.2279 48.9979 28.4539 49.2186C27.6708 49.4413 26.836 49.5039 25.9798 49.5145C26.7429 48.1389 28.5875 48.5053 29.5449 47.1192C29.1795 46.4483 28.8085 45.6538 28.331 44.9309C28.06 44.5239 27.8143 44.219 28.4177 43.6742C28.893 44.511 29.3634 45.2771 29.775 46.0755C30.317 47.1297 30.7561 47.4036 32.0413 47.3175C32.1632 46.1813 31.695 44.9703 32.3963 43.5975C32.4988 44.2019 32.6022 44.5546 32.6143 44.913C32.6671 46.3005 33.568 47.2781 34.2609 48.3469C34.4701 48.6659 34.8323 49.1579 35.3547 48.7547C35.7789 48.4268 35.4904 48.0503 35.3364 47.6752C34.4199 45.4396 34.4214 43.0998 34.5972 40.7447C34.6039 40.6751 34.6956 40.6049 34.7625 40.5499C34.7879 40.529 34.8428 40.5372 34.9579 40.5279C35.3758 40.9901 34.8849 41.5224 35.0023 42.0023C35.093 42.3655 35.2254 42.721 35.3399 43.0806C35.7319 42.9341 36.2536 42.8998 36.4886 42.6209C37.0516 41.9493 37.5064 41.1851 37.9491 40.4256C38.2132 39.968 38.3327 39.3998 39.1432 39.5282C39.1308 39.7466 39.1895 39.9866 39.0983 40.1417C38.6066 40.9843 38.0338 41.7868 37.5699 42.6438C37.1776 43.3672 36.7153 43.9667 35.9953 44.4152C35.7214 44.5819 35.4725 45.0644 35.4975 45.3802C35.5547 46.0593 35.7977 46.7242 35.9409 47.3004C36.2361 47.3671 36.3444 47.4274 36.4058 47.3982C37.6538 46.7608 39.0764 46.7377 40.3542 46.3052C41.6172 45.8743 42.6988 44.8985 43.8445 44.137C44.8403 43.4721 45.8 42.757 46.801 42.0985C46.9356 42.009 47.2742 42.0507 47.3923 42.1617C47.5209 42.2855 47.535 42.5621 47.5327 42.7669C47.5316 42.8693 47.3942 42.9878 47.2955 43.069C46.198 43.967 45.1105 44.8836 43.981 45.7492C43.2248 46.3289 42.6111 46.9195 42.3106 47.9037C42.0722 48.6713 41.4728 49.3248 41.0075 50.0762C41.175 50.1305 41.3285 50.2391 41.3968 50.1989C42.2776 49.6928 43.1735 49.5747 44.1964 49.7471C44.5682 49.8096 45.148 49.3269 45.4543 48.9467C46.3169 47.8735 47.3255 47.7107 48.6499 48.217C48.1749 48.7362 47.5723 48.6982 47.0576 48.8123C46.1057 49.0245 45.614 49.5947 45.4318 50.5669C45.9321 50.8439 46.3987 51.1059 46.8685 51.3652C46.8542 51.4517 46.8374 51.535 46.8231 51.6215C46.5562 51.6863 46.2623 51.8482 46.0214 51.7955C45.5486 51.6882 45.0943 51.4801 44.6479 51.2816C43.8147 50.905 42.9951 50.5385 42.1453 51.2379C40.337 50.8897 39.2584 52.5891 37.7864 52.7597C37.9619 53.667 38.2371 54.5137 38.2683 55.3689C38.3117 56.5826 38.6605 57.5448 39.7483 58.1658C39.8482 58.2223 39.9012 58.371 40.0142 58.5342C39.5147 58.9133 39.1938 58.5689 38.8537 58.3309C38.1775 57.8553 37.492 57.8571 36.7973 58.3364C36.43 58.5907 36.0627 58.845 35.675 59.068C35.1755 59.3563 34.8471 59.7228 34.846 60.3377C34.8427 60.885 34.592 61.2355 33.7843 61.3504C34.0848 60.0032 34.3556 58.7819 34.661 57.4146C35.0797 57.6572 35.3958 57.8402 35.6956 58.0099C37.4993 56.5946 38.0065 56.1665 36.8414 53.1424C35.4882 53.2044 34.4597 53.9657 33.464 54.7799C31.7497 56.1803 30.0426 57.5962 28.2889 59.0397C27.8641 58.77 27.538 58.5686 27.2509 58.3884C27.0549 57.813 27.7077 56.6082 28.2912 56.5711C28.9871 56.5215 29.3921 56.1508 29.8682 55.7108C30.9861 54.6625 32.2216 53.731 33.3447 52.689C34.1781 51.9176 34.604 50.8783 34.9288 49.794C34.453 49.4755 34.0385 49.16 33.5919 48.9029C32.8435 48.4671 32.2602 48.5628 31.7874 49.3311C31.1962 50.2929 30.3429 50.8779 29.3534 51.2973C28.7824 51.5377 28.501 51.9028 28.2362 52.4892C27.7884 53.4825 27.1252 54.4021 26.4548 55.2743C26.0729 55.7702 25.4727 56.04 24.4856 55.5284L24.4751 55.5156ZM36.5276 50.2185C36.9867 50.6789 37.2589 50.9513 37.5155 51.2047C38.5215 50.9479 39.3198 50.4777 39.6229 49.4967C39.7257 49.1611 39.6948 48.6046 39.4822 48.4112C39.2774 48.2274 38.653 48.2341 38.4096 48.4185C37.7585 48.9117 37.2168 49.5445 36.5302 50.2217L36.5276 50.2185Z" fill="white"/>
<path fill-rule="evenodd" clip-rule="evenodd" d="M39.3394 53.2705C39.9447 54.0643 40.3395 54.7645 40.9017 55.2788C41.4959 55.8255 42.2537 56.1948 43.0029 56.6834C42.1703 57.5075 41.6061 56.7119 41.1249 56.4192C40.0731 55.79 39.1507 54.9742 39.3399 53.2647L39.3394 53.2705Z" fill="white"/>
</g>
<defs>
<clipPath id="clip0_3219_3138">
<rect width="30.6162" height="54.913" fill="white" transform="translate(33.457 73.5369) rotate(-129.459)"/>
</clipPath>
</defs>
</svg>
