<svg width="88" height="88" viewBox="0 0 88 88" fill="none" xmlns="http://www.w3.org/2000/svg">
<circle cx="44" cy="44" r="44" fill="#A92966"/>
<g clip-path="url(#clip0_3219_3135)">
<path fill-rule="evenodd" clip-rule="evenodd" d="M31.782 46.1784C32.1418 46.4116 32.5019 46.6496 32.8617 46.8828C32.8371 46.9561 32.8074 47.0249 32.7827 47.0982C32.4379 47.0414 32.0928 46.9799 31.3885 46.8624C34.3888 48.8361 37.5965 49.6524 40.2604 51.5496C37.6397 51.4853 35.1895 50.4575 32.5447 50.3082C32.6253 50.5384 32.6387 50.6862 32.6824 50.6932C34.0236 50.9273 35.2247 51.3995 36.3228 52.2561C37.0984 52.8583 38.0754 53.1996 38.9541 53.6712C39.232 53.8181 39.4884 54.0094 39.637 54.4177C38.204 53.8439 36.771 53.2701 35.0821 52.5961C35.4061 53.2099 35.5786 53.5306 35.8326 54.0144C35.2801 54.0271 34.8813 54.0357 34.209 54.0554C34.7168 54.3519 34.9785 54.5524 35.2742 54.6743C37.3983 55.5533 39.5306 56.4077 41.6505 57.2965C42.1533 57.5071 42.6318 57.7957 43.0917 58.095C43.5912 58.416 43.8766 58.8596 43.5736 59.6102C42.0505 59.9761 40.7687 58.9383 39.3014 58.6876C39.3107 58.9315 39.3141 59.1565 39.3263 59.5343C37.7152 59.0427 36.1625 58.5621 34.5368 58.0665C34.8762 58.7801 34.8677 58.7998 36.3035 59.4213C37.0831 59.7597 37.9136 59.9801 38.6975 60.3086C39.4323 60.6208 40.1334 61.0164 40.8603 61.3578C41.5821 61.6947 42.3121 62.0072 43.1069 62.359C43.1187 62.5644 43.1616 62.8063 43.1466 63.0468C43.0229 64.6545 42.8863 64.7055 41.3262 64.0959C40.219 63.6662 39.0784 63.3248 37.9506 62.9538C37.8869 62.9335 37.7818 63.0306 37.4824 63.1773C38.9581 63.9068 40.293 64.6156 41.6662 65.236C42.7231 65.7116 42.9127 65.9116 42.9122 67.3204C40.4692 66.4168 38.2584 65.2027 36.002 64.1157C33.6614 62.9858 31.3634 61.7623 29.1048 60.4694C26.9459 59.2379 24.8653 57.8629 22.7102 56.5305C22.3688 57.2834 22.8179 57.6456 23.144 57.9622C23.6028 58.4102 24.1399 58.7961 24.6888 59.1382C26.5014 60.289 28.2932 61.4938 30.176 62.5256C32.1033 63.5788 34.1219 64.4639 36.1097 65.3986C38.0085 66.2905 39.9324 67.1187 41.8224 68.0255C43.1087 68.6413 44.4965 69.0979 45.5388 70.1542C45.6664 70.2811 45.9778 70.2583 46.2037 70.2548C50.8071 70.1664 55.4137 70.049 60.018 69.9749C63.2717 69.9213 66.2505 68.9395 68.9936 67.2908C69.6445 66.8987 70.1233 66.0276 70.4165 65.2727C71.2541 63.1159 71.1426 60.8509 70.6167 58.6578C70.3321 57.4762 70.3279 56.3216 70.3664 55.1549C70.4331 53.1432 70.654 51.1369 70.7641 49.1275C70.8288 47.9977 70.6758 46.8468 70.8521 45.7345C70.9679 44.9898 71.3662 44.2241 71.8363 43.6171C72.9333 42.2024 73.4277 40.6836 73.0848 38.9111C73.0773 38.8637 73.0788 38.8061 73.0571 38.7642C72.2562 37.4735 71.5453 36.1584 71.4309 34.5932C71.421 34.4212 71.1139 34.185 70.9038 34.13C67.933 33.3335 65.3539 31.6566 62.5579 30.4715C61.552 30.0456 60.6306 29.4183 59.6164 29.0168C58.6465 28.6319 57.5671 28.5169 56.6105 28.1121C54.8204 27.3529 53.0861 26.4754 51.3342 25.6277C49.1319 24.5616 46.9421 23.4613 44.7308 22.4053C42.9846 21.5717 41.2202 20.7582 39.44 20.0032C38.9716 19.805 38.3959 19.8335 37.8652 19.8066C37.5178 19.7883 37.16 19.924 36.8163 19.8863C34.2951 19.6293 31.8346 20.2553 29.357 20.5038C27.5349 20.6904 25.7518 21.3013 23.9542 21.7453C23.1336 21.946 22.3344 22.3516 21.5102 22.4087C19.5887 22.5388 18.2971 23.7491 17.097 24.9589C15.6195 26.4482 14.726 28.2201 15.2379 30.5051C15.4449 31.4228 15.261 32.4877 15.0068 33.4176C14.8115 34.1189 14.8925 34.7708 14.8352 35.445C14.7441 36.5332 15.3182 37.2285 16.002 37.9078C17.0072 38.904 18.0403 39.8842 19.0229 40.9057C20.8549 42.8078 21.4858 45.1531 21.4652 47.7132C21.4481 50 21.4163 52.2828 21.3605 54.567C21.3439 55.1957 21.4146 55.6709 22.3188 55.6666C22.5284 52.3815 23.1774 49.1238 22.7322 45.6609C23.0753 45.7705 23.3958 45.8239 23.6689 45.9711C24.2402 46.2831 24.7939 46.6249 25.3343 46.9867C26.1545 47.5287 26.9816 47.7733 27.918 47.0771C26.093 46.296 24.2976 45.5275 22.5019 44.7542C22.5381 44.6323 22.5744 44.5104 22.6157 44.393C23.1604 44.4957 23.7051 44.5985 24.2499 44.7012C24.2987 44.6313 24.3476 44.5614 24.3965 44.4915C23.9542 44.1624 23.5118 43.8333 23.0695 43.5042C23.1125 43.4155 23.1504 43.3223 23.1883 43.229C23.6383 43.3564 24.11 43.4442 24.5387 43.6207C26.0661 44.2465 27.6376 44.8027 29.083 45.5914C29.9772 46.0813 30.8586 46.1838 31.8087 46.2248C30.7141 45.6794 29.637 45.1042 28.5299 44.5931C27.4524 44.0946 26.328 43.6995 25.2454 43.1965C24.1727 42.6978 23.2476 41.9222 21.9628 41.8334C21.3349 41.7882 20.8931 41.2195 20.7199 40.3861C21.7644 40.4791 22.4741 41.0228 23.2206 41.4541C25.5598 42.8094 28.0169 43.9566 30.6688 44.4792C32.8099 44.9019 34.6814 45.9056 36.6559 46.6925C36.7002 46.7092 36.6893 46.8535 36.7385 47.1238C35.7681 46.8971 34.8646 46.6618 33.9548 46.4843C33.2299 46.344 32.49 46.2765 31.7532 46.1801L31.782 46.1784ZM69.0258 45.0971C69.839 47.1012 69.4517 49.3087 69.2629 51.5383C69.0603 53.946 68.7658 56.3446 69.1963 58.8021C69.4902 60.4767 69.7084 62.2563 69.2171 63.9954C68.8893 65.15 68.2222 66.0942 67.1468 66.5493C65.4704 67.2594 63.7975 67.9454 61.9179 68.1354C57.2789 68.6092 52.6453 68.9246 48.0013 68.3109C47.0801 68.1868 46.1613 67.9379 45.2869 67.6242C44.9825 67.5172 44.6591 67.0806 44.5966 66.7488C44.4263 65.8817 44.2292 64.9682 44.3432 64.1086C44.6075 62.1047 44.7248 60.0517 45.6193 58.1312C45.1703 57.2706 44.6723 56.3937 45.2809 55.3522C45.3945 55.154 45.2723 54.7873 45.1895 54.5189C45.0668 54.1426 44.7826 53.8044 44.7273 53.429C44.4906 51.8278 44.3108 50.2137 44.15 48.9291C43.1047 47.9879 42.0751 47.3189 41.4204 46.3936C40.9281 45.6984 40.6173 44.8154 40.8393 43.7436C41.1864 42.0895 42.1152 41.0966 43.5496 40.4435C45.4526 39.5766 47.3065 38.607 49.3956 38.2132C50.5189 38.0046 51.6383 37.7292 52.7414 37.4211C54.5593 36.9136 56.3302 36.1741 58.2861 36.5547C58.4271 36.5802 58.6095 36.5744 58.7255 36.5006C59.6036 35.9612 60.565 36.198 61.5016 36.1727C64.5519 36.0972 67.4664 36.6669 70.21 38.0276C71.5966 38.7143 71.8225 39.1278 71.6305 40.634C71.5669 41.1168 71.4283 41.6328 71.1729 42.0405C70.5426 43.0401 69.8273 43.9823 69.0356 45.1014L69.0258 45.0971ZM39.3267 46.3754C39.2285 46.4242 39.1303 46.473 39.0369 46.5216C38.6603 46.4139 38.2706 46.331 37.9067 46.1938C35.7524 45.3742 33.5895 44.5742 31.4567 43.7101C29.841 43.0558 28.2636 42.3131 26.6561 41.6344C26.1533 41.4238 25.5542 41.0463 25.1088 41.163C24.2181 41.4013 23.6812 40.9339 23.067 40.5429C22.0979 39.9232 21.1597 39.2537 20.1816 38.6441C19.3481 38.122 18.6434 37.4151 17.5969 37.2024C17.1977 37.12 16.6887 36.6366 16.5744 36.2407C16.2258 35.034 15.7902 33.8228 16.4116 32.5027C16.6986 31.8919 16.8358 30.9352 16.5495 30.3911C15.9542 29.2466 16.3536 28.3322 16.8802 27.4536C17.6179 26.2322 18.8242 25.4629 20.0331 24.7367C22.1716 23.4488 24.6807 23.2464 26.9942 22.4899C28.963 21.8443 31.0468 21.3599 33.1849 21.4808C33.3778 21.4889 33.5723 21.3578 33.7689 21.3465C36.7955 21.1095 39.6863 21.0193 42.5938 22.5526C48.3443 25.5847 54.2766 28.266 60.1524 31.0512C62.9468 32.3754 65.7933 33.6008 68.605 34.8905C68.8175 34.9884 68.9528 35.249 69.2969 35.6268C68.7865 35.618 68.5207 35.6812 68.3186 35.5971C65.2173 34.2905 61.9157 34.7639 58.6946 34.5473C57.9219 34.496 57.104 34.9937 56.3483 34.9031C54.992 34.7418 53.8534 35.2676 52.6385 35.6396C51.986 35.8354 51.2848 35.8567 50.6098 35.9963C50.1819 36.0833 49.7671 36.2319 49.3518 36.3708C48.8329 36.5493 48.3307 36.7652 47.8107 36.9246C44.9081 37.811 42.08 38.7362 39.9952 41.2046C39.4099 41.8997 39.6657 42.5798 39.3275 43.2222C38.8163 44.2006 38.6434 45.2888 39.3169 46.3712L39.3267 46.3754ZM42.9562 60.748C42.9443 60.7919 42.9324 60.8357 42.9205 60.8795C42.7786 60.8398 42.6284 60.8197 42.4905 60.7653C42.3626 60.7152 42.247 60.6308 42.1276 60.5611C42.1541 60.5212 42.1807 60.4813 42.2075 60.4462C42.4587 60.5467 42.705 60.6475 42.9562 60.748Z" fill="white"/>
<path fill-rule="evenodd" clip-rule="evenodd" d="M26.9241 49.6936C25.9948 48.9278 25.1966 47.934 23.8743 47.8618C24.4978 49.1627 25.8201 49.235 26.9241 49.6936Z" fill="white"/>
<path fill-rule="evenodd" clip-rule="evenodd" d="M75.374 60.8799C75.1137 61.0387 74.8493 61.2073 74.5055 61.4188C74.7358 61.9087 74.9338 62.3381 75.1264 62.7583C76.3499 62.2851 76.3795 62.0486 75.374 60.8799Z" fill="white"/>
<path fill-rule="evenodd" clip-rule="evenodd" d="M85.2024 70.5722C85.6813 70.9519 85.9437 71.3297 86.2386 71.3558C86.9255 71.4216 86.9684 70.7482 87.0488 70.3075C87.1397 69.7991 86.6587 69.5489 86.2708 69.6624C85.9254 69.7638 85.6643 70.1574 85.1976 70.5725L85.2024 70.5722Z" fill="white"/>
<path fill-rule="evenodd" clip-rule="evenodd" d="M82.3556 71.4937C82.9435 71.5939 83.5068 71.686 84.2889 71.8181C83.9586 71.013 83.9294 70.339 83.1573 70.2973C82.472 70.2602 82.4262 70.7996 82.3556 71.4937Z" fill="white"/>
<path fill-rule="evenodd" clip-rule="evenodd" d="M71.4933 72.9067C72.4441 72.6266 72.836 72.2493 72.6063 71.769C72.4369 71.4194 72.1779 71.0989 71.6781 71.3578C71.0894 71.6601 71.0439 71.955 71.4936 72.9114L71.4933 72.9067Z" fill="white"/>
<path fill-rule="evenodd" clip-rule="evenodd" d="M81.1389 66.9301C81.4625 67.4529 81.7327 67.883 82.1199 68.5076C82.5821 67.6806 82.8333 67.115 82.2494 66.3341C81.9136 66.5164 81.5682 66.6993 81.1437 66.9298L81.1389 66.9301Z" fill="white"/>
<path fill-rule="evenodd" clip-rule="evenodd" d="M78.2887 74.8864C78.6527 74.5252 79.0537 74.1379 78.6873 73.5408C78.5601 73.3373 78.2341 73.107 78.0339 73.1377C77.8192 73.1692 77.519 73.4693 77.4835 73.687C77.3905 74.2434 77.4657 74.795 78.2887 74.8864Z" fill="white"/>
<path fill-rule="evenodd" clip-rule="evenodd" d="M76.5337 71.0916C77.8378 70.4317 77.8676 70.2814 76.9022 69.3069C76.2989 69.773 76.0201 70.2779 76.5337 71.0916Z" fill="white"/>
<path fill-rule="evenodd" clip-rule="evenodd" d="M68.4499 72.0327C67.8437 72.3648 67.5447 72.7702 67.9425 73.3271C68.0576 73.4882 68.6808 73.5337 68.798 73.3975C69.2669 72.8529 68.8311 72.4708 68.4501 72.0375L68.4499 72.0327Z" fill="white"/>
<path fill-rule="evenodd" clip-rule="evenodd" d="M75.2535 68.5444C75.5901 67.9595 75.8725 67.6845 75.8712 67.4114C75.8715 67.167 75.5546 66.9265 75.3769 66.6828C75.1888 66.9237 74.8983 67.1417 74.8368 67.4088C74.7871 67.6321 75.0056 67.9166 75.2487 68.5447L75.2535 68.5444Z" fill="white"/>
<path fill-rule="evenodd" clip-rule="evenodd" d="M63.2868 73.0161C63.3992 73.3786 63.516 73.736 63.6399 74.1314C63.8523 74.0616 64.059 74.0593 64.1068 73.9703C64.2586 73.6836 64.5325 73.2604 64.4266 73.094C64.2783 72.8582 63.8373 72.8022 63.5219 72.6718C63.442 72.7867 63.362 72.9015 63.2868 73.0161Z" fill="white"/>
<path fill-rule="evenodd" clip-rule="evenodd" d="M60.2754 51.3289C60.4831 51.0102 60.7982 50.7188 60.8466 50.3902C60.8876 50.1003 60.7151 49.6119 60.4916 49.4906C60.2385 49.3567 59.7077 49.4113 59.4878 49.6013C59.0795 49.9459 59.3759 50.5805 60.2799 51.3238L60.2754 51.3289Z" fill="white"/>
<path fill-rule="evenodd" clip-rule="evenodd" d="M57.3817 61.0462C57.3083 60.4418 57.2469 59.9614 57.1855 59.4809C56.8236 59.545 56.4384 59.5384 56.1049 59.6775C55.4282 59.9562 55.7505 60.4551 55.9199 60.9724C56.3299 60.9919 56.7447 61.0111 57.3817 61.0462Z" fill="white"/>
<path fill-rule="evenodd" clip-rule="evenodd" d="M55.8312 52.8551C56.6158 52.3913 56.8974 51.7968 56.6759 51.0717C55.2925 51.1899 55.1839 51.3926 55.8312 52.8551Z" fill="white"/>
<path fill-rule="evenodd" clip-rule="evenodd" d="M62.5662 53.5926C61.9412 54.3219 61.8645 54.9653 62.3361 55.5227C63.0472 54.897 63.1239 54.2537 62.5662 53.5926Z" fill="white"/>
<path fill-rule="evenodd" clip-rule="evenodd" d="M50.9197 64.6683C50.2464 65.172 49.9339 65.8418 50.3077 66.1509C50.5402 66.3435 51.0745 66.4325 51.3265 66.2981C51.9093 65.9769 51.7661 65.4964 50.9248 64.6728L50.9197 64.6683Z" fill="white"/>
<path fill-rule="evenodd" clip-rule="evenodd" d="M57.152 45.4904C57.7319 45.869 58.0468 46.1575 58.4088 46.2612C58.5213 46.2931 58.9853 45.7487 58.9347 45.6223C58.779 45.2575 58.4799 44.9106 58.1449 44.6903C58.0649 44.6374 57.6387 45.0885 57.152 45.4904Z" fill="white"/>
<path fill-rule="evenodd" clip-rule="evenodd" d="M48.7328 43.5562C49.6446 42.9334 49.7189 42.1384 49.081 41.7535C48.7769 41.5698 48.2853 41.8042 48.3303 42.1658C48.3785 42.5848 48.5658 42.9956 48.7326 43.5515L48.7328 43.5562Z" fill="white"/>
<path fill-rule="evenodd" clip-rule="evenodd" d="M55.4395 45.2585C54.6336 45.5495 54.1839 45.9252 54.1633 46.5686C54.1537 46.8183 54.4765 47.0776 54.6502 47.3359C54.8574 47.1754 55.2016 47.0549 55.2526 46.8555C55.379 46.3786 55.3783 45.8659 55.4347 45.2588L55.4395 45.2585Z" fill="white"/>
<path fill-rule="evenodd" clip-rule="evenodd" d="M55.7479 43.4341C55.9131 43.046 56.208 42.6552 56.2052 42.272C56.1987 41.9945 55.7936 41.7255 55.5663 41.4559C55.3683 41.6926 55.0113 41.924 55.0059 42.164C54.9958 42.5719 55.2073 42.9861 55.3272 43.3961C55.4673 43.4072 55.6077 43.4231 55.7431 43.4344L55.7479 43.4341Z" fill="white"/>
<path fill-rule="evenodd" clip-rule="evenodd" d="M60.3534 63.0264C59.7084 63.6866 59.3565 64.258 60.1642 64.9158C61.1551 64.1638 61.1685 64.0624 60.3534 63.0264Z" fill="white"/>
<path fill-rule="evenodd" clip-rule="evenodd" d="M67.8736 42.9689C68.4677 42.2589 68.4825 41.683 67.8346 41.1262C66.6687 42.0129 66.6658 42.2958 67.8736 42.9689Z" fill="white"/>
<path fill-rule="evenodd" clip-rule="evenodd" d="M63.2099 61.4191C63.4941 61.6758 63.8062 62.1658 64.0598 62.1415C64.8253 62.0686 64.8518 61.4441 64.7612 60.6251C64.2412 60.7845 63.8107 60.91 63.3807 61.045C63.3256 61.1728 63.2656 61.3009 63.2054 61.4241L63.2099 61.4191Z" fill="white"/>
<path fill-rule="evenodd" clip-rule="evenodd" d="M52.0137 54.5705C52.068 54.0115 52.1899 53.7074 52.1042 53.4727C52.0017 53.1959 51.7468 52.9471 51.505 52.7598C51.4245 52.6973 51.0337 52.8445 51.0149 52.9366C50.9559 53.2467 50.9015 53.638 51.0408 53.8839C51.1857 54.1439 51.5679 54.2656 52.0131 54.561L52.0137 54.5705Z" fill="white"/>
<path fill-rule="evenodd" clip-rule="evenodd" d="M57.054 62.4453C57.0659 62.8184 57.0005 63.1864 57.1189 63.4863C57.2035 63.7018 57.533 63.8266 57.7541 63.9911C57.9096 63.7665 58.1899 63.5394 58.1958 63.3091C58.2182 62.613 57.7952 62.369 57.054 62.4453Z" fill="white"/>
<path fill-rule="evenodd" clip-rule="evenodd" d="M64.8647 62.8474C63.9376 62.9536 63.8223 63.5401 63.794 64.0497C63.7802 64.2278 64.2243 64.5041 64.509 64.6026C64.6071 64.6353 64.9663 64.2743 64.9976 64.0665C65.0486 63.6993 64.9301 63.3132 64.8698 62.8519L64.8647 62.8474Z" fill="white"/>
<path fill-rule="evenodd" clip-rule="evenodd" d="M56.9571 56.6861C56.7744 57.1039 56.5916 57.5218 56.3917 57.9742C57.0477 58.3389 57.5456 58.2143 57.7482 57.7234C57.8577 57.4535 57.5678 57.015 57.4557 56.6573C57.2879 56.667 57.1249 56.6764 56.9571 56.6861Z" fill="white"/>
<path fill-rule="evenodd" clip-rule="evenodd" d="M67.0858 55.9673C67.9861 55.4792 68.2532 55.0229 67.9035 54.3818C67.812 54.2146 67.504 54.0455 67.3229 54.0751C67.1655 54.0986 66.9415 54.3846 66.9325 54.5625C66.9123 54.9614 67.0124 55.3629 67.0858 55.9673Z" fill="white"/>
<path fill-rule="evenodd" clip-rule="evenodd" d="M47.4605 47.171C47.5679 46.7815 47.7425 46.388 47.7438 45.995C47.7429 45.813 47.3957 45.6318 47.2073 45.4509C47.0037 45.6736 46.6362 45.8912 46.63 46.1168C46.6211 46.4624 46.8626 46.8126 47.0031 47.1639C47.1571 47.1646 47.3113 47.1701 47.4656 47.1755L47.4605 47.171Z" fill="white"/>
<path fill-rule="evenodd" clip-rule="evenodd" d="M51.5354 62.5242C51.6155 62.3279 51.68 62.1948 51.725 62.058C51.8685 61.628 52.0398 61.1773 51.5413 60.8754C51.4215 60.8009 51.1166 60.852 51.0217 60.9581C50.6415 61.373 50.567 61.8326 51.0293 62.2563C51.1003 62.3193 51.2032 62.3517 51.5357 62.529L51.5354 62.5242Z" fill="white"/>
<path fill-rule="evenodd" clip-rule="evenodd" d="M60.7732 57.8795C61.5352 57.4138 61.6115 56.9015 61.1765 56.3659C61.0779 56.2422 60.5407 56.2684 60.4189 56.4096C59.9447 56.945 60.2967 57.3751 60.778 57.8792L60.7732 57.8795Z" fill="white"/>
<path fill-rule="evenodd" clip-rule="evenodd" d="M63.0847 43.346C63.4706 42.6145 63.5533 42.1306 62.9184 41.7982C62.8043 41.7377 62.4883 41.847 62.4134 41.9664C62.0228 42.6167 62.4448 42.9277 63.0847 43.346Z" fill="white"/>
<path fill-rule="evenodd" clip-rule="evenodd" d="M62.5638 40.8171C63.2146 40.5064 63.5765 40.1932 63.2397 39.6089C63.1542 39.4605 62.7277 39.3222 62.617 39.4052C62.0945 39.7708 62.2321 40.2373 62.5686 40.8169L62.5638 40.8171Z" fill="white"/>
<path fill-rule="evenodd" clip-rule="evenodd" d="M62.0264 49.5073C62.0597 49.9175 62.0929 50.3277 62.1393 50.8809C62.5719 50.7073 62.8586 50.5902 63.3148 50.4105C62.9344 49.9868 62.6618 49.6815 62.3841 49.3716C62.2665 49.4168 62.1488 49.4619 62.0261 49.5025L62.0264 49.5073Z" fill="white"/>
<path fill-rule="evenodd" clip-rule="evenodd" d="M49.4047 55.7565C49.1559 55.1128 48.7086 54.8926 48.0629 55.096C48.2473 55.5678 48.6946 55.7879 49.4047 55.7565Z" fill="white"/>
<path fill-rule="evenodd" clip-rule="evenodd" d="M51.6432 47.0436C51.9988 46.6257 52.1489 46.2292 51.6449 45.9087C51.5301 45.8339 51.1018 45.9927 51.0521 46.1297C50.8603 46.6387 51.0994 46.9505 51.648 47.0433L51.6432 47.0436Z" fill="white"/>
<path fill-rule="evenodd" clip-rule="evenodd" d="M66.2466 45.2097C66.5723 45.4353 66.8664 45.6962 66.9124 45.66C67.1509 45.4594 67.3772 45.2115 67.481 44.9276C67.5102 44.8492 67.0245 44.4364 66.9309 44.4801C66.6831 44.6046 66.5219 44.8967 66.2463 45.2049L66.2466 45.2097Z" fill="white"/>
<path fill-rule="evenodd" clip-rule="evenodd" d="M62.813 46.7781C63.1745 46.9631 63.4014 47.1463 63.6485 47.1799C63.7356 47.1893 64.0078 46.7426 63.9544 46.6499C63.8371 46.4508 63.5671 46.2701 63.3392 46.2354C63.2181 46.2184 63.0483 46.5251 62.8082 46.7784L62.813 46.7781Z" fill="white"/>
<path fill-rule="evenodd" clip-rule="evenodd" d="M38.6851 38.9034C39.5717 37.9274 39.4886 36.9882 38.5449 35.1402C37.719 35.4179 37.5139 35.6981 37.7495 36.2787C37.917 36.6811 38.1647 37.055 38.3134 37.4633C38.4617 37.8669 38.5302 38.3038 38.68 38.8989L38.6851 38.9034Z" fill="white"/>
<path fill-rule="evenodd" clip-rule="evenodd" d="M37.8928 31.9575C37.9023 31.6215 38.0005 31.3235 37.8969 31.1953C37.3329 30.5091 36.7416 29.8484 36.1135 29.2185C35.7967 28.8966 35.3086 28.8577 35.123 29.3093C35.0135 29.5791 35.1416 30.1324 35.3681 30.3062C36.0938 30.8777 36.9136 31.3288 37.8877 31.953L37.8928 31.9575Z" fill="white"/>
<path fill-rule="evenodd" clip-rule="evenodd" d="M51.8022 33.22C52.1188 32.8711 52.4474 32.6461 52.5645 32.3422C52.7954 31.7586 52.9372 31.1323 53.0359 30.5084C53.0538 30.4019 52.691 30.1162 52.5139 30.1312C52.2645 30.1456 51.9513 30.3026 51.8041 30.5028C51.3715 31.0932 51.3897 31.6577 51.7974 33.2203L51.8022 33.22Z" fill="white"/>
<path fill-rule="evenodd" clip-rule="evenodd" d="M46.5737 29.5108C46.9457 28.4542 46.9631 27.4229 46.3931 26.3824C45.0714 27.1536 45.0771 27.3353 46.5737 29.5108Z" fill="white"/>
<path fill-rule="evenodd" clip-rule="evenodd" d="M24.9376 35.1638C25.4343 34.8524 25.8937 34.6438 26.2357 34.3173C26.3907 34.1694 26.437 33.7211 26.3252 33.5359C26.2192 33.3647 25.8135 33.2539 25.5807 33.3057C25.2056 33.3896 24.8739 33.6436 24.5076 33.7989C24.066 33.9826 23.8301 34.3124 24.0845 34.7195C24.2274 34.946 24.6213 35.0191 24.9333 35.1736L24.9376 35.1638Z" fill="white"/>
<path fill-rule="evenodd" clip-rule="evenodd" d="M42.9732 34.9278C43.266 34.4988 43.5184 34.2877 43.557 34.0411C43.6441 33.4658 43.6677 32.875 43.6389 32.2921C43.6281 32.1058 43.4142 31.8163 43.2436 31.7782C43.0683 31.7404 42.7401 31.8887 42.6485 32.0521C42.138 32.9586 42.3275 33.8246 42.9732 34.9278Z" fill="white"/>
<path fill-rule="evenodd" clip-rule="evenodd" d="M31.3534 34.8269C31.5121 34.9088 31.7467 35.1397 31.9923 35.1447C32.5126 35.1578 33.3171 34.3446 33.256 33.8689C33.2228 33.6264 33.0204 33.2883 32.8088 33.2047C32.223 32.9749 31.17 34.066 31.3531 34.8222L31.3534 34.8269Z" fill="white"/>
<path fill-rule="evenodd" clip-rule="evenodd" d="M32.8162 27.1712C33.2897 26.5401 34.5636 26.5241 34.3181 25.1869C33.3672 24.8824 32.8293 25.3974 32.3977 26.0884C32.1335 26.511 32.1095 26.9293 32.8165 27.176L32.8162 27.1712Z" fill="white"/>
<path fill-rule="evenodd" clip-rule="evenodd" d="M39.5209 24.9775C38.8072 25.3638 37.7858 25.255 37.4127 26.5416C38.0465 26.5194 38.5681 26.5564 39.0733 26.4745C39.9506 26.3376 40.0339 26.0309 39.5209 24.9775Z" fill="white"/>
<path fill-rule="evenodd" clip-rule="evenodd" d="M26.1041 28.1336C25.9784 28.2894 25.581 28.5711 25.5281 28.9048C25.4652 29.3158 26.6223 29.9438 27.0854 29.7158C27.3476 29.5905 27.5662 29.1274 27.5858 28.8004C27.6184 28.281 27.0539 28.0021 26.0996 28.1387L26.1041 28.1336Z" fill="white"/>
<path fill-rule="evenodd" clip-rule="evenodd" d="M35.833 38.7662C34.3874 39.2234 34.2739 39.5079 34.9244 40.86C36.2582 40.5482 36.3651 40.3168 35.833 38.7662Z" fill="white"/>
<path fill-rule="evenodd" clip-rule="evenodd" d="M19.7129 31.603C21.563 31.5681 21.7219 31.4056 21.2764 30.1039C19.86 30.4013 19.8188 30.4372 19.7129 31.603Z" fill="white"/>
</g>
<defs>
<clipPath id="clip0_3219_3135">
<rect width="70.1133" height="57.4613" fill="white" transform="matrix(-0.998338 0.0576288 0.0576288 0.998338 83.9961 17)"/>
</clipPath>
</defs>
</svg>
