<svg width="88" height="88" viewBox="0 0 88 88" fill="none" xmlns="http://www.w3.org/2000/svg">
<circle cx="44" cy="44" r="44" fill="#A92966"/>
<g clip-path="url(#clip0_3219_3136)">
<path d="M38.0796 41.8365C37.4184 39.9912 36.8923 38.1547 36.7675 36.1996C36.6051 34.9228 37.2305 29.016 39.3755 31.1282C41.6744 34.0708 44.5791 36.7363 45.0175 40.6291C46.316 39.2449 47.6745 37.8241 49.6048 37.413C50.4817 37.2604 51.159 38.3357 50.6331 39.0487C48.2777 41.2254 45.5854 43.176 44.3846 46.2782C47.5327 46.4003 50.6805 45.7493 53.8054 46.4408C60.7259 47.6952 62.784 55.9669 60.8398 61.8141C57.9322 71.1787 45.5684 80.4109 36.772 72.0963C33.9991 69.7804 30.3962 71.3122 27.2379 70.1807C20.2848 67.3271 19.4041 58.0562 20.0453 51.565C20.9816 41.6189 29.038 34.3602 38.0796 41.8365ZM22.6669 47.633C20.9378 53.8061 21.0913 60.9467 25.0779 66.2993C27.1931 69.1992 30.9765 68.3606 34.0707 68.7369C40.1648 70.3197 41.6538 75.9524 49.2359 72.4097C54.0145 70.002 57.7949 65.6417 59.2903 60.509C60.7959 55.4937 58.8914 48.4511 52.8067 47.88C48.612 47.1417 43.5942 49.25 40.0064 46.2852C37.7543 44.1266 35.6178 41.6208 32.4322 40.8938C27.5902 39.3456 24.0458 43.4765 22.6646 47.6322L22.6669 47.633ZM42.4914 44.4647C44.7834 40.4256 41.5697 35.7497 38.7948 32.7542C37.1382 35.7955 39.1708 42.8891 42.4914 44.4647Z" fill="white"/>
<path d="M57.4235 60.1067C56.7482 61.4948 54.209 66.3417 52.4142 65.6543C52.1781 65.3238 52.4134 65.0966 52.5985 64.8474C55.4088 61.599 57.3371 57.5377 55.7285 53.2444C53.6687 48.2574 59.7344 53.6311 57.4265 60.1052L57.4235 60.1067Z" fill="white"/>
<path d="M23.7721 48.5588C24.3177 47.4784 25.2241 45.1383 26.6446 45.297C27.3313 46.2194 25.3577 48.3352 25.0483 49.4068C24.1269 51.7022 23.1078 50.3124 23.7698 48.5581L23.7721 48.5588Z" fill="white"/>
<path d="M46.9612 69.1808C46.4874 68.8561 46.7942 68.2048 47.3499 68.1857C48.4989 68.3314 50.365 66.6422 51.137 67.336C51.5551 68.9301 48.1473 69.505 46.9634 69.1815L46.9612 69.1808Z" fill="white"/>
</g>
<g clip-path="url(#clip1_3219_3136)">
<path d="M56.7176 12.188C55.6517 11.2393 54.6751 10.2491 53.9136 9.04315C53.3646 8.28389 51.7046 4.29095 53.812 4.89287C56.3071 5.97175 59.0929 6.66236 60.7304 8.99722C61.0776 7.65985 61.4503 6.27818 62.5405 5.34237C63.0477 4.93909 63.8555 5.39009 63.768 6.02913C63.0218 8.2415 61.9814 10.4268 62.2957 12.8281C64.3501 11.8084 66.1348 10.2947 68.3729 9.64702C73.2329 8.03555 77.4324 12.604 78.2289 17.0187C79.6361 24.0171 74.954 34.2282 66.4333 31.9819C63.8537 31.4688 62.0854 33.704 59.6725 34.0822C54.234 34.683 50.4385 29.0654 48.5848 24.6935C45.7151 18.0108 48.3326 10.5629 56.7176 12.188ZM48.8891 21.2666C49.9367 25.8145 52.5246 30.3243 56.9387 32.3549C59.3017 33.4705 61.4271 31.6154 63.5357 30.7769C67.9821 29.6634 70.8977 32.7439 74.5078 27.8361C76.7221 24.6312 77.6176 20.5265 76.7836 16.7249C75.997 12.9949 72.3242 9.15828 68.2365 10.915C65.2984 11.9058 62.8269 15.0028 59.5003 14.3591C57.3083 13.7649 55.0692 12.9086 52.7799 13.5548C49.1457 14.2537 48.3211 18.1295 48.8874 21.2669L48.8891 21.2666ZM60.4535 12.3293C60.5098 8.94879 56.8256 7.08117 54.0078 6.13444C54.0096 8.65565 57.782 12.4802 60.4535 12.3293Z" fill="white"/>
<path d="M75.4516 17.1187C75.504 18.2413 75.5714 22.2242 74.1847 22.4107C73.9186 22.2818 73.9897 22.0546 74.0211 21.8308C74.6844 18.7749 74.5006 15.5071 71.9755 13.3243C68.9203 10.8555 74.6704 12.1746 75.453 17.1167L75.4516 17.1187Z" fill="white"/>
<path d="M49.9179 21.473C49.8898 20.5922 49.6531 18.7807 50.6162 18.3868C51.3767 18.7368 50.8532 20.7771 51.0292 21.5698C51.2408 23.358 50.1048 22.8252 49.9162 21.4733L49.9179 21.473Z" fill="white"/>
<path d="M71.9287 26.5653C71.5127 26.523 71.4817 25.9998 71.8301 25.7939C72.6153 25.4863 73.2188 23.7561 73.9541 23.9303C74.7771 24.8033 72.7998 26.3589 71.9304 26.565L71.9287 26.5653Z" fill="white"/>
</g>
<defs>
<clipPath id="clip0_3219_3136">
<rect width="42.463" height="41.0708" fill="white" transform="translate(27.8379 27) rotate(18.7889)"/>
</clipPath>
<clipPath id="clip1_3219_3136">
<rect width="30.9131" height="29.8996" fill="white" transform="translate(45 6.27734) rotate(-9.8292)"/>
</clipPath>
</defs>
</svg>
