<svg width="25" height="24" viewBox="0 0 25 24" fill="none" xmlns="http://www.w3.org/2000/svg">
<g clip-path="url(#clip0_322_2302)">
<path d="M23.2127 14.8827C23.0155 14.9685 22.9785 15.1645 23.0155 15.3238C23.1018 15.7282 23.1634 16.0959 22.6272 16.2307C22.5162 16.2613 22.5409 16.3471 22.5409 16.439C22.5347 16.9598 22.2697 17.3397 21.8074 17.5603C21.3883 17.7625 21.0677 18.0811 20.889 18.4793C20.6979 18.9021 20.3774 19.2023 20.0692 19.5026C19.57 19.9866 18.892 20.3297 18.516 20.8812C18.103 21.4878 17.3387 21.4694 16.9566 22.0269C16.636 22.0943 16.4203 22.3149 16.1861 22.5232C16.0567 22.6397 15.9026 22.7254 15.7485 22.8112C15.6745 22.8541 15.5759 22.8786 15.4958 22.8786C14.8732 22.8847 14.374 23.283 13.7761 23.381C12.9933 23.5097 12.2167 23.6751 11.44 23.8344C10.8113 23.9631 10.1641 24.0428 9.4923 23.9509C8.75266 23.8528 7.99452 23.9386 7.27337 23.6568C7.19324 23.6261 7.08846 23.6629 7.00833 23.6322C5.57835 23.0502 4.07441 22.6335 2.79852 21.7328C2.26228 21.353 1.76302 20.9057 1.49181 20.2623C1.35621 19.9437 1.22677 19.6067 0.937078 19.3739C0.90626 19.3494 0.850787 19.2881 0.863114 19.2697C1.11583 18.7183 0.530274 18.4058 0.493291 17.9401C0.487128 17.8544 0.4748 17.7318 0.52411 17.6889C0.776822 17.4561 0.696694 17.2416 0.52411 17.0149C0.320708 16.7453 0.259071 16.4819 0.585747 16.2307C0.715185 16.1326 0.635057 16.0101 0.505619 15.9427C0.154288 15.765 -0.0367874 15.5567 0.129633 15.1033C0.240579 14.7969 -0.135407 14.4415 0.0988142 14.1045C0.326871 13.7737 -0.02446 13.5225 0.0125223 13.2345C0.0433408 12.9772 0.178942 12.7382 0.203597 12.4809C0.222088 12.2235 0.19127 11.9478 0.123469 11.6966C0.0371771 11.4086 0.499455 11.4515 0.394672 11.1942C0.277562 10.9123 0.579583 10.6856 0.517946 10.4405C0.431654 10.1035 0.456309 9.79104 0.493291 9.4418C0.542601 8.93937 0.64122 8.5166 0.95557 8.10608C1.10966 7.90388 1.23294 7.62816 1.14664 7.26666C1.07884 6.97256 1.23294 6.5069 1.45483 6.3047C1.75069 6.04123 1.67056 5.70424 1.83082 5.43465C2.0034 5.13442 2.05887 4.77292 2.18831 4.44818C2.41637 3.87836 2.6321 3.29628 3.13752 2.89189C3.31627 2.75096 3.43954 2.57327 3.50118 2.3527C3.64911 1.77062 4.12372 1.5623 4.6353 1.43975C5.1962 1.31108 5.73861 1.1334 6.26869 0.931201C6.69398 1.26207 6.98984 0.78415 7.35966 0.759641C7.53841 0.349123 7.8281 0.281725 8.21025 0.490047C9.34438 0.0672747 10.571 0.502302 11.7236 0.0917833C12.155 -0.0613952 12.7159 -0.00625097 13.1659 0.116292C13.5727 0.22658 13.924 0.189817 14.3185 0.159182C15.8841 0.0182576 17.4743 0.385886 18.8365 1.2008C19.2926 1.47039 19.7302 1.73998 20.2418 1.91154C20.7842 2.09536 21.2712 2.45073 21.6348 2.89801C21.9676 3.3024 22.3313 3.67003 22.7258 4.00702C22.9169 4.16633 22.6826 4.44205 22.9477 4.55234C23.1079 4.61974 23.262 4.7239 23.3853 4.84032C23.5825 5.02413 23.6812 5.18956 23.5209 5.50817C23.3606 5.81453 23.4716 5.91257 23.9647 6.12702C24.1373 6.20054 24.3037 6.28019 24.2667 6.48239C24.2112 6.80713 24.0448 7.14412 24.5071 7.31568C24.4886 7.35244 24.4701 7.39533 24.4516 7.4321C24.3407 7.62816 24.2359 7.80585 24.5071 7.98354C24.9755 8.28377 24.8276 8.74943 24.7536 9.16608C24.7413 9.24573 24.5441 9.34989 24.4331 9.34989C24.2667 9.34989 24.1065 9.24573 23.9339 9.21509C23.9031 9.20897 23.8353 9.307 23.8044 9.36827C23.7921 9.39278 23.8168 9.46631 23.8353 9.47856C23.9585 9.52145 24.088 9.53983 24.2112 9.58272C24.2914 9.60723 24.4146 9.63787 24.427 9.69301C24.5564 10.1525 24.618 10.6305 24.9509 11.0165C24.9632 11.0287 24.8769 11.1635 24.8214 11.1819C24.6242 11.2432 24.3653 11.1329 24.2236 11.3657C24.1619 11.476 24.1065 11.5985 24.0941 11.7211C24.0818 11.8681 24.1866 11.9539 24.3407 11.9662C24.5194 11.9784 24.6982 11.9784 24.8646 12.0152C24.9262 12.0274 24.994 12.1316 25.0064 12.2051C25.0125 12.2725 24.9694 12.3767 24.9201 12.4257C24.8584 12.4809 24.766 12.5115 24.6797 12.5237C24.4331 12.5666 24.279 12.6831 24.2852 12.9526C24.2852 13.1303 24.2852 13.308 24.2606 13.4796C24.2482 13.5592 24.1989 13.6389 24.1619 13.7185C24.051 13.6511 23.9339 13.596 23.8414 13.5041C23.7798 13.4489 23.7736 13.3448 23.7181 13.2713C23.6812 13.2161 23.6134 13.1855 23.5579 13.1487C23.5332 13.1855 23.4901 13.2222 23.4901 13.2651C23.5024 13.6879 23.3606 14.1536 23.8414 14.4354C23.9154 14.4783 23.8907 14.5702 23.7736 14.6008C23.5641 14.656 23.3298 14.656 23.2127 14.8888H23.2189L23.2127 14.8827ZM16.5189 18.0566H16.7778L17.5914 17.1068C17.6839 16.8556 17.7887 16.5922 18.029 16.4635C18.4543 16.2368 18.6023 15.8263 18.7933 15.4464C18.8981 15.2442 19.1693 15.1339 19.0461 14.7724C18.9721 14.5641 19.3727 14.4293 19.5761 14.2761C19.6439 14.221 19.6131 14.1597 19.496 14.1168C19.2988 14.0433 19.1755 13.8533 19.3173 13.7247C19.7364 13.3509 19.6871 12.7933 19.9275 12.3461C20.1 12.0336 20.0446 11.5985 20.0877 11.2187C19.6439 10.6488 20.0076 10.0423 20.0384 9.46018C20.0569 9.17833 20.2603 8.90874 20.3774 8.63301C20.0076 8.46146 20.0138 8.06932 19.8412 7.78747C19.5761 7.3647 19.4775 6.90516 19.3173 6.45175C18.9351 5.36725 18.3865 4.36853 17.5298 3.572C17.3757 3.42495 17.16 3.29015 16.9627 3.25951C16.1738 3.15535 15.4156 2.84287 14.6082 2.91639C14.0411 2.97154 13.4987 2.74483 12.9132 2.8735C12.3584 2.99605 11.7605 2.97154 11.1873 2.92865C10.4107 2.8735 9.68338 3.09408 8.98072 3.31466C8.27805 3.53524 7.61854 3.95188 7.00217 4.36853C5.65848 5.27534 4.62298 6.88065 4.22233 8.55336C4.14221 8.89035 3.9573 9.25798 4.03742 9.56434C4.14221 9.98098 4.03742 10.3609 3.92648 10.6856C3.74773 11.2003 3.71691 11.7088 3.69226 12.2358C3.6676 12.9343 3.74157 13.6328 3.54433 14.3313C3.42105 14.7724 3.41489 15.3055 3.54433 15.7405C3.6676 16.1694 3.72924 16.5922 3.77855 17.0272C3.82169 17.3764 3.88333 17.7379 4.03126 18.0443C4.1607 18.3139 3.96962 18.6693 4.25315 18.8531C4.61065 19.0859 4.4319 19.5209 4.67845 19.7905C4.76474 19.8824 4.75858 20.054 4.85103 20.1398C5.38728 20.6667 5.91735 21.1936 6.49058 21.6838C6.75562 21.9105 7.10079 22.0086 7.47061 22.0515C8.16711 22.1311 8.8143 22.0147 9.3567 21.6103C9.69571 21.353 10.0285 21.2304 10.4354 21.1875C10.6511 21.163 10.836 20.9976 10.9038 20.7647C10.9531 20.5993 10.9346 20.3665 11.0394 20.2685C11.3907 19.9498 11.7482 19.6619 11.9208 19.1901C11.9578 19.0798 12.2598 18.9634 12.3831 19.0063C12.605 19.0859 12.494 19.2881 12.3831 19.4413C12.3584 19.4719 12.3214 19.5332 12.3338 19.5516C12.5002 19.8089 12.6913 20.0479 12.9871 20.1643C13.0364 20.1827 13.1535 20.1153 13.1967 20.054C13.2398 19.9927 13.2645 19.8579 13.2275 19.8089C12.8269 19.2881 13.0857 18.9082 13.4864 18.559C13.7514 18.3261 14.0165 18.0933 14.2938 17.8789C14.4479 17.7563 14.7561 17.9095 14.8054 18.1301C14.8239 18.2036 14.7869 18.2955 14.7499 18.3629C14.6945 18.4732 14.713 18.5283 14.8239 18.5712C15.1383 18.6815 15.428 18.4548 15.3602 18.1362C15.3355 18.0259 15.2615 17.8115 15.3971 17.8727C15.7485 18.0198 16.069 17.7808 16.3895 17.8727C16.4511 17.8911 16.4819 18.0075 16.5251 18.0749C16.1861 18.124 16.0505 18.4364 15.8224 18.6325C15.7238 18.7122 15.7423 18.7918 15.8594 18.8286C15.8964 18.8408 15.9519 18.8531 15.9765 18.8286C16.2847 18.657 16.6052 18.4916 16.4943 18.0443L16.5189 18.0566ZM20.1494 4.19084C20.1617 4.1602 20.1925 4.11731 20.1863 4.09893C19.8227 3.38818 19.4035 2.70194 18.7009 2.30368C18.1277 1.97894 17.4681 1.84414 16.7901 1.87478C16.7532 1.87478 16.6792 1.9238 16.6854 1.94218C16.6977 2.00345 16.7162 2.09536 16.7593 2.11987C17.0675 2.29755 17.3757 2.46911 17.69 2.62229C18.5221 3.02056 19.3604 3.40657 19.9028 4.20309C19.9213 4.2276 19.9891 4.22147 20.0322 4.22147C20.0754 4.22147 20.1124 4.20309 20.1555 4.19084H20.1494ZM24.4763 8.5166C24.464 8.36342 24.3592 8.3144 24.2236 8.32666C24.1558 8.33278 24.051 8.38793 24.0387 8.43695C24.0078 8.55949 24.0633 8.6759 24.2112 8.69429C24.3468 8.71267 24.4455 8.66365 24.4763 8.5166ZM13.961 19.9621C14.0041 20.1214 14.1213 20.1643 14.2384 20.1275C14.3801 20.0908 14.4048 19.9376 14.3555 19.8334C14.2938 19.7048 14.1459 19.717 14.035 19.7722C13.9856 19.7967 13.9795 19.9069 13.9548 19.956L13.961 19.9621ZM23.2127 14.8827C23.225 15.0052 23.1942 15.1707 23.262 15.2442C23.4038 15.4035 23.601 15.5015 23.8291 15.379C23.8661 15.3606 23.9154 15.2993 23.9154 15.2993C23.8106 15.1707 23.7181 15.0114 23.5825 14.9195C23.4901 14.8582 23.336 14.8949 23.2127 14.8888H23.2189L23.2127 14.8827Z" fill="white"/>
</g>
<defs>
<clipPath id="clip0_322_2302">
<rect width="25" height="24" fill="white"/>
</clipPath>
</defs>
</svg>
